<?xml version="1.0" encoding="utf-8"?>
<!-- Generator: Adobe Illustrator 23.0.4, SVG Export Plug-In . SVG Version: 6.00 Build 0)  -->
<svg version="1.1" id="Layer_1" xmlns="http://www.w3.org/2000/svg" xmlns:xlink="http://www.w3.org/1999/xlink" x="0px" y="0px"
	 viewBox="0 0 423 202.3" style="enable-background:new 0 0 423 202.3;" xml:space="preserve">
<style type="text/css">
	.st0{fill:#030055;}
	.st1{fill:#32C7EA;stroke:#0B0C0C;stroke-width:3;stroke-miterlimit:10;}
	.st2{fill:#FFFFFF;stroke:#0C0C0C;stroke-width:3;stroke-miterlimit:10;}
	.st3{fill:#5D99FF;}
	.st4{font-family:'Athelas-Regular';}
	.st5{font-size:35px;}
	.st6{fill:#E1BE00;}
	.st7{font-size:24px;}
</style>
<title>RCproject1</title>
<g>
	<rect y="0" class="st0" width="115.2" height="118.2"/>
	<path class="st1" d="M15.4,70.3l16.2,11.3c-1.7,1.3-3.2,2.8-4.7,4.3c-3.4,4.1-1.5,9.1,3.8,9.5s10.9,0.1,16.7,0.1V60.4H14.8l-1-9.8
		h87.5c-0.2,3.1-0.5,6.3-0.7,9.8H67.8v35.1c5.9,0,11.9,0.5,17.7-0.2c4.8-0.6,6.2-5.4,3-9.2c-1.5-1.6-3.1-3-4.7-4.4l16-11.2
		c-0.3,2.5-0.4,4.3-0.7,6.1c-1,7.7-1.8,15.4-3,23c-0.2,1.1-12.6,7-13.6,7.4c-11.3,4.4-11.3,4.3-22.8,8.5c-1.4,0.5-3,0.5-4.4,0
		c-11.2-4.1-22.3-8.4-33.5-12.5c-1.8-0.5-3.1-2.2-3.1-4.1C17.9,89.6,16.7,80.4,15.4,70.3z"/>
	<path class="st2" d="M87,22.4l18.1-13.1c-1,10.9-2,20.6-3,30.5h-89c-1-9.8-2-19.7-3-30.5l18.1,13.1L22,29.6
		c3.2,2.2,6.1,4.3,9.2,6.3c0.7,0.4,1.5,0.5,2.3,0.2c4.7-2,9.3-4.1,14.3-6.3L42.6,23L57.3,6.5L73.5,22l-5.9,7.8
		c5,2.2,9.6,4.3,14.3,6.3c0.9,0.2,1.8,0.1,2.5-0.4c2.9-1.8,5.7-3.9,8.8-6L87,22.4z"/>
	<rect x="115.2" y="0" class="st3" width="244.2" height="68.7"/>
	<text transform="matrix(0.99 0 0 1 121.0298 37.6898)" class="st4 st5">R</text>
	<text transform="matrix(0.99 0 0 1 143.1665 37.6898)" class="st4 st5">o</text>
	<text transform="matrix(0.99 0 0 1 160.3926 37.6898)" class="st4 st5">y</text>
	<text transform="matrix(0.99 0 0 1 176.1929 37.6898)" class="st4 st5">alCaribbean</text>
	<rect x="115.2" y="59.1" class="st6" width="245.1" height="27.8"/>
	<text transform="matrix(0.99 0 0 1 132.8599 78.6)" class="st4 st7">INTER</text>
	<text transform="matrix(0.99 0 0 1 203.2095 78.6)" class="st4 st7">N</text>
	<text transform="matrix(0.99 0 0 1 219.0396 78.6)" class="st4 st7">A</text>
	<text transform="matrix(0.99 0 0 1 233.5825 78.6)" class="st4 st7">TIO</text>
	<text transform="matrix(0.99 0 0 1 274.7964 78.6)" class="st4 st7">N</text>
	<text transform="matrix(0.99 0 0 1 290.6265 78.6)" class="st4 st7">AL</text>
	<text transform="matrix(0.93 0 0 1 148.0293 110.4701)" class="st4 st7">Get out there!</text>
</g>
</svg>
