<?xml version="1.0" encoding="UTF-8"?><svg id="Layer_1" xmlns="http://www.w3.org/2000/svg" viewBox="0 0 412 122"><defs><style>.cls-1{fill:#979797;}.cls-2{fill:#dbdbdb;}.cls-3{fill:#fbae24;}.cls-4{fill:silver;}.cls-5{fill:#f5f5f5;}.cls-6{fill:#a0a0a0;}.cls-7{fill:#0a0a0a;}.cls-8{fill:#232323;}.cls-9{fill:#111;}.cls-10{fill:#101010;}.cls-11{fill:gray;}.cls-12{fill:#0d0d0d;}.cls-13{fill:#f7aa15;}.cls-14{fill:#f7ac14;}.cls-15{fill:#fdfdfd;}.cls-16{fill:#f7aa16;}.cls-17{fill:#fbfbfb;}.cls-18{fill:#3b3b3b;}.cls-19{fill:#0e0e0e;}.cls-20{fill:#202020;}.cls-21{fill:#161616;}.cls-22{fill:#fbae13;}.cls-23{fill:#fcad14;}.cls-24{fill:#b3b3b3;}.cls-25{fill:#f9ac14;}.cls-26{fill:#070707;}.cls-27{fill:#acacac;}.cls-28{fill:#cdcdcd;}.cls-29{fill:#fcae13;}.cls-30{fill:#fefefe;}.cls-31{fill:#060606;}</style></defs><path d="M.93,49.01c1.73-3.03,5.1-3.69,7.85-4.89C44.6,28.55,81.71,17.08,120.16,10.19c21.28-3.81,42.76-6.02,64.39-6.95,47.47-2.04,94.28,2.39,140.4,13.75,27.35,6.74,53.73,16.35,79.67,27.22,2.24,.94,4.2,2.52,6.29,3.81,.41,5.68-3.22,10-5.33,14.72-7.6,17.06-15.72,33.88-23.55,50.84-2.88,6.24-4.07,6.71-10.17,4.03-28.86-12.68-58.72-21.9-89.77-27.82-31.41-5.99-62.98-7.8-94.77-6.64-42.82,1.56-84.22,10.4-124.33,25.44-8.18,3.07-16.35,6.16-24.19,10.02-3.67,1.81-6.13,1.16-7.93-2.77C21.47,95.26,11.91,74.76,2.45,54.21c-.75-1.63-1.67-3.28-1.51-5.2Z"/><path class="cls-27" d="M385.95,116.96l-.55-.43,.87-.59c.12,.41,.02,.76-.32,1.02Z"/><path class="cls-30" d="M385.95,116.96c.11-.34,.21-.68,.32-1.02,.24,.25,.48,.5,.72,.75-.23,.68-.59,.75-1.08,.23l.04,.04Z"/><path class="cls-11" d="M385.9,116.91l1.08-.23,.15,.23-.19,.2,.29,.32-.21,.38c-.67,.07-1.13-.12-1.12-.9Z"/><path class="cls-8" d="M387.02,117.81c-.05-.23-.08-.47-.08-.7,.4-.06,.87-.19,.83,.46,0,.1-.49,.17-.75,.25Z"/><path class="cls-29" d="M144.03,80.92c-11.01,1.49-21.93,3.54-32.63,6.41-13.09,3.5-26.04,7.52-39.01,11.49-10.9,3.34-21.62,7.13-31.69,12.6-2.26,1.23-4.69,.86-5.95-1.76-4.92-10.26-9.83-20.53-14.59-30.86-3.43-7.44-6.4-15.09-10-22.44-1.92-3.91-1.32-6.12,2.63-7.85,12.66-5.55,25.69-10.07,38.78-14.46,10.28-3.44,20.52-7.11,31.16-9.26,10.09-2.04,20.03-4.88,30.33-5.86,.92-.09,1.8-.65,2.7-.99,1.99-1.04,4.35,.41,6.29-.95l4.66-1.06c1.69-.82,3.61,.09,5.3-.73l2.67-.27c1.69-.87,3.69,.24,5.35-.85l.05-.02c1.47-1.2,3.48,.22,4.95-1.01,3.27-.2,6.36-1.86,9.74-1.1,2.3-.77,4.65-.27,6.98-.33,3.28,.82,6.62,.24,9.92,.44,1.59,.1,3.4-.45,4.49,1.34-.03,.64-.34,1.1-.92,1.38-1.65,.75-3.42,.53-5.15,.68-3.62-.28-7.13,.7-10.7,.95-2.63,.05-5.29-.33-7.88,.43-.5,.15-1.01,.25-1.52,.32-2.51,.35-5.09-.13-7.56,.66-.49,.15-.98,.25-1.49,.32-1.75,.19-3.53,.23-5.22,.82-1.53,.34-3.07,.41-4.63,.43-2.05-.04-4.1-.13-6.09,.56-6.7,.44-12.77,3.53-19.4,4.52-10.49,1.57-21.29,2.32-31.1,6.65-17.21,7.6-36.12,10.41-52.9,19.12-6.69,3.47-6.84,3.55-4.23,10.47,5.26,13.99,12.26,27.21,18.28,40.87,2.02,4.58,3.29,4.49,7.8,2.81,17.44-6.52,35.04-12.53,52.95-17.7,10.39-3,20.74-5.87,31.44-7.51,1.98-.3,3.95-.55,5.95-.56,1.75,.04,3.49,.07,5.17-.52,4.48-.64,8.48-2.94,12.92-3.71,1.76,.18,3.53,.34,5.31,.24,1.05-.03,2.09-.04,3.14-.03,2.69,.02,5.4,.24,8.01-.66,2.26-.43,4.54-.44,6.82-.42,3.79,0,7.6,.48,11.31-.68,7.03-.8,14.08-.27,21.12-.4,2.39,.23,4.78,.15,7.18,.1,2.06-.09,4.11,.03,6.14,.4,4.71,1.33,9.56,.3,14.32,.77,.55,.03,1.09,.13,1.62,.26,2.53,.98,5.2,.58,7.82,.75,.78,.04,1.55,.18,2.31,.36,1.95,.72,4,.56,6.02,.68,.77,.05,1.53,.18,2.29,.36,3.31,.86,6.62,.64,9.93,.05,14.14,2.74,28.42,4.76,42.28,8.83,18.92,5.56,37.97,10.74,56.13,18.59,3.35,1.45,6.62,3.05,9.91,4.64,1.75,2.19-.65,2.54-1.57,3.56-13.43-7.61-28.31-11.5-42.75-16.45-8.31-2.85-16.84-5.05-25.27-7.54-1.6-.84-3.49,.21-5.06-.78-2.51,.12-4.73-.86-6.96-1.78-1.27-1.78-3.49,.06-4.87-1.28-7.16,.21-13.94-2.13-20.87-3.33-4.06-.7-8.3,.04-12.19-1.69-2.05-1.09-4.4,.06-6.48-.84-3.5-.52-7.08,1.75-10.54-.27-1.73-.78-3.68,.05-5.41-.72-2.18-.04-4.37-.09-6.55-.13-3.37-1.29-6.97,.21-10.36-.88-3.46,0-6.91,0-10.37,0-7.72,1.11-15.51-.31-23.23,.74-1.94,.08-3.89,.16-5.83,.24-1.62,.96-3.58-.18-5.18,.84l-.26,.24-.35-.02c-2.05,.87-4.36-.25-6.39,.8l-3.75,.17c-1.99,1-4.3-.31-6.26,.87h-.03c-2.88,1.33-6.07-.27-8.95,.97Z"/><path class="cls-23" d="M176.01,13.89c-2.69-1.7-5.67-.45-8.49-.84-1.85-.25-3.91,.69-5.51-.98,2.19-1.33,4.81,.32,7-1l5.65-.13c3.39-1.01,6.93,.26,10.32-.73l5.75-.26c3.35-1.09,6.93,.39,10.27-.88h7.01c7.66,1.13,15.36,.17,23.04,.5,3.1,.14,6.23-.41,9.31,.35,.27-.12,.49-.05,.65,.2,3,1.17,6.23-.25,9.24,.83,3.78,1.45,7.85,1.3,11.74,2.13,1.68,1.06,3.7,0,5.41,.84,8.63,.15,17.22,.6,25.56,3.16,2.89,1.03,5.91,.15,8.84,.54,4.32-.04,8.44,.67,12.45,2.45,4.81,2.14,10.41,1.33,15.19,3.88,1.85,.98,4.12,1.16,5.54,2.96,1.39,1.48,3.5-.13,4.94,1.14,1.15,.69,2.46,.64,3.73,.86,20.43,3.53,38.6,13.32,57.59,20.86,3.49,1.39,2.04,3.62,1.15,5.6-3.83,8.58-7.75,17.11-11.73,25.63-4.49,9.62-9.19,19.14-13.53,28.83-1.27,2.83-2.64,3.47-5.19,1.97l1.84-3.17c-1.36-2.07-.19-3.88,.72-5.6,7.58-14.26,13.94-29.1,20.65-43.77,2.37-5.19,1.99-5.83-2.99-8.37-12.08-6.15-24.86-10.84-37.74-14.41-15.86-4.39-31.6-9.32-47.7-12.92-8.17-1.83-16.32-3.04-24.66-3.21-2.24-.04-4.28-.58-6.05-1.99-2.59-1.7-5.48-.75-8.24-.93-9.01-.92-18.03-1.68-26.93-3.38-4.07-1.2-8.23-.41-12.35-.63-1.35,.04-2.67-.11-3.99-.39-2.21-.74-4.43-.89-6.66-.06-.51,.15-1.03,.24-1.55,.3-4.05,.34-8.12-.22-12.15,.5-.56,.07-1.12,.06-1.67-.01-7.25-.45-14.5-.76-21.73,.19-1.58,.34-3.17,1.38-4.72-.07Z"/><path class="cls-25" d="M240.35,9.92c-9.56,.04-19.13,.09-28.69,.12-1.29,0-2.68,.26-3.66-.97,10.2,.02,20.4,.02,30.6,.09,.58,0,1.16,.5,1.75,.76Z"/><path class="cls-22" d="M181.04,76.82c7.69-1.81,15.49-.47,23.23-.74-7.71,1.19-15.48,.7-23.23,.74Z"/><path class="cls-13" d="M169.01,11.07c-2.11,1.89-4.68,.58-7,1-2.42-.04-4.84-.08-7.25-.11,4.72-.78,9.45-1.36,14.25-.89Z"/><path class="cls-25" d="M201,9.07c-3.27,2.03-6.84,.6-10.27,.88,3.42-.29,6.84-.59,10.27-.88Z"/><path class="cls-25" d="M184.98,10.21c-3.33,1.75-6.88,.53-10.32,.73,3.37-1.26,6.86-.73,10.32-.73Z"/><path class="cls-22" d="M214.63,76.09c3.45,.3,7.05-1.17,10.36,.88-3.47-.12-6.96,.04-10.36-.88Z"/><path class="cls-25" d="M250.25,10.96c-3.08-.24-6.3,1-9.24-.83,3.05,.58,6.27-.66,9.24,.83Z"/><path class="cls-16" d="M144.03,80.92c2.82-1.89,5.98-.54,8.95-.96-2.85,1.54-5.95,.81-8.95,.96Z"/><path class="cls-3" d="M301.8,17.63c-2.99,.45-5.99,1.15-8.84-.54,2.95,.07,5.93-.26,8.84,.54Z"/><path class="cls-16" d="M163.02,78.91c1.95-1.71,4.24-.68,6.39-.8-1.97,1.51-4.24,.66-6.39,.8Z"/><path class="cls-22" d="M247.49,78.09c2.17,.18,4.51-.93,6.48,.84-2.16-.25-4.41,.18-6.48-.84Z"/><path class="cls-16" d="M153.01,79.95c1.88-1.77,4.15-.73,6.26-.87-1.94,1.37-4.18,.57-6.26,.87Z"/><path class="cls-14" d="M122.04,16.99c-1.86,1.9-4.17,.78-6.29,.95,1.95-1.28,4.17-.78,6.29-.95Z"/><path class="cls-13" d="M145.02,13.05c-1.38,1.65-3.28,.77-4.95,1.01,1.42-1.45,3.26-.88,4.95-1.01Z"/><path class="cls-25" d="M267.4,13.92c-1.84-.08-3.82,.81-5.41-.84,1.86-.08,3.74-.26,5.41,.84Z"/><path class="cls-3" d="M339.92,28.05c-1.66-.29-3.63,.73-4.94-1.14,1.68,.24,3.52-.26,4.94,1.14Z"/><path class="cls-13" d="M140.02,14.08c-1.57,1.64-3.53,.79-5.35,.85,1.65-1.11,3.54-.74,5.35-.85Z"/><path class="cls-22" d="M231.54,77.1c1.82,.09,3.77-.74,5.41,.72-1.84,.02-3.72,.33-5.41-.72Z"/><path class="cls-16" d="M170.02,77.9c1.52-1.55,3.43-.73,5.18-.84-1.55,1.35-3.41,.86-5.18,.84Z"/><path class="cls-22" d="M287.03,83.96c1.65,.33,3.69-.82,4.87,1.28-1.62-.43-3.25-.85-4.87-1.28Z"/><path class="cls-22" d="M298.86,87.02c1.71,.15,3.55-.63,5.06,.78-1.71-.09-3.53,.52-5.06-.78Z"/><path class="cls-13" d="M132,15.2c-1.6,1.46-3.5,.69-5.3,.73,1.65-1.11,3.51-.62,5.3-.73Z"/><path d="M176.01,13.89c1.54,.56,2.65-.75,4.02-.92,7.65-.72,15.3-.56,22.95-.07l1.05,.04c4.34-1.09,8.84,.38,13.18-.81,.32,.06,.6-.02,.83-.26,1.96-.51,3.93-.38,5.91-.09l3.9,.34c4.31,1.27,8.82-.38,13.14,.89l26.81,3.12c2.92,1.35,6.26-.62,9.13,1.12,.87,1.62,2.44,1.49,3.91,1.52,17.04,.37,33.19,5.12,49.42,9.74,15.35,4.37,30.81,8.38,45.77,14,6.77,2.54,13.32,5.67,20,8.47,3.6,1.51,2.82,4,1.53,6.52-6.17,12.06-10.82,24.81-17,36.88-2.38,4.65-5.83,8.89-6.76,14.25-6.45-.57-11.39-5.05-17.43-6.72-8.57-2.38-16.74-5.93-25.36-8.33-7.62-2.12-15.23-4.74-22.87-6.97-10.53-3.07-21.14-5.8-32.17-6.81-3.64-.33-7.11-2.55-10.97-2.78-3.33,.78-6.67,.67-10,.06l-1.53-.21c-2.08-.87-4.36,.06-6.45-.72l-1.67-.27c-2.71-1.08-5.66,.29-8.36-.84l-.4-.2-.44,.09c-4.99-1.23-10.12,.24-15.13-.78-1.92-.09-3.84-.17-5.76-.26-2.54-.66-5.08-.64-7.63,0-7.22,.09-14.44,.18-21.65,.27-3.72,.94-7.59-.35-11.31,.73-2.23,.07-4.45,.14-6.68,.22-2.62,1.05-5.5-.35-8.11,.84l-2.81,.02c-1.56-1.01-3.36-.14-4.99-.63-4.37,1.14-8.3,3.83-13.04,3.64-1.58,1.18-3.62-.13-5.22,.96-10.89,1.56-21.76,2.92-32.23,6.83-9.9,3.7-20.47,5.4-30.4,9.21-10.02,3.84-20.55,6.35-30.1,11.42-1.92,1.02-2.97,.55-4.13-1.09-2.88-4.09-5.33-8.5-6.9-13.13-2.75-8.09-6.83-15.48-10.6-23.06-2.27-4.56-3.96-9.4-5.9-14.12-.9-2.18-.54-3.13,2.01-4.38,7.45-3.66,15.03-6.85,22.8-9.78,4.22-1.59,8.57-2.44,12.83-3.67,11.35-3.27,21.82-9.14,33.5-11.36,8.8-1.67,17.69-2.9,26.45-4.74,4.63-.97,9.05-2.93,13.88-3.05,2.04-1.06,4.38,.11,6.44-.85l4.57-.26c1.69-.77,3.61,.13,5.29-.73,.27,.15,.5,.1,.69-.15,2.53-1.24,5.42,.4,7.93-.98l1.1-.22c2.71-.74,5.57,.32,8.27-.66,3.46-.08,6.76-1.77,10.3-.99,1.79,.47,3.57,.84,5.32-.13l1.07-.14Z"/><path class="cls-22" d="M221.02,74.15c5.05,.15,10.16-.85,15.13,.78-5.04-.36-10.17,1.04-15.13-.78Z"/><path class="cls-22" d="M174.67,74.88c3.7-1.32,7.52-.8,11.31-.73-3.68,1.7-7.54,.54-11.31,.73Z"/><path class="cls-3" d="M254.99,77.07c3.33-.02,6.67-.04,10-.06-3.32,1.54-6.66,1.47-10,.06Z"/><path class="cls-16" d="M159.89,75.93c2.57-1.58,5.39-.74,8.11-.84-2.55,1.78-5.41,.55-8.11,.84Z"/><path class="cls-3" d="M236.99,75.03c2.78,.37,5.71-.79,8.36,.84-2.79-.22-5.74,1.04-8.36-.84Z"/><path class="cls-13" d="M159.33,15.16c-2.65,1.53-5.51,.43-8.27,.66,2.65-1.56,5.51-.51,8.27-.66Z"/><path class="cls-13" d="M149.96,16.03c-2.51,1.42-5.26,.84-7.93,.98,2.45-1.92,5.3-.57,7.93-.98Z"/><path class="cls-22" d="M207.63,73.88c2.54-.75,5.08-.77,7.63,0-2.54,0-5.08,0-7.63,0Z"/><path class="cls-14" d="M131.47,18.15c-2.06,.9-4.22,1.12-6.44,.85,1.95-1.77,4.28-.7,6.44-.85Z"/><path class="cls-22" d="M247.01,76.15c2.18-.09,4.41-.56,6.45,.72-2.16-.13-4.44,.84-6.45-.72Z"/><path class="cls-13" d="M174.94,14.03c-1.74,1.17-3.52,.89-5.32,.13,1.77-.04,3.54-.09,5.32-.13Z"/><path class="cls-13" d="M141.33,17.16c-1.64,1.16-3.48,.85-5.29,.73,1.6-1.44,3.5-.69,5.29-.73Z"/><path class="cls-3" d="M133.83,79.93c1.62-.99,3.43-.91,5.22-.96-1.49,1.7-3.45,.79-5.22,.96Z"/><path class="cls-16" d="M152.09,75.32c1.71-.21,3.42-.34,4.99,.63-1.68-.1-3.45,.54-4.99-.63Z"/><path class="cls-25" d="M202.97,12.89c-7.65,.02-15.3,.05-22.95,.07,7.64-1.61,15.29-1.39,22.95-.07Z"/><path class="cls-25" d="M240.98,13.01c-4.36-.61-8.84,.63-13.14-.89,4.37,.38,8.88-1.19,13.14,.89Z"/><path class="cls-25" d="M217.2,12.13c-4.3,1.76-8.79,.41-13.18,.81,4.29-1.93,8.79-.49,13.18-.81Z"/><path class="cls-25" d="M276.92,17.24c-2.91-1.44-6.24,.47-9.13-1.12,3.04,.4,6.34-1.28,9.13,1.12Z"/><path class="cls-25" d="M223.94,11.78c-1.97,.03-3.94,.06-5.91,.09,1.95-1.29,3.92-1.2,5.91-.09Z"/><path class="cls-30" d="M117.61,61.14c2.99,11.26,3.01,11.34-8.2,13.45-1.87,.35-4.64,2.19-5.82-.36-1.48-3.18-3-6.89-1.16-10.41,2.24-4.25-.29-13.51-3.91-16.42-3.24-2.61-2.58-7.19-2.82-10.99-.16-2.56,2.59-1.76,4.12-2.46,7.61-3.47,11.18,1.51,14.44,6.9,1.38-.55,1-1.49,.89-2.16q-1.22-7.35,5.9-8.74c.97-.19,1.9-.66,2.88-.77,2.35-.28,5.46-2.68,6.87-.32,1.59,2.66,3.1,7.75,1.76,9.34-4.56,5.4,.01,10.28-.46,15.29-.09,.91,.11,1.97,1.27,2.48,1.2,.53,3.24-1.05,3.64,1.38,.56,3.43,1.13,6.86,1.48,10.31,.12,1.2-1.19,1.35-2.14,1.66-7.23,2.38-8.53,1.98-13.36-4.01-1.22-1.51-2.56-2.91-3.85-4.36-.28-.18-.55-.42-.86-.49-.69-.16-1.08-.97-1.89-.86,.49,.45,.97,.92,1.24,1.54Z"/><path class="cls-30" d="M48.98,50.13c7.45,.13,11.96,4.72,11.81,12.35-.04,1.87-.1,2.87,2.06,3.62,5.22,1.79,8.06,5.83,7.77,10.7-.33,5.54-3.04,9.78-8.2,11.9-5.34,2.19-10.83,4.01-16.34,5.74-2.36,.74-5.8,2.36-7.01-.65-1.26-3.14-5.97-7.01-.08-10.51,.98-.58,.88-1.53,.48-2.62-1.31-3.57-2.44-7.21-3.7-10.8-.25-.7-.35-1.84-1.43-1.7-1.37,.19-2.9,1.63-3.87-.45-1.33-2.85-2.67-5.71-3.19-8.86-.21-1.28,.64-1.7,1.48-2.26,2.08-1.4,17.91-6.51,20.24-6.47Z"/><path class="cls-30" d="M160.67,44.23c4.38-3.09,9.82-1.36,13.98-4.38-1.99-1.84-4.53-3.16-2.92-6.55,1.18-2.48,3.02-3.27,5.52-3.28,3.38,0,5.22,2.04,6.09,4.92,1.14,3.8,.26,7.28-2.82,9.91-1.81,1.55-2.22,2.98-1.73,5.48,1.17,5.93-2.06,11.27-8.01,14.52-9.77,5.34-21.68,3.51-26.12-4.5-4.01-7.23-3.38-13.6,1.83-18.64,.99-.96,3-1.4,1.57-3.8-4.07-6.86,.2-13.23,8.9-13.45,2.99-.08,6.02-.11,8.97-.52,2.66-.37,3.73,.4,3.66,3.01-.04,1.33,.14,2.67,0,3.98-.16,1.43,1.57,3.49-1.06,4.15-2.32,.58-4.93,1.96-6.9-.6-1.25-1.62-2.68-3.18-4.27-1.18-1.41,1.77-.2,3.2,1.99,3.99,3.6,1.31,.83,4.13,1.31,6.92Z"/><path class="cls-30" d="M254.58,25.14c6.02,.15,11.39,1.4,16.51,3.25,9.4,3.41,11.97,14.69,5.23,21.73-1.72,1.79-.56,7.69,2.05,9.05,5.07,2.64,2.06,6.6,1.54,9.86-.53,3.34-3.45,1.18-5.32,1.32-5.91,.45-8.24-2.8-8.61-8.26-.13-1.96-.76-3.9-1.26-5.82-.28-1.07-.58-2.76-2.08-2.09-1.45,.65-1.26,2.34-.14,3.3,1.33,1.15,1.46,2.39,1.27,3.98-.85,7.14-.82,7.15-8.03,6.24-.49-.06-1.02-.04-1.48-.2-2.37-.78-6.47,.87-6.91-2.18-.5-3.48-1.14-7.53,2.62-10.79,2.4-2.08,1.73-6.24,1.83-9.43,.08-2.53,2.1-5.32-2.11-7.91-2.6-1.6,.19-7.09,.68-10.78,.34-2.61,3.16-.58,4.21-1.28Z"/><path class="cls-30" d="M299.16,66c-2.43,9.03-2.48,9.19-11.66,6.49-1.85-.54-5.82,.78-5.36-2.77,.43-3.33-1.11-7.84,3.53-9.74,1.2-.49,1.15-1.46,1.34-2.41,.65-3.25,1.34-6.48,1.93-9.74,.2-1.12,.59-3.06,.12-3.33-5.11-3.04-1.19-6.82-1.14-10.31,.06-4.07,1.82-4.5,5.33-3.64,6.1,1.5,12.22,2.63,17.78,5.95,6.71,4.01,8.22,15.83,1.33,20.81-2.45,1.77-1.27,7.52,1.79,9.64,4.36,3.02,.21,6.4,.22,9.55,0,2.47-2.84,1.47-4.49,1.12-8.29-1.71-8.28-1.74-9.13-12.58-.58-.49-.78-1.32-1.51-1.68,.29,.89,.37,1.78-.09,2.65Z"/><path class="cls-30" d="M233.5,65.79c-2.79-.19-8.24-.64-13.7-.88-3.14-.14-4.25-1.64-3.31-4.46,.98-2.92-1.29-7.3,3.78-8.48,.96-.22,.56-1.41,.62-2.19,.25-3.64,.52-7.28,.72-10.92,.04-.79,.07-2.19-.26-2.31-6.96-2.54-1.58-7.65-2.38-11.43-.4-1.88,1.21-2.02,2.63-1.94,7.13,.38,14.26,.78,21.4,1.14,2.32,.12,3.14,1.26,2.91,3.53-.17,1.64,.03,3.32,0,4.98-.06,5.84-2.31,7.55-8.02,6.23-1.09-.25-1.91-.53-1.83-1.82,.09-1.43-.48-2.24-1.99-2.14-1.58,.11-1.21,1.43-1.07,2.22,.23,1.24-1.14,3.18,1.31,3.61,1.63,.29,4.24-.42,3.52,2.6-.54,2.26,.86,5.81-3.22,6.23-2.51,.26-1.41,2.17-1.7,3.41-.23,.97-.18,2.14,1.12,2.35,1,.16,1.26-.74,1.52-1.57,1.66-5.32,5.57-1.99,8.28-1.75,3.01,.26,1.46,2.95,1.23,4.75-.04,.33-.06,.66-.1,.99q-.82,7.95-11.47,7.87Z"/><path class="cls-30" d="M91.12,64.03c1.61-.35,3.23-.68,4.84-1.05,1.04-.24,2.2-.31,2.54,.85,1.07,3.64,2.07,7.31,2.87,11.02,.48,2.23-1.6,2.16-2.92,2.53-7.15,2.02-14.33,3.95-21.48,6-1.05,.3-2.51,.56-2.55-.4-.14-3.82-4.6-7.25-.93-11.44,1.74-1.98-.04-4.12-.43-6.13-.48-2.43-1.32-4.79-1.96-7.19-.25-.95-.18-2.39-1.29-2.47-6.96-.48-4.18-6.64-5.9-10.11-.95-1.92,1.22-2.42,2.58-2.81,6.67-1.92,13.36-3.75,20.05-5.62,1.87-.52,3.2-.24,3.73,1.97,.49,2.08,1.34,4.08,1.86,6.16,.48,1.89,2.61,4.52-.57,5.42-2.35,.66-5.3,4.98-7.81-.07-.18-.36-1.24-.61-1.73-.44-1.19,.43-1.17,1.63-.76,2.5,.52,1.1,.33,3.56,1.64,3.15,7.85-2.42,4.88,4.11,6.15,7.11-.42,1.02-1,1.95-2.06,3.68,1.72-1.51,2.81-2.3,4.14-2.65Z"/><path class="cls-30" d="M370.72,52.78c4.12,1.55,9.11,3.38,14.05,5.31,1.22,.47,1.78,1.63,1.35,2.87-1.09,3.1-2.23,6.19-3.53,9.2-.59,1.36-2.14,1.17-3.05,.62-1.83-1.11-4.92-.54-5.24-3.76-.17-1.71-.51-3.41-2.64-3.61-.5-.05-1.33,.47-1.56,.95-.89,1.83,.37,3.16,1.37,4.45,4.11,5.3,8.25,10.47,5.54,17.97-3.5,9.68-12.82,12.19-19.7,4.68-2.43-2.65-4.82-.51-7.25-1.51-4.21-1.74-4.48-3.85-2.73-7.19,.85-1.61,1.58-3.23,2.23-4.94,.79-2.05,.35-6.11,3.73-5.24,2.98,.76,8.5,.4,6.91,6.66-.34,1.35,.56,2.52,2.08,2.89,1.01,.25,2.07,.27,2.8-.52,1-1.09,1.03-2.33,.2-3.63-1.96-3.06-4.19-5.99-5.73-9.25-3.62-7.68,1.8-15.96,11.18-15.95Z"/><path class="cls-30" d="M201.25,49.6c.25-3.87,.7-7.74,.68-11.61-.02-3.18-2.45-3.12-4.7-2.52-4.94,1.31-5.94-1.8-5.79-5.44,.14-3.2-1.35-7.76,4.96-7.3,5.46,.39,10.98,.17,16.47,.04,2.37-.06,3.55,.75,3.1,3.12-.6,3.19,2.09,7.36-2.84,9.4-.51,.21-.2,2.48-.21,3.8-.03,6.09,1.33,12.15-.77,18.25-1.83,5.33-6.02,6.79-10.68,7.42-5.28,.72-10.49,.07-13.61-4.98-2.68-4.34-2.94-9.23-.7-13.81,1.53-3.12,4.82-4.1,8.11-3.57,3.98,.63,5.17,3.64,5.98,7.2Z"/><path class="cls-15" d="M337.01,44.15c2.09-1.35,12.93,.11,14.22,1.92,1.27,1.77-2.51,11.59-4.74,11.86-5.84,.71-8.84,5.35-12.39,9.03-.97,1-2.2,3.15-.02,5.63,2.51,2.85-.21,6.26-1.65,9.1-1.4,2.76-3.73,1.02-5.69,.57-1.62-.36-3.3-.63-4.8-1.3-2.08-.92-5.96-.41-5.57-3.63,.37-3.1-.36-7.31,4.61-8.68,2.08-.57,2.29-3.93,2.71-5.93,.88-4.29-.02-9.17-2.7-12.23-3.91-4.47-.35-7.85,.65-11.19,.91-3.06,4.45-1.08,6.44-.09,2.65,1.33,6.56,.09,8.04,3.8,.92,3.98-1.76,7.12-2.71,11.71,1.59-4.1,2.27-7.46,3.61-10.58Z"/><path class="cls-17" d="M356.16,56.06c-.82,.1-1.76,.22-2.22-.56-.54-.92,.21-1.53,.95-1.93,1.86-1.01,2.57-1.95,.34-3.46-2.39-1.62-2.14-3.91-.88-6.07,1.29-2.22,3.47-3.02,5.91-2.46,2.53,.58,3.9,2.61,4.25,4.98,.57,3.87-4.39,9.33-8.35,9.5Z"/><path class="cls-7" d="M337.01,44.15c-.05,4.49-2.24,11.43-4.56,13.36-2.51-6,4.37-9.39,3.67-14.49l.89,1.13Z"/><path class="cls-9" d="M91.12,64.03c-.62,.85-2.09,.97-1.9,2.54,.15,1.22,.55,2.83-1.2,3.24-1.3,.3-1.51-1.18-1.68-1.94-.31-1.38-1.56-3.21,.97-4,.61-.19,1.16-.57,1.73-.87l2.08,1.03Z"/><path class="cls-21" d="M299.16,66c-.11-.47-.08-1.06-.35-1.39-.86-1.05-2.52-1.74-1.29-3.56,.36-.54,.63-1.26,1.38-1.05,1.91,.52,1.06,2.44,1.7,3.63,.21,.38,.11,.94,.15,1.41l-1.6,.97Z"/><path class="cls-20" d="M117.61,61.14c-1.02-.15-2.46,.52-2.79-1.08-.2-.99-1.48-2.11-.2-3.05,1.62-1.19,1.68,.77,2.34,1.42,.78,.78,1.45,1.67,2.16,2.52l-1.51,.19Z"/><path class="cls-6" d="M368.89,101.11c-2.21-1.59-.35-2.59,.72-3.13,1.69-.86,3.19-.47,3.43,1.83-.08,.16-.15,.31-.23,.47-.29,.2-.6,.35-.93,.45-.33,.11-.66,.21-.99,.31-.33,.13-.66,.22-1,.29-.35,.03-.69-.05-1-.22Z"/><path class="cls-24" d="M373.04,99.81c2.23,.11,2.46,1.33,1.43,2.91-1.04,1.59-2.34,2.47-3.68,.17l.13-.47c.14-.3,.33-.56,.54-.81,.18-.27,.39-.52,.62-.75,.24-.21,.48-.43,.72-.65l.23-.41Z"/><path class="cls-18" d="M368.89,101.11l1-.1c.12,.12,.24,.24,.37,.36,.02,.17,.03,.34,.05,.51-.09,.15-.17,.29-.26,.44-.38-.4-.77-.8-1.15-1.2Z"/><path d="M370.79,102.89c-.34-.08-.59-.28-.75-.58,.15-.18,.14-.34-.05-.49,.19-.09,.38-.18,.56-.27,.19,.09,.38,.18,.57,.27,.2,.4,.17,.79-.06,1.17l-.28-.11Z"/><path class="cls-19" d="M120.07,46.64c-1.82-1.94-2.91-3.1-4.21-4.49q3.23,.32,4.21,4.49Z"/><path class="cls-10" d="M56.12,77.36c-.26,2.21-1.98,3.3-3.69,3.23-2.26-.09-2.03-2.67-2.23-4.11-.32-2.29,1.97-1.58,3.2-1.69,1.66-.15,2.81,.67,2.72,2.57Z"/><path class="cls-31" d="M47.81,61.89c1.48,.03,2.84,.11,2.74,2-.11,2.04-1.66,2.79-3.29,2.95-2.08,.2-2.01-1.79-2.24-3.05-.45-2.57,1.7-1.61,2.79-1.89Z"/><path class="cls-26" d="M159.07,44.81c-.96,2.5-2.04,4.42-1.24,6.66,.49,1.38,1.42,2.25,2.85,2.39,1.57,.15,1.04-1.2,1.36-2.02,.81-2.11,2.67-2.63,4.39-1.69,1.57,.85,1.02,2.74,.22,3.92-1.53,2.25-3.82,2.95-6.5,2.29-2.97-.73-5.12-2.26-5.41-5.55-.24-2.79,.2-5.21,4.34-6Z"/><path class="cls-12" d="M263.91,41.97c.2-1.37-.29-3.28,2.12-3.02,1.74,.19,3.29,.82,3.21,2.98-.08,2.06-1.56,2.77-3.32,2.96-2.39,.26-2.14-1.39-2.01-2.92Z"/><path class="cls-10" d="M306.19,48.35c-.1,2.04-1.66,2.53-3.34,2.71-1.11,.12-2.82,.12-2.39-1.48,.4-1.51-.48-4.22,2.17-4.29,1.54-.04,3.11,1.04,3.57,3.06Z"/><path class="cls-18" d="M370.86,99.96h1.18c.21,.23,.29,.47,.24,.72-.05,.25-.11,.38-.17,.38-.38,.22-.77,.21-1.15,0-.21-.23-.3-.47-.26-.72,.04-.26,.1-.38,.16-.38Z"/><path class="cls-5" d="M372.04,100.97c0-.34,0-.67,0-1.01,.26,.06,.52,.15,.77,.26,.11,.18,.12,.36,.04,.55-.18,.43-.45,.48-.8,.2Z"/><path class="cls-2" d="M370.86,99.96c.05,.32,.12,.65,.19,.96-.18,.16-.35,.31-.53,.47-.18-.15-.36-.3-.54-.45l-.1,.07,.98-1.05Z"/><path class="cls-4" d="M372.04,100.97c.26-.11,.52-.18,.8-.2-.28,.39-.56,.78-.84,1.16-.36,.34-.74,.4-1.17,.13l.1-.08c-.24-.21-.33-.43-.27-.66,.06-.24,.12-.36,.19-.36l.2-.04c.33-.02,.66,0,.99,.04Z"/><path class="cls-1" d="M370.83,102.06c.39-.04,.78-.09,1.17-.13-.31,.36-.62,.71-.94,1.07-.09-.31-.17-.62-.23-.94Z"/><path class="cls-28" d="M370.86,100.97c.03,.34,.05,.68,.08,1.02-.32,0-.64-.04-.94-.16-.06-.29-.07-.59-.01-.89,.29,.01,.58,.02,.87,.02Z"/></svg>