<svg id="riseLogo" xmlns="http://www.w3.org/2000/svg" xmlns:xlink="http://www.w3.org/1999/xlink" width="103.5" height="79" viewBox="0 0 103.5 79">
  <defs>
    <linearGradient id="linear-gradient" x1="14.33" y1="72.67" x2="58.96" y2="117.29" gradientUnits="userSpaceOnUse">
      <stop offset="0"/>
      <stop offset="1"/>
    </linearGradient>
    <linearGradient id="linear-gradient-2" x1="24.13" y1="21.88" x2="59.38" y2="57.13" xlink:href="#linear-gradient"/>
    <linearGradient id="linear-gradient-3" x1="58.5" y1="74" x2="97.5" y2="113" xlink:href="#linear-gradient"/>
    <linearGradient id="linear-gradient-4" x1="65.75" y1="18.75" x2="107.25" y2="60.25" xlink:href="#linear-gradient"/>
  </defs>
  <title>RISElogo</title>
  <g>
    <g>
      <path d="M45.73,101a3.82,3.82,0,0,1,.88-3.47l2.15-2.36a5.67,5.67,0,0,0,1.47-3.85l-.17-21.44a7.65,7.65,0,0,0-7.66-7.6H24.75v62.5h8V99.5H38l6,25.25h7.5ZM42.25,89.05A4.45,4.45,0,0,1,37.8,93.5H32.5v-24h5.3A4.45,4.45,0,0,1,42.25,74Z" transform="translate(-16.5 -54)" fill="url(#linear-gradient)"/>
      <rect x="37.75" y="8.25" width="8" height="62.5" fill="url(#linear-gradient-2)"/>
      <path d="M82.25,74.5h8V69.92a7.66,7.66,0,0,0-7.67-7.67H73.42a7.66,7.66,0,0,0-7.67,7.67V88.75a4.69,4.69,0,0,0,2.39,4.1l12,6.8a4.69,4.69,0,0,1,2.39,4.1v11.79a2.71,2.71,0,0,1-2.71,2.71H76.71A2.71,2.71,0,0,1,74,115.54v-3.29H65.75v4.83a7.66,7.66,0,0,0,7.67,7.67h9.16a7.66,7.66,0,0,0,7.67-7.67V99.18A4.71,4.71,0,0,0,88,95.13L75.8,87.87a4.71,4.71,0,0,1-2.3-4.05V72.21a2.71,2.71,0,0,1,2.71-2.71h3.21a2.71,2.71,0,0,1,2.71,2.58Z" transform="translate(-16.5 -54)" fill="url(#linear-gradient-3)"/>
      <polygon points="76.25 8.25 76.25 70.75 96.75 70.75 96.75 64 84.5 64 84.5 42 96.75 42 96.75 35.25 84.25 35.25 84.25 15.5 96.75 15.5 96.75 8.25 76.25 8.25" fill="url(#linear-gradient-4)"/>
    </g>
    <rect x="1" y="1" width="101.5" height="77" fill="none" stroke="#000" stroke-miterlimit="10" stroke-width="2"/>
  </g>
</svg>
