<svg xmlns="http://www.w3.org/2000/svg" viewBox="0 0 663.65 643.1"><defs><style>.cls-1,.cls-3,.cls-4{fill:#fff;}.cls-2{fill:#db357a;}.cls-3{font-size:90px;}.cls-3,.cls-4{font-family:BlairMdITCTTMedium, BlairMdITC TT;}.cls-4{font-size:30px;}</style></defs><title>GremTech2</title><g id="Layer_1_copy" data-name="Layer 1 copy"><path class="cls-1" d="M628.51,948.55c3-5.58,5.36-10.31,8-14.93a97.17,97.17,0,0,0,12.82-52.09c-.18-4.75-1.35-9.12-5.17-12.17-5.14-4.1-10.49-7.92-15.72-11.83-4.54,3.53-9.1,7.35-14,10.75-3.21,2.25-5.67,5-6,8.76a143.76,143.76,0,0,0-.28,15.12C608.32,913,618.57,930.13,628.51,948.55Z" transform="translate(-307.17 -471.22)"/><path class="cls-1" d="M659.34,815.91a17.2,17.2,0,0,0,0,1.9c.12,1.13.27,2.27.47,3.39.55,3.27,2.11,3.94,5,2.14,1.93-1.21,3.72-2.7,5.74-3.7,7.25-3.61,14.59-7,21.87-10.58,3.92-1.92,7.35-4.11,8.54-9,2.66-10.74-12.06-19.61-20.11-16.65C668.65,787.93,659.33,801.24,659.34,815.91Z" transform="translate(-307.17 -471.22)"/><path class="cls-1" d="M598.19,816.09c-.38-12.07-5.48-21.42-14.67-28.66-7.74-6.1-15.44-6-22.81.09-7.2,6-6.54,15.53,1.45,20.26,1.85,1.08,3.91,1.78,5.84,2.74,6.91,3.43,13.78,6.93,20.71,10.32,2.36,1.15,4.85,2,7.28,3Q597.1,820,598.19,816.09Z" transform="translate(-307.17 -471.22)"/><path class="cls-1" d="M668.85,923.43c8.48-22.18,12-44.86,8.61-69.59-7.61,9.37-15.27,16.67-27.14,18.22A154.5,154.5,0,0,1,668.85,923.43Z" transform="translate(-307.17 -471.22)"/><path class="cls-1" d="M606.77,872c-12.14-1.38-19.69-8.9-27.34-18.18a139.46,139.46,0,0,0,8.71,69.57C591.42,905.2,597.23,888.08,606.77,872Z" transform="translate(-307.17 -471.22)"/><path class="cls-1" d="M605.51,881.69a134.56,134.56,0,0,0-15.07,45.68,4.55,4.55,0,0,0,1.67,3.47c5.95,4.5,11.81,9.2,18.17,13.06,4.61,2.8,10,4.42,15,6.56l.59-1C613.43,928.59,602.94,907.17,605.51,881.69Z" transform="translate(-307.17 -471.22)"/><path class="cls-1" d="M652.93,882l-1.75.28c2.5,25.2-7.67,46.6-20.39,67.74,2.12-.48,3.5-.7,4.81-1.11,11.51-3.6,20.94-10.59,29.74-18.52.94-.85,1.3-3,1-4.4a128.56,128.56,0,0,0-3.65-16.67C659.78,900.08,656.23,891.07,652.93,882Z" transform="translate(-307.17 -471.22)"/><path class="cls-1" d="M570.9,838.24c-3.13,4.08-7,7.08-7.3,12-.54,10.85-1.17,21.73-.88,32.57.19,7.29,3.9,13.72,7.7,19.87a27.15,27.15,0,0,0-.21-5c-1.41-15.09,2.61-29.32,6.84-43.52.4-1.33.73-3.08.2-4.22C575.5,846.25,573.34,842.68,570.9,838.24Z" transform="translate(-307.17 -471.22)"/><path class="cls-1" d="M686.88,902.06c3.61-6.36,7.43-12.68,7.44-20a309.13,309.13,0,0,0-1.26-32.93c-.39-3.71-4-7.08-6.64-11.32-2.84,5.09-5.08,9-7.19,13a3.37,3.37,0,0,0,.21,2.15C684.34,868.89,689,884.9,686.88,902.06Z" transform="translate(-307.17 -471.22)"/><path class="cls-1" d="M802.38,885.48c-5.06-9.65-9.59-19.61-15.26-28.88-3.29-5.39-8.09-10-12.74-14.37-4-3.83-8.84-6.89-13.07-10.11,7.91-5.83,15.82-11.64,23.77-17.51-6.12-9.15-14.44-4.68-23.14-4.65a23.53,23.53,0,0,0,10.42-15.87c2.82-14.25,6-28.45,8.31-42.79a290.63,290.63,0,0,0,3.14-32.14c1.33-28-1.47-55.6-6.37-83.19-4-22.26-8.76-44.22-17.21-65.16-4.68-11.59-11-22.49-16.44-33.8-11.08-23.17-26.21-43.63-42.42-63.34-1-1.25-3.14-1.6-4.75-2.37-.29,1.61-1.07,3.3-.8,4.81a598.63,598.63,0,0,1,8.66,85c.64,19.12-.43,37.87-5.24,56.6-1.62-3.09-3.11-6.12-4.77-9.06s-4.2-2.46-6.72-1.75-2.39,2.64-1.81,4.86a68.58,68.58,0,0,1,1.1,7.49c6.24-2.42,13.41.1,15.22,7.93.8,3.45,2,6.8,2.92,10.23.51,1.95.78,4,1.11,6s.58,3.94.75,5.11c-4.27-5.74-8.65-11.88-13.35-17.78-1.15-1.44-3.35-2.06-5.52-3.33,0,5.57.07,10.09,0,14.6,0,2.44-.11,4.49,3.27,4.71,1.15.07,2.51,1.3,3.27,2.36a28.42,28.42,0,0,1,5.47,15.95c.15,5.22-2.56,8.08-7.76,8.3-2.37.1-4.75-.21-7.07-.33-1.05,3.43-1.74,6.81-3.13,9.87s-.07,4.11,2.45,5c6.06,2.14,11.31.64,15.67-3.78,3.23-3.27,6.1-6.89,9.13-10.36-.86,5.77,2,12.37-3.83,16.88-8.64,6.7-17.46,4.66-26.51.15q-4.32,10.14-8.39,19.73c6.51,6.31,13.41,4.83,20.32,2.43s11.49-7.9,16.56-13a98.73,98.73,0,0,1-3.7,13.5c-2.44,6.62-6.53,9.2-13.53,9.51-8.19.36-15-3.07-21.67-7.78-2.33,4.4-4.64,8.61-6.8,12.89-1.71,3.4-1.94,7.8-7.13,8.5-1.32.17-2.41,2.12-3.58,3.28-.71.69-1.37,1.42-2,2.08.25-4,1-7.8.64-11.5a72.41,72.41,0,0,0-16.52-39.34c-3.18-3.84-6.45-4-9.54,0-11.58,14.85-18.81,31.15-16,50.54-2-1.77-3.9-4.78-6.34-5.29-3.39-.73-4-2.85-5.1-5.19-2.56-5.34-5.22-10.63-7.48-15.21-5.65,2.33-10.6,5-15.89,6.4-6.34,1.68-12.73,1-17.6-4.19-2.69-2.85-5.7-14-5.44-18.38.36.43.7.81,1,1.21,5.29,6.81,11.77,11.82,20.44,13.57,4.68.94,9.12.58,13-2.45.72-.57,1.53-2,1.28-2.67-2.49-6.3-5.2-12.52-7.64-18.27-3.83,1.23-7,2.73-10.27,3.23-12.35,1.86-23.47-3.54-19.68-20.28,1.74,2.22,3.31,4.53,5.2,6.54a49,49,0,0,0,6.47,5.84c4.46,3.31,9.32,2.78,14.08.71a3.23,3.23,0,0,0,1.42-2.79c-1-3.86-2.42-7.61-3.73-11.58l-2.25.32c-9.91,1.43-13.93-2.81-11.85-12.52a17.25,17.25,0,0,1,.92-3.68c2-4.38,3-9.65,9-10.78.58-.11,1.24-1.48,1.3-2.3q.44-5.88.49-11.78a17.94,17.94,0,0,0-.8-3.82c-1.37.5-3.23.6-4,1.57-4,4.87-7.77,9.92-11.49,15a33.48,33.48,0,0,0-2.46,4.72l-1.4-.51c2.39-8.61,4.75-17.23,7.24-25.82a5.14,5.14,0,0,1,2-2.2c3.45-2.58,7.21-3.67,11.59-1.7.41-2.54.62-4.79,1.15-7s1.27-4.4-1.62-5.37-5.56-.95-7.19,2.24c-1.47,2.89-2.93,5.78-4.63,9.14-.45-2.61-.8-4.69-1.18-6.76-2.29-12.58-4.58-25.07-4.1-38,1-27.38,1.65-54.76,6.43-81.83,1-5.61,2-11.23,2.77-16.87.16-1.15-.69-2.45-1.08-3.67a15,15,0,0,0-3.61,1.29,15.54,15.54,0,0,0-2.89,3c-24.08,28.25-41.84,60.4-56.58,94.17C488.39,590,484,611.8,480,633.7c-6.18,33.64-9,67.29-5.69,101.39,2.05,21.36,5.39,42.47,11.63,63,.93,3.07,3.44,5.69,5.32,8.45a37,37,0,0,0,3.06,3.41c-7.94,0-16.25-4.53-22.33,4.69l23.94,17.63c-10.7,7.28-21.35,14.44-27.47,26.34-4.59,8.9-9.14,17.81-13.77,26.68-1.15,2.19-.73,3.65,1.2,5.19,5.94,4.74,12.7,4.52,19.59,3.47,10.71-1.63,20.56-5.31,29-12.34a51.81,51.81,0,0,1,6-3.77c-2.26,8.32-5,15.92-7.86,23.49-1,2.71.47,3.71,2.66,3.61a110.41,110.41,0,0,0,14-1.28c7.78-1.38,13.75-6.17,19.43-11.42,9.66,23.37,26.42,40.17,47.68,53.47a9.05,9.05,0,0,1-.07,1.38c-1.39,8.93,3,16.24,6.83,23.62.55,1,2.38,1.41,3.61,2.09a28.69,28.69,0,0,0,1.58-3.55c.44-1.44.61-2.95,1-5a10,10,0,0,1,1,1.56c4.1,14.71,14.26,24.82,25.89,33.73,1,.74,3.34,1,4.2.29,11.7-9,22.09-19.06,26.17-34a13,13,0,0,1,1.08-2,54.67,54.67,0,0,0,1,5.56,21.48,21.48,0,0,0,1.75,3.49,16.66,16.66,0,0,0,3.61-2.25,12.59,12.59,0,0,0,2-3.65c3.13-7.06,6.7-14,4.59-21.16,21.44-13.6,38.15-30.23,47.65-53.39,12.21,10.71,18.53,12.22,31.18,12.64,5.73.19,6.12-.75,4-6.15-2.63-6.84-5-13.78-7.52-20.68a19.13,19.13,0,0,1,6.7,3.47c8.45,7.06,18.34,10.66,29,12.3,6.76,1,13.41,1.22,19.26-3.34C802.8,889.21,803.58,887.76,802.38,885.48ZM515.4,587a14.28,14.28,0,0,1,12.16,13.41c.13,3.38.94,6.74,1.15,10.12s0,6.82,0,8.81c-2.82-5.36-6.12-11.68-9.49-18a10.59,10.59,0,0,0-1.95-2.3C512.38,594.05,512.38,594.06,515.4,587Zm-13.26,46.44c.6-1.34,2.54-3,3.77-3,2.76.18,6,.68,8.09,2.27a42.69,42.69,0,0,1,14.57,18.57c1.6,4.14,1,9.14,1.42,14.62-4.26-7.07-7.79-13.2-11.58-19.16-4.17-6.54-9.48-10.36-18.12-5.17C501,638.2,501.16,635.64,502.14,633.45Zm-9.36,66.6c0-4-.21-9.3.14-14.57a5.62,5.62,0,0,1,3-4c9.63-3.57,22.25-2.7,30.65,7.67,6.35,7.85,10.66,16.57,9.34,26.85s-13.22,14.91-21.55,8.73a16.88,16.88,0,0,1-7.09-12.52c-.18-2.24-.62-5.36,2.47-5.37,2.07,0,4.29,1.91,6.16,3.34.63.48.55,2.13.49,3.22-.26,4.63.63,6.05,4.54,6.93a7,7,0,0,0,8.27-4.39c3.49-10.12-7.45-26.06-18.11-26.58-4.6-.23-8,1.89-11.26,4.67Zm42.12,117.2c-.27.44-1.35.61-2,.54-7.1-.75-14.06-2.81-18.83-8-3.08-3.35-4.08-8.6-6-13l1.36-.7c9.09,5.79,17.35,13.47,30.34,12.48C537.89,811.94,536.48,814.65,534.9,817.25Zm23.16-60.33c-2.45,9.72-11.76,17.06-22.69,17.74A31.46,31.46,0,0,1,516.13,770,155.68,155.68,0,0,1,502,759.81a11.28,11.28,0,0,1-3.18-5.31c-1.05-3.4-1.59-7-2.46-11,5.64,4,10.23,8.09,15.57,10.71A101.86,101.86,0,0,0,533.14,762c11.54,2.72,19.22-.35,22.46-13.89C557.62,751,558.93,753.52,558.06,756.92ZM729.74,597.17c.38-2.56,3.16-4.95,5.25-7,1.66-1.62,3.94-2.58,6.23-4,.59,1.41.91,2.34,1.35,3.2,1.9,3.74,1.38,6.34-2.2,9.28-5.72,4.71-8.49,11.56-10.58,18.59-.43,1.44-.92,2.86-1.39,4.29l-.65-.19C728.34,613.27,728.54,605.14,729.74,597.17Zm6.19,42.39a49.52,49.52,0,0,1,7.7-7.28c6.15-4.38,10.67-2.44,12.14,4.85.21,1.08.46,2.16.83,3.91-1.67-.52-2.64-.76-3.57-1.11-4.46-1.68-8.44-.85-11.16,3-4.13,5.89-7.9,12-11.76,18.1-.87,1.36-1.5,2.88-2.3,4.42C725.22,655.05,729.34,646.87,735.93,639.56Zm-14.5,68a38,38,0,0,1,12.32-21.8c8.2-7.16,17.65-7.53,27.49-4.33a4.57,4.57,0,0,1,2.72,3.08c.28,5.52.13,11.05.13,15.69-1.61-1.43-4-3.48-6.28-5.59-8.3-7.61-17.69-7-24.64,2A26.26,26.26,0,0,0,727.58,714a6.77,6.77,0,0,0,6.95,6.57c4.33-.07,6.36-2.09,6.19-6.74-.14-3.66,1-6.26,4.7-7.15,2.12-.5,3.73.21,4.27,2.59,1.28,5.63-3.47,14.22-9.38,16.89a14.1,14.1,0,0,1-17.06-4.28C720,717.47,720.48,712.41,721.43,707.6Zm2.5,110.19a2.63,2.63,0,0,1-2.16-.94c-1.49-2.32-2.75-4.78-4.58-8.05,12.92.57,21.73-6.76,31.4-13.6C745.9,811.81,739,815.08,723.93,817.79Zm32.17-59.22c-7.84,7.09-16.12,13.91-27.19,15.81-12.45,2.13-25.4-4.54-29.32-15.21a10.56,10.56,0,0,1,1.63-10.93,5.21,5.21,0,0,1,.59,1.06c2.19,12,11.14,14.9,21.32,13a70.13,70.13,0,0,0,33.21-15.8l3.95-3.37C759.57,749.1,760,755.06,756.1,758.57Z" transform="translate(-307.17 -471.22)"/><path class="cls-1" d="M585.88,924.29A155.25,155.25,0,0,1,576.11,868C568.17,894.41,570.18,909.84,585.88,924.29Z" transform="translate(-307.17 -471.22)"/><path class="cls-1" d="M671.13,924.3c17.75-16.11,16.38-35.79,9.43-57.44A150.71,150.71,0,0,1,671.13,924.3Z" transform="translate(-307.17 -471.22)"/><path class="cls-1" d="M562.16,734.38c5.08,12.37,8.5,14.74,22.7,13.62,4-.32,8.07-1.9,11.87-3.47,2.9-1.19,3.53-3.65,1.35-6.51-5.58,3.28-11.32,5.58-17.75,3.27C574.08,739,567.9,736.57,562.16,734.38Z" transform="translate(-307.17 -471.22)"/><path class="cls-1" d="M658.75,738c-2.09,4.2.06,6.16,3,7.59,7.29,3.52,15,3,22.72,2.12a4.05,4.05,0,0,0,2.57-1.46c3-4.1,5.77-8.3,8.63-12.47C683.59,739.55,672.34,746.56,658.75,738Z" transform="translate(-307.17 -471.22)"/><path class="cls-1" d="M559.81,835l-1.58.2c-2.17,12.72-.05,25.31,1.51,37.92.8-8,1.81-16,2-24C561.78,844.44,560.49,839.73,559.81,835Z" transform="translate(-307.17 -471.22)"/><path class="cls-1" d="M697.05,873.68l.87.18c.55-11.3,1.16-22.6,1.59-33.9.06-1.62-.75-3.26-1.16-4.89-1.66,4.1-3.33,8-3.25,11.81C695.3,855.83,696.35,864.75,697.05,873.68Z" transform="translate(-307.17 -471.22)"/><path class="cls-1" d="M566.49,661.53c-.45-.75.21-3.09,1-3.54,2.74-1.5,2.15-3.66,1.72-5.85-.2-1-.87-2.79-1.14-2.76a6.31,6.31,0,0,0-3.6,1.38c-4,4.19-4.39,11.57-.56,16,1.29,1.49,3.85,1.89,5.83,2.78.35-1.66.7-3.31,1-5,0-.23-.08-.5,0-.29C568.91,663.19,567.18,662.67,566.49,661.53Z" transform="translate(-307.17 -471.22)"/><path class="cls-1" d="M693.6,666.1c2.82-4.66,3-9.39-.11-13.92-.88-1.29-2.55-2.1-4-2.93-.17-.1-1.55,1-1.57,1.64a22.57,22.57,0,0,0,.49,6c.41,1.64,2.13,3.2,2,4.66-.1,1-2.49,1.69-4.29,2.78,0,1.07-.14,2.82-.26,4.94C689.55,670.06,691.92,668.87,693.6,666.1Z" transform="translate(-307.17 -471.22)"/><path class="cls-1" d="M575.66,589.47l-6.44,8.95,4,1.82c1.14-3.65,2.15-6.85,3.15-10Z" transform="translate(-307.17 -471.22)"/><path class="cls-1" d="M681.24,589.57l-.7.48c1.07,3.32,2.13,6.63,3.26,10.16l4-1.78Z" transform="translate(-307.17 -471.22)"/><g id="teeth_n_eyes" data-name="teeth n eyes"><path class="cls-2" d="M628.51,948.55c-9.94-18.42-20.19-35.58-20.38-56.39a143.76,143.76,0,0,1,.28-15.12c.35-3.79,2.81-6.51,6-8.76,4.86-3.4,9.42-7.22,14-10.75,5.23,3.91,10.58,7.73,15.72,11.83,3.82,3,5,7.42,5.17,12.17a97.17,97.17,0,0,1-12.82,52.09C633.87,938.24,631.47,943,628.51,948.55Z" transform="translate(-307.17 -471.22)"/><path class="cls-2" d="M659.34,815.91c0-14.67,9.31-28,21.52-32.46,8-3,22.77,5.91,20.11,16.65-1.19,4.85-4.62,7-8.54,9-7.28,3.56-14.62,7-21.87,10.58-2,1-3.81,2.49-5.74,3.7-2.89,1.8-4.45,1.13-5-2.14-.2-1.12-.35-2.26-.47-3.39A17.2,17.2,0,0,1,659.34,815.91Z" transform="translate(-307.17 -471.22)"/><path class="cls-2" d="M598.19,816.09q-1.1,3.9-2.2,7.78c-2.43-1-4.92-1.88-7.28-3-6.93-3.39-13.8-6.89-20.71-10.32-1.93-1-4-1.66-5.84-2.74-8-4.73-8.65-14.31-1.45-20.26,7.37-6.09,15.07-6.19,22.81-.09C592.71,794.67,597.81,804,598.19,816.09Z" transform="translate(-307.17 -471.22)"/><path class="cls-2" d="M668.85,923.43a154.5,154.5,0,0,0-18.53-51.37c11.87-1.55,19.53-8.85,27.14-18.22C680.88,878.57,677.33,901.25,668.85,923.43Z" transform="translate(-307.17 -471.22)"/><path class="cls-2" d="M606.77,872c-9.54,16.12-15.35,33.24-18.63,51.39a139.46,139.46,0,0,1-8.71-69.57C587.08,863.06,594.63,870.58,606.77,872Z" transform="translate(-307.17 -471.22)"/><path class="cls-2" d="M605.51,881.69c-2.57,25.48,7.92,46.9,20.33,67.74l-.59,1c-5-2.14-10.36-3.76-15-6.56-6.36-3.86-12.22-8.56-18.17-13.06a4.55,4.55,0,0,1-1.67-3.47A134.56,134.56,0,0,1,605.51,881.69Z" transform="translate(-307.17 -471.22)"/><path class="cls-2" d="M652.93,882c3.3,9.1,6.85,18.11,9.81,27.32A128.56,128.56,0,0,1,666.39,926c.25,1.4-.11,3.55-1,4.4-8.8,7.93-18.23,14.92-29.74,18.52-1.31.41-2.69.63-4.81,1.11,12.72-21.14,22.89-42.54,20.39-67.74Z" transform="translate(-307.17 -471.22)"/><path class="cls-2" d="M570.9,838.24c2.44,4.44,4.6,8,6.35,11.77.53,1.14.2,2.89-.2,4.22-4.23,14.2-8.25,28.43-6.84,43.52a27.15,27.15,0,0,1,.21,5c-3.8-6.15-7.51-12.58-7.7-19.87-.29-10.84.34-21.72.88-32.57C563.85,845.32,567.77,842.32,570.9,838.24Z" transform="translate(-307.17 -471.22)"/><path class="cls-2" d="M686.88,902.06c2.12-17.16-2.54-33.17-7.44-49.15a3.37,3.37,0,0,1-.21-2.15c2.11-4,4.35-7.91,7.19-13,2.6,4.24,6.25,7.61,6.64,11.32A309.13,309.13,0,0,1,694.32,882C694.31,889.38,690.49,895.7,686.88,902.06Z" transform="translate(-307.17 -471.22)"/><path class="cls-2" d="M585.88,924.29c-15.7-14.45-17.71-29.88-9.77-56.34A155.25,155.25,0,0,0,585.88,924.29Z" transform="translate(-307.17 -471.22)"/><path class="cls-2" d="M671.13,924.3a150.71,150.71,0,0,0,9.43-57.44C687.51,888.51,688.88,908.19,671.13,924.3Z" transform="translate(-307.17 -471.22)"/><path class="cls-2" d="M559.81,835c.68,4.7,2,9.41,1.88,14.1-.14,8-1.15,16-2,24-1.56-12.61-3.68-25.2-1.51-37.92Z" transform="translate(-307.17 -471.22)"/><path class="cls-2" d="M697.05,873.68c-.7-8.93-1.75-17.85-1.95-26.8-.08-3.84,1.59-7.71,3.25-11.81.41,1.63,1.22,3.27,1.16,4.89-.43,11.3-1,22.6-1.59,33.9Z" transform="translate(-307.17 -471.22)"/></g></g><g id="Layer_3" data-name="Layer 3"><text class="cls-3" transform="translate(0 600.78)">GremTech</text><text class="cls-4" transform="translate(155.62 635.78)">by DuskJungala</text></g></svg>