<svg class="logo" xmlns="http://www.w3.org/2000/svg" viewBox="0 0 581.8 209.9"><style>.logo{fill:#d30e2c}.logo__tagline{display:none}@media (min-width:140px){.logo__tagline{display:block}}</style><path class="logo__brand" d="M576 63.2h.6c.5 0 1-.2 1-.7s-.3-.7-1-.7a2.6 2.6 0 0 0-.5 0zm0 2.4h-1v-4.4a9 9 0 0 1 1.8-.1 2.5 2.5 0 0 1 1.5.3 1.2 1.2 0 0 1 .4 1 1.1 1.1 0 0 1-.9 1 1.2 1.2 0 0 1 .8 1.1 3 3 0 0 0 .3 1h-1.1a3 3 0 0 1-.4-1c0-.4-.3-.6-.9-.6h-.5zm.8-5.8a3.5 3.5 0 0 0 0 7 3.4 3.4 0 0 0 3.4-3.5 3.4 3.4 0 0 0-3.4-3.5zm0-.9a4.4 4.4 0 1 1-4.5 4.4 4.5 4.5 0 0 1 4.5-4.4zm-14.2 18.8c-3-9.9-25.3-5.2-20.3 6.8 3.7 9 25.2 14.4 35.5 29.2 16 23.6-19.4 50-46.1 37.4-18.9-8.9-19-22.7-17.7-28.3 1.8-8.4 11.2-8.6 12.3-4.1 1.7 8.1-2 7.7-1.8 11 1.5 13.5 23.3 19.2 34.9 7.6 15.7-16 2-26.4-.9-28.4-7.4-5.3-17.6-6.7-24.1-15.5-14-19 7.7-35.6 23.6-30.9 7.2 2.2 13 7.5 11.6 14.4-1.1 5.7-5.7 5.2-7 .9m-175 11c-1-2.1-1.2-1.5-2.8-3.4-10.4-10.7-21-1.7-27.8 6.7-11.4 12.7-24.9 57.2-10.2 49.2 15.3-7.5 28-33.6 34.5-43.4 6.4-9.3 17.1-5 15.5 5.7-.7 4.2-3.5 19.2-1.7 28.8 1.8 9.8 12.5-4.7 15.8-8.6.1-2.5-4.2-20 6.8-40.4 16.2-29.9 48-20.5 39.9 5.6a40.9 40.9 0 0 1-25 27c-4.8 1.7-8-3.4-3-7.5 3.8-3 8.3-4.7 14.4-16 4.6-8.6-.6-15.6-9-9.6-12.2 8.8-18.1 48.6.5 60.3 17.7 9.2 31.5-9.2 44-32C473 85 474.4 38.6 492.8 15 512-10 539-.1 539.4 18.3c.8 30.7-29.2 76.2-32.4 83.5-2.1 4.8-9.2 2.8-5.8-4.4 23-41.3 24.3-72.7 23.5-79.7-1.5-13-12-10-22 1.1-23.4 32.8-13 81.6-5.5 109.5 2.6 9.9 6 17 5.8 20-.6 9.6-8.3 8.3-12.1 1-1.3-2.6-3.6-8-7.5-21.8-18.6 29.4-43.8 31.4-57.9 21.7a40.3 40.3 0 0 1-11.8-14c-19.4 18.5-35.7 6-36.2-13.1-2.3 2.7-12.8 18.9-27.8 27.7-12.3 7.2-23 3-24-8.8-1.2-21.9 20.2-52 27.6-60.1 8-8.8 16.4-14.7 26.8-14.4 10.9.4 15.8 14.4 14.2 20-1.3 5-5.6 4.4-6.7 2.2M183.2 45c7.3-.6 10.5 3 10.4 8.2-.2 5.2-5.9 11.2-9.4 12.5a8 8 0 0 1-9.8-3.2 12 12 0 0 1 8.8-17.5m-16.5 30.4a8.9 8.9 0 0 1 14.6 8.8c-.6 2.7-.2 1.5-3.9 11.7s-7.3 24.4-6.9 38c1.4 21.3 10.4 12.2 11.8 11.2s7.3-7.3 9.7-22.3c1.8-11.4 8.7-38.5 31.9-49.9 15.9-7.8 27.3.6 27.6 11 .3 10-10.7 7.9-13.6 4.5-2-2.3-4.3-6.6-9-4.6-8.8 3.6-20.6 22.5-20.2 43.6s19.7 17 31.2 8.3 19-28.7 19.7-33.5c1.6-28 20.5-87.7 29.5-97.3 9.7-10.5 18.6-.4 16.4 3.7-14 34.2-35.3 74.3-35.5 114.6 8.7-25.4 25.5-45.4 42.8-48 16-2.3 18.7 9 15 18.6s-10.9 20.8-9.2 43.8c.4 5.4 1.7 14.4-1.3 16.4-7.3 4.6-10.8-4.6-11-15.5-.2-10.5 6.7-34.2 7.7-38.1 4-16-10.8-10-15.1-5.4-16.7 17.2-23.5 46.3-25.3 52-2.2 6.7-10.8 3.6-12.5-4.2-.2-1-1.2-3.1-2.4-16-18.6 26.9-53.7 36.9-63.7 15-18 21.4-34.2 15.6-39.7-7.7-5.7-28 7.4-55.3 11.4-58.6m-24 61.2c2.5 9.8 4.1 15.3 1 17-5.7 3.3-13.2-11.4-14.9-23-5.8-40 5.9-74.6 9.4-89 6.8-28-9-41.2-28.2-1-14.3 30.2-14.7 49-21.3 78.1-5 21.7-21 20.5-23.5 5.1-4.6-30.2-1-107.8-16.8-107.8-15 .1-18.2 78.2-17 121.8.5 14.5-4.6 15.9-8 16-11 .5-8.8-63.9-19.4-80-.8-1.2-1.5-3-2.1-4-5.7-8 2.8-8.5 8.2-2.5 10.9 12 9.4 35.7 9.4 47.3C19.3 58 21.3-1.6 52.2.7c8.5.7 17.1 3 21.6 42.8 3 27 2.5 64 3.4 70.5C79.2 100 94.4-.4 135.6 1.2c16.7.6 19 16.4 19 24 0 16.5-7.7 31.4-11.2 58.4-2 15-4 40.6-.8 53"/><path class="logo__tagline" d="M551 186v.6h1.1v3h.7v-3h1.1v-.6zm6.7 0l-1.1 1.7-1.1-1.7h-.8v3.6h.7v-2.5l1.1 1.7 1.2-1.8v2.6h.7V186zm-14.4 16.4L530.9 186h-3.7v23.7h4V193l12.7 16.8h3.4V186h-4zm-23-16.4h-17v23.7h17.2V206h-13.2v-6.4H519V196h-11.5v-6.2h13zm-26.4 8c0 2.6-2 4.3-5 4.3h-4.7v-8.5h4.7c3 0 5 1.4 5 4.3m4.1-.1c0-4.9-3.4-8-8.8-8h-9v23.7h4V202h4.6c5 0 9.2-2.8 9.2-8.2m-27.9.1c0 2.6-2 4.3-5 4.3h-4.7v-8.5h4.7c3 0 5 1.4 5 4.2m4.1 0c0-5-3.4-8-8.7-8h-9.1v23.7h4V202h4.6c5 0 9.2-2.7 9.2-8.1m-30.4 6.4h-8l4-9.5zm-2-14.4H438L428 209.7h4.1l2.4-5.7h11l2.2 5.8h4.3zm-21.1 13.9v10h4V186h-4v9.9h-11V186h-4v23.7h4v-10zm-42 .5L388 186h-4.6l-6.5 10.5-6.5-10.5h-4.8l9.2 14.4v9.3h4zm-24.2-10.4h7.3V186H343v3.9h7.3v19.8h4zm-22.4 19.8h4V186h-4zm-18-5.5l-6.9-18.2h-4.5l9.6 23.9h3.6l9.5-23.9h-4.3zm-21.4 5.5h4V186h-4zM278.4 190h7.3V186H267v3.9h7.3v19.8h4.1zm-18.3 10.4h-8l4-9.5zm-2-14.4h-3.8l-10.1 23.8h4.1l2.4-5.7h10.9l2.3 5.7h4.3zm-18.6.1h-17v23.7h17.2V206h-13.2v-6.4H238V196h-11.5v-6.2h13zm-27.3 7.8c0 2.4-1.8 4-4.7 4h-6v-8h6c3 0 4.7 1.3 4.7 4m4.8 16l-6.2-9a7 7 0 0 0 5.5-7.2c0-4.7-3.2-7.6-8.5-7.6h-10.3v23.8h4v-8.3h5l5.7 8.3zm-24.8-4l-2.5-2.7c-2 1.9-3.7 3-6.5 3-4.3 0-7.5-3.7-7.5-8.3s3.2-8.2 7.5-8.2a8.9 8.9 0 0 1 6.3 2.9l2.6-3a11.6 11.6 0 0 0-8.9-3.7c-6.8 0-11.6 5.5-11.6 12.1s4.9 12 11.5 12a11.5 11.5 0 0 0 9.1-4.1m-62.2 4h20.9v-6.6h-13v-2.5h11.9v-5.8h-11.9v-2.4h12.8v-6.6h-20.8zm-27.3 0h8v-5l2.2-2.6 4.7 7.6h9.7l-8.6-13.5 8.5-10.4h-9.5l-7 9v-9h-8zm-19.5-8.9l2.2-5.8 2.2 5.8zm-12 8.9h8.7l1.2-3.2h8.5l1.3 3.2h8.9l-10.3-24h-8zm-30.3 0h8V198l5.6 8.5h.1l5.6-8.5v11.8h8V186h-8.4l-5.2 8.4-5.2-8.4h-8.5z"/></svg>
