<svg id="Layer_1" data-name="Layer 1" xmlns="http://www.w3.org/2000/svg" width="1075.44" height="68.5" viewBox="0 0 1075.44 68.5">
  <title>sales</title>
  <rect width="1075.44" height="68.5" fill="#d81313"/>
  <g>
    <text transform="translate(136.71 47.18)" font-size="40" fill="#fff" font-family="NewsGothicMT, News Gothic MT">40%</text>
    <text transform="translate(231.51 33.3)" font-size="19" fill="#fff" font-family="NewsGothicMT-Bold, News Gothic MT" font-weight="700">ALL <tspan x="40.58" y="0" letter-spacing="-0.02em">R</tspan><tspan x="53.47" y="0" letter-spacing="0.01em">e</tspan><tspan x="64.54" y="0">gular Price Items in </tspan><tspan x="253.41" y="0" letter-spacing="-0.09em">Y</tspan><tspan x="263.58" y="0">our Online or Buy Online Pi</tspan><tspan x="517.2" y="0" letter-spacing="-0.01em">c</tspan><tspan x="527.1" y="0" letter-spacing="0em">k Up In Sto</tspan><tspan x="630.05" y="0" letter-spacing="-0.02em">r</tspan><tspan x="637.84" y="0" letter-spacing="0em">e O</tspan><tspan x="668.91" y="0" letter-spacing="-0.03em">r</tspan><tspan x="676.53" y="0">der</tspan><tspan font-size="13" font-family="NewsGothicMT, News Gothic MT" font-weight="400"><tspan x="0" y="15.6" letter-spacing="-0.04em">V</tspan><tspan x="7.59" y="15.6">ALID ONLINE ON</tspan><tspan x="113.46" y="15.6" letter-spacing="-0.11em">L</tspan><tspan x="119.53" y="15.6">Y TH</tspan><tspan x="149.06" y="15.6" letter-spacing="-0.04em">R</tspan><tspan x="157.4" y="15.6">U S</tspan><tspan x="179.49" y="15.6" letter-spacing="-0.09em">A</tspan><tspan x="186.57" y="15.6">T 8/3/19 • P</tspan><tspan x="266.46" y="15.6" letter-spacing="-0.03em">R</tspan><tspan x="274.87" y="15.6" letter-spacing="0em">OMO CODE: 40SUMME</tspan><tspan x="418.79" y="15.6" letter-spacing="-0.01em">R</tspan><tspan x="427.46" y="15.6">W • Online O</tspan><tspan x="504.51" y="15.6" letter-spacing="-0.02em">r</tspan><tspan x="509.52" y="15.6">ders $49+ Ship f</tspan><tspan x="613.67" y="15.6" letter-spacing="-0.02em">r</tspan><tspan x="618.69" y="15.6">ee </tspan></tspan></text>
  </g>
</svg>
