<svg id="footericon" xmlns="http://www.w3.org/2000/svg" width="35.77" height="35.77" viewBox="0 0 35.77 35.77">
  <title>footerIcon</title>
  <g id="planet">
    <path d="M630.67,904.49c-4.5,5.8-6.74,10.57-5.28,12s6.23-.77,12-5.28a88.38,88.38,0,0,0,8.24-7.33,89.81,89.81,0,0,0,7.33-8.23c4.51-5.8,6.74-10.58,5.28-12s-6.23.78-12,5.28" transform="translate(-623.95 -882.2)" fill="none" stroke="#fff" stroke-width="2"/>
    <path d="M637.42,888.92c-5.8-4.5-10.57-6.74-12-5.28s.77,6.24,5.28,12a89.81,89.81,0,0,0,7.33,8.23,88.38,88.38,0,0,0,8.24,7.33c5.8,4.51,10.57,6.74,12,5.28s-.78-6.23-5.28-12" transform="translate(-623.95 -882.2)" fill="none" stroke="#fff" stroke-width="2"/>
    <circle cx="17.89" cy="17.89" r="12" fill="none" stroke="#fff" stroke-width="3"/>
  </g>
</svg>
