<?xml version="1.0" encoding="utf-8"?>
<!-- Generator: Adobe Illustrator 22.1.0, SVG Export Plug-In . SVG Version: 6.00 Build 0)  -->
<svg version="1.1" id="Layer_1" xmlns="http://www.w3.org/2000/svg" xmlns:xlink="http://www.w3.org/1999/xlink" x="0px" y="0px"
	 viewBox="0 0 184.7 171.3" style="enable-background:new 0 0 184.7 171.3;" xml:space="preserve">
<style type="text/css">
	.st0{fill:#E09F26;}
	.st1{fill:#F6BA2E;}
	.st2{fill:#EF9E29;}
	.st3{fill:#EAA322;}
	.st4{fill:#F9F9FA;}
	.st5{fill:none;}
</style>
<g>
	<polygon class="st0" points="79.3,7.8 51.3,39.7 14,39.7 52.2,7.8 	"/>
	<polygon class="st1" points="79.4,13.8 97.7,39.7 56.6,39.7 	"/>
	<polygon class="st2" points="142.8,11.3 125.2,39.7 102.6,39.7 82.1,10.7 84.7,7.8 138.7,7.8 	"/>
	<polygon class="st1" points="177,39.7 129.9,39.7 145.9,13.8 	"/>
	<polygon class="st2" points="83.2,107.6 65.8,135.8 12.2,83.1 36.3,83.1 	"/>
	<polygon class="st0" points="127,130.5 93.7,163.3 68.7,138.7 68.7,138.7 86.8,109.5 	"/>
	<polygon class="st1" points="98.4,83.1 85.4,104.2 45,83.1 	"/>
	<polygon class="st1" points="128.3,83.1 147.6,110.3 130,127.6 88.9,106.1 103.1,83.1 	"/>
	<polygon class="st3" points="175.2,83.1 150.5,107.4 133.2,83.1 	"/>
	<g>
		<path class="st4" d="M127.7,74h-26.8V47.2h26.8V74z M105.9,69h16.8V52.2h-16.8V69z"/>
	</g>
	<g>
		<path class="st4" d="M77.4,75C69.4,75,63,68.6,63,60.6s6.5-14.4,14.4-14.4s14.4,6.5,14.4,14.4S85.3,75,77.4,75z M77.4,51.2
			c-5.2,0-9.4,4.2-9.4,9.4s4.2,9.4,9.4,9.4s9.4-4.2,9.4-9.4S82.6,51.2,77.4,51.2z"/>
	</g>
	<g>
		<path class="st4" d="M55.1,73.3H25.8l14.7-25.4L55.1,73.3z M34.5,68.3h12l-6-10.4L34.5,68.3z"/>
	</g>
	<polygon class="st4" points="162.9,52.4 159.4,48.9 151.2,57.1 143,48.9 139.5,52.4 147.7,60.6 139.5,68.8 143,72.3 151.2,64.1 
		159.4,72.3 162.9,68.8 154.7,60.6 	"/>
	<g>
		<line class="st5" x1="130" y1="127.6" x2="127" y2="130.5"/>
	</g>
</g>
</svg>
