<svg xmlns="http://www.w3.org/2000/svg" width="150" height="150" viewBox="0 0 150 150">
  <title>largeIcon</title>
  <g style="isolation: isolate">
    <g id="icon">
      <g id="largeIcon">
        <circle cx="75" cy="75" r="75" fill="#006e81"/>
        <g>
          <g>
            <g>
              <path d="M381.72,383.76c-6.36-5.06-12.29-9.79-19.2-13.07-.67-.32-1.81.2-2.68.49-1.88.62-3.7,1.77-5.6,1.93-5.24.43-8.89-2.47-9.17-6.83-.39-6,3.51-11.23,8.74-11.76.9-.09,1.82,0,3-.06-.28-1.17-.56-2.28-.8-3.4-1-4.81.57-7.88,4.82-9.37a8.35,8.35,0,0,1,10.41,4.23,10.64,10.64,0,0,1,.45,8.77c-.6,1.55-.25,2.26.94,3.18,8.53,6.6,17,13.28,25.53,19.86l16.26,12.61c5.84,4.11,25.37,17.61,30.78,21.26.53.36,4.17,2.79,4.91,2.41,1.2-.61,2.17-1.7,3.39-2.27a8.53,8.53,0,0,1,11.72,4.75,8.68,8.68,0,0,1-6,11.4c-4.77,1.18-5,.36-5.37,6.45-.22,3.41-.65,7-4.32,8.56s-7.19.36-10.32-1.79c-5.47-3.76-6.16-8.14-2.11-14.25-7-5.63-30.73-23.67-37.65-29.47Z" transform="translate(-330.02 -317.45)" fill="#d5ccba"/>
              <g opacity="0.05" style="mix-blend-mode: multiply">
                <path d="M361.94,370.59a1.2,1.2,0,0,1,.58.1h0l1.14.56.33.17.87.46.29.15,1.08.61.29.17.81.47.38.23.82.51.35.22.89.58.46.31.59.39.48.33.7.49.78.55.4.29.63.46a2.83,2.83,0,0,0,.28.2c.77.57,1.54,1.16,2.31,1.75h0c.49.26,1,.52,1.51.75a1.74,1.74,0,0,0,2.34-.61,1.71,1.71,0,0,0-.62-2.34c-1.38-.65-2.71-1.38-4-2.15a12.28,12.28,0,0,0,4.39-3c1.22-1.27,2.43-2.55,3.59-3.88l.59.28a1.8,1.8,0,0,0,2-.18q-6.78-5.29-13.59-10.58c-1.19-.92-1.54-1.63-.94-3.18a10.71,10.71,0,0,0,.7-4.75c0-.16,0-.33-.06-.49v0c0-.16,0-.31-.07-.47v-.06l-.09-.43,0-.11c0-.13-.06-.26-.1-.39s0-.11-.05-.16-.07-.23-.11-.35a1.18,1.18,0,0,0-.07-.2,2.83,2.83,0,0,0-.11-.31c0-.09-.07-.19-.11-.28a2.29,2.29,0,0,0-.1-.23q-.1-.26-.24-.51h0c-.09-.18-.19-.36-.29-.53a.41.41,0,0,0-.05-.09c-.1-.17-.21-.34-.32-.5l0,0a9.52,9.52,0,0,0-.79-1h0a8.3,8.3,0,0,1,.7,2.18c.44,2.63-2.57,10.71-3.22,12.28a1.29,1.29,0,0,0,1.25,1.71,10.69,10.69,0,0,1,6.26,2.57,58.26,58.26,0,0,0,5.83,4.14c-.81.89-1.64,1.77-2.47,2.65a11.29,11.29,0,0,1-3.19,2.56,7.61,7.61,0,0,1-3.61.71c-1-.59-1.94-1.17-2.93-1.73a19.91,19.91,0,0,0-6-2.42c-2.29-.41-4.27.41-6.32,1.34-2.53,1.15-5.22,1.59-7.82.4a5.88,5.88,0,0,1-3-2.79h0c0,.1,0,.2.07.31v0l.08.29,0,.06.09.27,0,.07c0,.09.07.17.1.26l0,.07.12.25,0,.06.13.25,0,.05.15.26h0a6.33,6.33,0,0,0,.8,1.05l0,0,.19.19.06.06.18.17.08.08.18.14.1.08.18.14.11.08.18.12.12.08.19.12.13.07.19.1.14.08.19.09.15.07.2.08.32.13.19.06.2.07.18.05.21.06.18.05.21.05.19,0,.22.05.19,0,.23,0,.19,0,.24,0,.19,0h1.34l.47,0a13.55,13.55,0,0,0,4.05-1.33c.51-.22,1-.43,1.55-.6a13,13,0,0,1,1.77-.55l.32,0Z" transform="translate(-330.02 -317.45)" fill="#30282d"/>
              </g>
            </g>
            <path d="M373.21,429.06c-.8.73-1.5,1.56-2.16,2.25a38.5,38.5,0,0,1,1.88,4.93,7.14,7.14,0,0,1-5.77,8.76c-4.14.72-8.6-2.16-8.57-6.29s-2.22-4.61-6.1-5.45c-4.26-.93-7.08-6.22-7.12-9.39,0-3.51,3.35-7.91,7-9.23,3.52-1.26,8.21,1.69,10.41,5,2.64-2.12,18-17,20.48-19l46.94-41.46a3.09,3.09,0,0,0,.74-4.1,7.58,7.58,0,0,1,1.33-8.85c2-1.93,3.47-2.55,5.87-2.1,5.73,1.07,8.47,5.26,7.65,11.87,1.17,0,2.44-1.76,6.12-2s6.9,3.55,7.65,6.61c.87,3.56-.68,8-3.64,9.79-3.29,2-9.74-.1-12.68-1.76-1.57-.88-2.42-.58-3.65.5Z" transform="translate(-330.02 -317.45)" fill="#d5ccba"/>
            <g opacity="0.05" style="mix-blend-mode: multiply">
              <path d="M443.28,368.65l.26.15.1.05.19.1.11.05.19.09.13.07.19.08.13.07.2.09.14.05.28.12.19.08.21.09.19.07.17.06.21.08.16.06.22.08.14.05.25.08.1,0c.44.14.9.28,1.36.4h.06l.33.08.06,0,.34.07h0a17.62,17.62,0,0,0,2.26.34h0a11.06,11.06,0,0,0,2.16,0h0l.33,0h0l.32-.06h0a5.31,5.31,0,0,0,1.63-.62c3-1.8,4.51-6.23,3.64-9.79a9.94,9.94,0,0,0-3.8-5.44c1.7,1.74,2.18,2.57,2.44,4.23,1.14,7.11-3.07,9.27-5.1,9.71a9.68,9.68,0,0,1-5.41-.65c-2.15-1-4-2.23-6.44-2.43-2.19-.19-4.26,1.11-6,2.43-1.47-2.35-3-5.05-4.74-7.63a5.08,5.08,0,0,0,1.33-3.21,5.8,5.8,0,0,0-1.33-3.65,7.46,7.46,0,0,0,.43,1.13,3.09,3.09,0,0,1-.74,4.1l-3.07,2.71h0l-22.26,19.66a38.4,38.4,0,0,1-.52,7.4c-.86,2.67-3.66,3.71-11,2.81l-4,3.54a119.69,119.69,0,0,0,15.84,1.18c1.42,0,2.84-.05,4.25-.12l28.28-25.51,1.92-1.73a4,4,0,0,1,1.49-.94,1.91,1.91,0,0,1,.64-.07,3.48,3.48,0,0,1,1.52.51Z" transform="translate(-330.02 -317.45)" fill="#30282d"/>
            </g>
            <g opacity="0.05" style="mix-blend-mode: multiply">
              <path d="M413,374.48,383.3,400.67c-1.06.87-4.52,4.12-8.33,7.72a19.5,19.5,0,0,0,1.84,3.72,1.86,1.86,0,0,0,.23.5,10,10,0,0,1,1.9,6.51,6.39,6.39,0,0,1-.16,1,83.76,83.76,0,0,0-7,6,8.17,8.17,0,0,0-2.62,2.58,6.65,6.65,0,0,0-.69,4.59,18.83,18.83,0,0,0,.68,2.33,3.86,3.86,0,0,1-1,4.7c-1.67,1.51-4.63.87-6-1.44a21.75,21.75,0,0,0-3.3-4.27,9.26,9.26,0,0,0-2.92-2.16,36.92,36.92,0,0,0-3.95-1.25,13.08,13.08,0,0,1-3.19-1.55,9.21,9.21,0,0,1-2.79-3,13.22,13.22,0,0,0,.64,1.46h0v0c.15.28.31.55.47.83l0,0,.26.4,0,0a8.75,8.75,0,0,0,.58.78l0,0c.1.12.2.25.31.36l0,.05a8.59,8.59,0,0,0,.67.68l0,0,.34.3.06,0,.36.29h0l.38.26.06,0,.38.22.07,0a3.84,3.84,0,0,0,.4.21h0c.13.07.27.12.41.18l.07,0,.41.14.08,0,.44.12c3.88.84,6.12,1.32,6.1,5.45,0,.13,0,.27,0,.41s0,.09,0,.13l0,.27,0,.15c0,.08,0,.17,0,.25s0,.1,0,.15l.06.24.05.14a2.25,2.25,0,0,0,.08.24s0,.09.05.13.07.17.11.26l0,.1a4.7,4.7,0,0,0,.39.69v0l.22.3.05.07.2.24.06.07.21.23a.46.46,0,0,0,.07.07l.23.22.06.05.27.24,0,0a7.44,7.44,0,0,0,1.05.71h0a8.34,8.34,0,0,0,1.81.72h0l.39.1h0l.36.07h.06l.34.05h.08l.32,0h.94l.3,0h.11l.41-.06a7.14,7.14,0,0,0,5.77-8.76,38.5,38.5,0,0,0-1.88-4.93c.66-.69,1.36-1.52,2.16-2.25l15.38-13.87,38.57-34.79A39.15,39.15,0,0,0,413,374.48Z" transform="translate(-330.02 -317.45)" fill="#30282d"/>
            </g>
            <g opacity="0.1" style="mix-blend-mode: multiply">
              <path d="M465.18,416.49a8.53,8.53,0,0,0-11.72-4.75c-1.19.56-2.14,1.6-3.3,2.23l-.09,0c-.74.38-4.38-2.05-4.91-2.41l-.36-.24-.09-.06-.37-.25,0,0-.42-.28-.13-.09-.41-.28-.05,0-.49-.34-.15-.1-.45-.31-.08,0-.55-.38-.14-.09c-.18-.12-.35-.25-.54-.37l-.06,0-.62-.43-.12-.08-.6-.41-.06-.05-.68-.46-.14-.1-.51-.35-.23-.16-.66-.45L437,406l-.47-.32-.31-.21-.64-.44-.27-.19-.36-.25c-7.64-5.26-16.89-11.68-20.61-14.29l-14.23-11a33.11,33.11,0,0,0-12.37,4c-1.3.72-2.54,1.48-3.71,2.28l15.36,11.82c4.58,3.84,15.47,11.82,24.35,18.4l.09.08.86.63.17.13.46.34.53.39.34.26.37.27.49.37.36.27.31.24.55.4.29.22.38.29.4.3.38.28.26.2c1.87,1.42,5.87,5.44,7.06,6.4-3.27,4.94-3.45,8.75-.51,12-.89-1.8-1.67-4.57-.76-6.69,3.49-6.51,3.29-5.37.4-7.78-.64-.54-5.23-4.6-5.52-4.79a36.56,36.56,0,0,0,3-4.57,26.79,26.79,0,0,0,5.68,7.71,52.27,52.27,0,0,0,1.54-9c2.92,2.94,4.77,5.08,4.77,5.08a8.82,8.82,0,0,0,0-3.74c.18,0,4.25.71,4.39.59,2.29-1.87,6.58-3.71,10.63.24.11.11.23.2.33.31a12.51,12.51,0,0,1,1.51,2.38c.06.11,1.89,6.18-5.17,7.91-1.71.42-3.33,1.06-4.12,2.8-1,2.24-.82,4.92-1.21,7.32s-1.21,4.44-3.23,5.75a8.43,8.43,0,0,1-3.52,1.2,8.41,8.41,0,0,0,4.19-.7c3.67-1.59,4.1-5.15,4.32-8.56.38-6.09.6-5.27,5.37-6.45A8.68,8.68,0,0,0,465.18,416.49Z" transform="translate(-330.02 -317.45)" fill="#30282d"/>
            </g>
            <g opacity="0.3">
              <path d="M415.37,391l10.71-9.66a37.78,37.78,0,0,0-13.65-5.67l-.7-.14-7.67,6.77-5.94-4.6-2.36-1.82a32.8,32.8,0,0,0-7.3,3,35.27,35.27,0,0,0-6.85,4.81l.11.08,11.07,8.52-9.49,8.39c-1,.8-4.05,3.67-7.53,7a19.57,19.57,0,0,0,8.77,11.21l19.62-17.7c6.27,4.83,15.61,11.65,22.71,17A25.53,25.53,0,0,0,434.66,406c.14-.43.27-.88.38-1.32C428,399.82,419.57,394,415.37,391Z" transform="translate(-330.02 -317.45)" fill="#30282d"/>
            </g>
            <g opacity="0.3">
              <path d="M436.22,372.22c-1.74-1.27-3.22-3.74-4.87-6.5-.92-1.56-1.91-3.21-3-4.81l-24.25,21.42-5.94-4.6q-8.78-6.76-17.48-13.6l-.84,1.1c-2.9,3.84-5.41,7.15-8.27,7.82-1.19.28-2.34.51-3.44.69a144.68,144.68,0,0,1,13.63,10l11.07,8.52-1.28,1.13a106,106,0,0,0,14.07,1.06,101.83,101.83,0,0,0,13.23-1l-3.44-2.4Z" transform="translate(-330.02 -317.45)" fill="#30282d"/>
            </g>
          </g>
          <g>
            <path d="M443.86,412.43s-7.78-3-11.5-8.61c-2.17-3.25-6.59-14.14-6.59-14.14a12.07,12.07,0,0,1,11.89,4.22C444.06,401.41,443.86,412.43,443.86,412.43Z" transform="translate(-330.02 -317.45)" fill="#a80014" stroke="#a80014" stroke-miterlimit="10"/>
            <path d="M438,417.62s-6.26-5.91-7.89-12.42c-.94-3.78-2.15-15.88-2.15-15.88a12,12,0,0,1,10.48,8.33C441.72,407,438,417.62,438,417.62Z" transform="translate(-330.02 -317.45)" fill="#b70023"/>
            <path d="M428,389.32s1.21,12.1,2.15,15.88a24.93,24.93,0,0,0,4.59,8.56c-.67-3.56-.87-4.09.64-8.32a20.78,20.78,0,0,0,.32-12.46A11.82,11.82,0,0,0,428,389.32Z" transform="translate(-330.02 -317.45)" fill="#b70023"/>
            <g id="xt94uq">
              <g>
                <path d="M433.13,405.5c-2.53,7.83-7.56,13.53-16.11,15.81a6.1,6.1,0,0,0-.85.39c.92,3.05,1.83,6.09,2.77,9.13,1,3.28,1,3.29-2.39,4.21-.66.18-2.1.46-2.1.46l-2-5.78-.09,6-6.31.43-1.61-9.61s-.54,6.56-.84,9.62l-6.66-.38.3-7.13-2.4,6.87-5.9-1.66c1.44-4.37,2.81-8.51,4.15-12.56-2.62-1.28-5.2-2.3-7.54-3.72-7.08-4.3-9.42-10.95-9.32-18.6.11-8.9,5.43-14.53,13-18.71a31.84,31.84,0,0,1,22.85-3C432.33,381.72,436.37,395.42,433.13,405.5Z" transform="translate(-330.02 -317.45)" fill="#d5ccba"/>
                <g opacity="0.3" style="mix-blend-mode: screen">
                  <path d="M399.57,434.33a.94.94,0,0,1-.88-1l.15-3.7a1.11,1.11,0,0,0-.87-1.1l-1.31-.25a1.11,1.11,0,0,0-1.22.7l-1.29,3.69a1,1,0,0,1-1.19.63l-1-.3a.88.88,0,0,1-.6-1.13l3.48-10.53a1,1,0,0,0-.34-1.19l-1.47-.71-1.68-.78a45.55,45.55,0,0,1-4.89-2.47,16.6,16.6,0,0,1-6.73-7.34,23.44,23.44,0,0,1-1.61-12.31,1.1,1.1,0,0,1,1.06-.92H402a.93.93,0,0,1,.93.93v28.91a5.75,5.75,0,0,1,0,.93,4.44,4.44,0,0,0-.12.93l-.54,6.21a1,1,0,0,1-1,.87Z" transform="translate(-330.02 -317.45)" fill="#e2d6c3"/>
                </g>
              </g>
              <path d="M420.25,414.69c5.21-2.34,7.55-7.83,5.34-12.84s-6.52-3.79-11.7-1.49-9.2,4.67-7,9.64C409.19,415.14,415,417,420.25,414.69Z" transform="translate(-330.02 -317.45)" fill="#30282d"/>
              <path d="M390.7,414.5A8.22,8.22,0,0,0,401,409c1.24-4.36-1.94-6.36-6.49-7.71s-8.48-1.33-9.78,3.1A8.26,8.26,0,0,0,390.7,414.5Z" transform="translate(-330.02 -317.45)" fill="#30282d"/>
            </g>
            <path d="M430.68,387.7S422.87,385,404.06,385c-16.71,0-24.25,2.73-24.25,2.73a31.29,31.29,0,0,0-2.87,5.46,34.55,34.55,0,0,0-1.56,6.35s4.15.86,29.18.86c26.17,0,30.55-.86,30.55-.86a35.47,35.47,0,0,0-1.45-6A30.78,30.78,0,0,0,430.68,387.7Z" transform="translate(-330.02 -317.45)" fill="#b70023"/>
            <path d="M430.68,385.1s-7.81-2.73-26.62-2.73c-16.71,0-24.25,2.73-24.25,2.73a31.29,31.29,0,0,0-2.87,5.46,34.55,34.55,0,0,0-1.56,6.35s4.25,1.64,29.27,1.64c26.18,0,30.71-.33,30.71-.33a50.8,50.8,0,0,0-1.7-7.34A30.78,30.78,0,0,0,430.68,385.1Z" transform="translate(-330.02 -317.45)" fill="#e31c3b"/>
            <path d="M430.19,381.63s-7.74-2.73-26.38-2.73c-16.56,0-24,2.73-24,2.73a31.44,31.44,0,0,0-2.84,5.46,35,35,0,0,0-1.5,7.33s4.07-.12,28.87-.12c25.94,0,30.07-1.53,30.07-1.53a25.56,25.56,0,0,0-1.22-5.36A31.32,31.32,0,0,0,430.19,381.63Z" transform="translate(-330.02 -317.45)" fill="#b70023"/>
            <g opacity="0.4" style="mix-blend-mode: multiply">
              <path d="M434.12,399.64c.74-.08,1-.13,1-.13s-.07-.5-.21-1.27l.46,0s-.44-2.85-1.11-5.41l.12,0a25.56,25.56,0,0,0-1.22-5.36,31.32,31.32,0,0,0-3-5.78,53.14,53.14,0,0,0-10.42-1.93,39.46,39.46,0,0,0-5.75-1.95c-3.56-.5-7.24-1-10.75-1.33a30.49,30.49,0,0,0-12.67,3.15,52,52,0,0,0-10.83,2.06,31.44,31.44,0,0,0-2.84,5.46,26.73,26.73,0,0,0-1.12,4.55,1.83,1.83,0,0,0,.91.05c2.07-.21,18.18,1.94,29.18,6.23s21.47,9.8,26.31,9.53l.22,0c.25-.63.48-1.27.7-1.93A20.45,20.45,0,0,0,434.12,399.64Z" transform="translate(-330.02 -317.45)" fill="#30282d"/>
            </g>
            <path d="M376.72,391.69c3.53-2.53,14.29,1.48,28.86,1.48,12.81,0,25.31-4,28.44-1.31,15.05-2.58,24.09-7.21,24.09-12.5,0-4.72-8-2-20.41-4.71-5.81-1.25-7.78-11.83-15-17.65-3.8-3.08-9.07-6.74-17.13-6.74-6.28,0-11,3.17-14.86,5.72-8.61,5.72-12.58,17.19-18.89,18.67-11.48,2.69-18.78.2-18.78,4.71C353.05,384.54,362.19,389.09,376.72,391.69Z" transform="translate(-330.02 -317.45)" fill="#42383e"/>
            <path d="M437.7,374.65c-5.81-1.25-7.78-11.83-15-17.65a28.08,28.08,0,0,0-11.81-6.17c-3.57,2.46-6,4.46-6,4.46s1.07,28,0,31.37-5.61,3.74-20.47.39c-12.07-2.71-20.22-2.73-26.24-1.25,4.1,2.41,10.49,4.45,18.53,5.89,3.53-2.53,14.29,1.48,28.86,1.48,12.81,0,25.31-4,28.44-1.31,15.05-2.58,24.09-7.21,24.09-12.5C458.11,374.64,450.11,377.33,437.7,374.65Z" transform="translate(-330.02 -317.45)" fill="#30282d"/>
            <g>
              <g>
                <path d="M457.17,382.23c-1.22-1.28-3.77-1.31-7.3-1.34a57.55,57.55,0,0,1-12.19-1.1c-3.17-.69-5.19-4.07-7.53-8-2-3.29-4.19-7-7.5-9.69-4.1-3.32-9.34-6.72-17.07-6.72h-.1v-5.57h.1c7.79,0,13.06,3.42,17.2,6.76,3.34,2.7,5.57,6.44,7.55,9.75,2.31,3.87,4.31,7.22,7.39,7.89a82,82,0,0,0,12.08,1.54c5.25.37,8.41.59,8.41,3.6a5.29,5.29,0,0,1-.89,2.85l-.07.11Z" transform="translate(-330.02 -317.45)" fill="#fbb514"/>
                <path d="M405.58,349.92c8.06,0,13.33,3.66,17.13,6.74,7.21,5.82,9.18,16.4,15,17.66,12.41,2.68,20.41.32,20.41,5a5.22,5.22,0,0,1-.87,2.8c-2.39-2.51-9.52-.31-19.54-2.47-5.81-1.26-7.78-11.84-15-17.66-3.8-3.08-9.07-6.74-17.13-6.74v-5.37Zm0-.2h-.2v5.77h.2a23.39,23.39,0,0,1,10.08,2.2,33,33,0,0,1,6.93,4.5c3.3,2.66,5.52,6.38,7.48,9.67,2.34,3.93,4.37,7.33,7.59,8A57.21,57.21,0,0,0,449.87,381c3.5,0,6,.06,7.22,1.31l.18.18.14-.21a5.42,5.42,0,0,0,.9-2.91c0-3.1-3.2-3.33-8.5-3.7a81.77,81.77,0,0,1-12.07-1.54c-3-.66-5-4-7.33-7.84-2-3.31-4.22-7.07-7.57-9.78a33.6,33.6,0,0,0-7-4.55,23.88,23.88,0,0,0-10.25-2.23Z" transform="translate(-330.02 -317.45)" fill="#fbb514"/>
              </g>
              <g>
                <path d="M353.87,382.19a5.14,5.14,0,0,1-.92-2.83c0-2.88,2.91-3.13,7.74-3.54a74.43,74.43,0,0,0,11.11-1.6c3.28-.77,5.91-4.25,9-8.27,2.71-3.59,5.79-7.66,9.9-10.4,3.84-2.56,8.61-5.73,14.92-5.73h.1v5.57h-.1c-6.25,0-11,3.16-14.8,5.69-4.09,2.73-7.16,6.78-9.86,10.36-3.07,4.06-5.72,7.56-9.07,8.35a49.42,49.42,0,0,1-11.18,1.13c-3.19.05-5.5.09-6.65,1.28l-.09.09Z" transform="translate(-330.02 -317.45)" fill="#fbcf00"/>
                <path d="M405.58,349.92v5.37c-6.28,0-11,3.17-14.86,5.72-8.61,5.73-12.58,17.2-18.89,18.68-9.13,2.14-15.61.09-17.88,2.44a5,5,0,0,1-.9-2.77c0-4.51,7.3-2.36,18.78-5,6.31-1.48,10.28-13,18.89-18.68,3.83-2.55,8.58-5.72,14.86-5.72Zm.2-.2h-.2c-6.34,0-11.12,3.18-15,5.74h0c-4.12,2.74-7.2,6.82-9.93,10.42-3,4-5.65,7.47-8.89,8.23a74.5,74.5,0,0,1-11.1,1.6c-4.88.41-7.83.66-7.83,3.64a5.2,5.2,0,0,0,.93,2.88l.14.21.17-.18c1.13-1.16,3.41-1.19,6.58-1.25a49.14,49.14,0,0,0,11.2-1.14c3.39-.79,6.05-4.3,9.13-8.38,2.7-3.57,5.76-7.62,9.83-10.32h0c3.8-2.53,8.52-5.68,14.74-5.68h.2v-5.77Z" transform="translate(-330.02 -317.45)" fill="#fbcf00"/>
              </g>
            </g>
            <g>
              <path d="M418.41,384.6a1.06,1.06,0,0,0-.4.08l-.42-.33a10,10,0,0,0,.19-2.29,9.54,9.54,0,0,1-.76,1.85l-4.66-3.7a11.65,11.65,0,0,1,.78-1.75A16.42,16.42,0,0,0,412,379.9c-3-2.36-6.18-5-7.78-6.37a83.26,83.26,0,0,1-8.84-9.59A17.14,17.14,0,0,0,402,376.71a58.76,58.76,0,0,0,8.59,5.45c-.89,1.93-1.13,4.09,1.42,5.12,3.15,1.27,4.57-.12,5.22-1.78l0,0a1.49,1.49,0,0,0,0,.21,1.13,1.13,0,1,0,1.13-1.13Zm-14-8.05c-3.85-2.93-4.87-5.79-4.87-5.79A52.31,52.31,0,0,0,405,376c2.67,2.2,5.63,4.34,6.32,4.83l0,0A40.84,40.84,0,0,1,404.42,376.55Zm9.5,9.18a2.79,2.79,0,0,1-2.06-2.91c1.75.92,3.3,1.68,4.37,2.19A2.18,2.18,0,0,1,413.92,385.73Z" transform="translate(-330.02 -317.45)" fill="#fff"/>
              <g>
                <path d="M415.73,363.94a83.26,83.26,0,0,1-8.84,9.59c-.47.41-1.08.93-1.78,1.51l1,.95a53,53,0,0,0,5.39-5.23,14.43,14.43,0,0,1-4.82,5.76l1.18,1.08c.4-.29.79-.59,1.15-.89A17.17,17.17,0,0,0,415.73,363.94Z" transform="translate(-330.02 -317.45)" fill="#fff"/>
                <path d="M406,378.93l-1.2-1a38.4,38.4,0,0,1-5,3l0,0c.53-.38,2.42-1.74,4.49-3.36l-1.08-.89c-1.29,1.05-2.7,2.19-4.07,3.28a16.42,16.42,0,0,0-1.16-1.44,12.76,12.76,0,0,1,.78,1.75l-4.66,3.7a8.84,8.84,0,0,1-.76-1.85,10,10,0,0,0,.19,2.29l-.42.33a1.06,1.06,0,0,0-.4-.08,1.13,1.13,0,1,0,1.13,1.13,1.49,1.49,0,0,0,0-.21l0,0c.65,1.66,2.07,3.05,5.22,1.78,2.55-1,2.31-3.19,1.42-5.12C402.28,381.18,404.21,380.07,406,378.93Zm-8.8,6.8a2.18,2.18,0,0,1-2.31-.72c1.07-.51,2.62-1.27,4.36-2.19A2.78,2.78,0,0,1,397.17,385.73Z" transform="translate(-330.02 -317.45)" fill="#fff"/>
              </g>
            </g>
          </g>
          <path d="M407.9,420.15a19.63,19.63,0,0,0-.81-3.88,2.55,2.55,0,0,0-3.91-1.27,4.74,4.74,0,0,0-1.53,5.15Z" transform="translate(-330.02 -317.45)" fill="#30282d"/>
          <path d="M354.88,415.73c-3.31-.64-6.53,3.33-2,4.2,3.07.59,6-3.42,2-4.2C354.06,415.58,356.3,416,354.88,415.73Z" transform="translate(-330.02 -317.45)" fill="#fff" opacity="0.7"/>
          <path d="M349.83,419.5a.7.7,0,0,0-.91-.06l-.11.06a1.42,1.42,0,0,0-.28.2.7.7,0,0,0,.91,1.07l.11-.07a1.1,1.1,0,0,0,.28-.2A.72.72,0,0,0,349.83,419.5Z" transform="translate(-330.02 -317.45)" fill="#fff" opacity="0.7"/>
          <path d="M363.7,344.61c-1.22-3.62-6.26-.72-6.2,2C357.6,351,365.16,348.94,363.7,344.61Z" transform="translate(-330.02 -317.45)" fill="#fff" opacity="0.7"/>
          <path d="M351.24,358.67a.78.78,0,0,0,.08-.56.71.71,0,0,0-.87-.49A1.72,1.72,0,0,0,349,359.3a.7.7,0,0,0,.89.68,3.56,3.56,0,0,0,.52-.24,1.27,1.27,0,0,0,.43-.26,1.2,1.2,0,0,0,.18-.26c0-.07.15-.21,0,0A.85.85,0,0,0,351.24,358.67Z" transform="translate(-330.02 -317.45)" fill="#fff" opacity="0.7"/>
          <path d="M436.72,345.38c-1.93-1.23-4,1.63-3.42,3.33,1.1,3.73,7.08-1,3.42-3.33Z" transform="translate(-330.02 -317.45)" fill="#fff" opacity="0.6"/>
          <path d="M453.21,355.06a1.46,1.46,0,0,0-2.3.63c-.53,1.85,3.84.63,2.3-.63Z" transform="translate(-330.02 -317.45)" fill="#fff" opacity="0.7"/>
          <path d="M439.18,430.94a1.51,1.51,0,0,0-1.88.38,2.81,2.81,0,0,0-.66,2.8,2.22,2.22,0,0,0,.44.72,1.46,1.46,0,0,0,1.26.83,1.23,1.23,0,0,0,.47,0,1.56,1.56,0,0,0,1.46-.95C440.8,433.6,440.46,431.33,439.18,430.94Z" transform="translate(-330.02 -317.45)" fill="#fff" opacity="0.7"/>
          <path d="M440.82,437.85a.38.38,0,0,0-.09-.12.67.67,0,0,0-.63-.41.7.7,0,0,0-.7.7.86.86,0,0,0,.12.44.27.27,0,0,0,.09.12.67.67,0,0,0,.63.41.7.7,0,0,0,.7-.7A.86.86,0,0,0,440.82,437.85Z" transform="translate(-330.02 -317.45)" fill="#fff" opacity="0.7"/>
          <g opacity="0.05" style="mix-blend-mode: multiply">
            <path d="M449.06,354.62c-1.6.6-2.44,1.4-3.23,1.41.56-4.55-.56-7.95-3.18-10,2.37,3.81,1.17,8.57-.26,12.58C442,359.84,448.9,355.12,449.06,354.62Z" transform="translate(-330.02 -317.45)" fill="#30282d"/>
          </g>
          <g opacity="0.15" style="mix-blend-mode: multiply">
            <path d="M362.82,419.68a13.12,13.12,0,0,0-2.76-3,9.6,9.6,0,0,1,1.9,5.16c.11,1.85.19,1.44,1.11-.35a36.67,36.67,0,0,1,3.06-4.81C364.59,418.13,363.4,419.21,362.82,419.68Z" transform="translate(-330.02 -317.45)" fill="#30282d"/>
          </g>
          <polygon points="65.01 31.48 66.82 45.24 60.65 32.9 65.01 31.48" fill="#006e81"/>
        </g>
      </g>
    </g>
  </g>
</svg>
