<svg id="pencil" xmlns="http://www.w3.org/2000/svg" xmlns:xlink="http://www.w3.org/1999/xlink" width="190.49" height="189.93" viewBox="0 0 190.49 189.93">
  <defs>
    <linearGradient id="linear-gradient" x1="295.96" y1="749.37" x2="415.96" y2="749.37" gradientTransform="translate(-54.18 -350.38) scale(1 1.17)" gradientUnits="userSpaceOnUse">
      <stop offset="0" stop-color="#4d4d4d" stop-opacity="0.8"/>
      <stop offset="0.2" stop-color="#7f8182" stop-opacity="0.54"/>
      <stop offset="0.49" stop-color="#b9bec0" stop-opacity="0.24"/>
      <stop offset="0.76" stop-color="#dce2e5" stop-opacity="0.06"/>
      <stop offset="1" stop-color="#e8eff2" stop-opacity="0"/>
    </linearGradient>
    <linearGradient id="linear-gradient-2" x1="252.82" y1="485.32" x2="295.67" y2="528.17" gradientUnits="userSpaceOnUse">
      <stop offset="0" stop-color="#4d4d4d" stop-opacity="0.7"/>
      <stop offset="1" stop-color="#e8eff2" stop-opacity="0"/>
    </linearGradient>
  </defs>
  <title>pencil</title>
  <g id="yellowCircle">
    <rect x="241.78" y="468.42" width="120" height="119.59" transform="translate(265.9 -481.68) rotate(45)" fill="url(#linear-gradient)"/>
    <path d="M316,483a60,60,0,1,1-60-60A59.64,59.64,0,0,1,316,483Z" transform="translate(-196 -423)" fill="#ebd114"/>
    <path d="M313.42,500.42a60,60,0,0,1-49,42l-34.34-34.34,45.5-45.5Z" transform="translate(-196 -423)" fill="url(#linear-gradient-2)"/>
    <g>
      <rect x="236.21" y="475.49" width="37.16" height="15.79" transform="translate(-463.18 -101.26) rotate(-45)" fill="#e8eff2"/>
      <rect x="268.72" y="457.53" width="8.05" height="15.79" transform="translate(-445.22 -93.82) rotate(-45)" fill="#e8eff2"/>
      <polygon points="33.91 85.27 49.16 81.18 37.99 70.02 33.91 85.27" fill="#e8eff2"/>
    </g>
  </g>
</svg>
