<svg xmlns="http://www.w3.org/2000/svg" viewBox="0 0 94 94"><defs><style>.cls-1{isolation:isolate;}.cls-2{fill:#006e81;}.cls-3{fill:#d5ccba;}.cls-4{opacity:0.05;}.cls-13,.cls-20,.cls-4,.cls-6{mix-blend-mode:multiply;}.cls-5{fill:#30282d;}.cls-6{opacity:0.1;}.cls-10,.cls-7{opacity:0.3;}.cls-8{fill:#a80014;stroke:#a80014;stroke-miterlimit:10;}.cls-9{fill:#b70023;}.cls-10{mix-blend-mode:screen;}.cls-11{fill:#e2d6c3;}.cls-12{fill:#e31c3b;}.cls-13{opacity:0.4;}.cls-14{fill:#42383e;}.cls-15{fill:#fbb514;}.cls-16{fill:#fbcf00;}.cls-17,.cls-18,.cls-19{fill:#fff;}.cls-18{opacity:0.7;}.cls-19{opacity:0.6;}.cls-20{opacity:0.15;}</style></defs><title>Asset 1</title><g class="cls-1"><g id="Layer_2" data-name="Layer 2"><g id="Layer_1-2" data-name="Layer 1"><g id="smallicon"><circle class="cls-2" cx="47" cy="47" r="47"/><path class="cls-3" d="M32.4,41.56c-4-3.18-7.7-6.14-12-8.2-.42-.2-1.14.13-1.68.31a16.61,16.61,0,0,1-3.51,1.21c-3.29.27-5.57-1.55-5.75-4.28-.24-3.75,2.2-7,5.48-7.37.56-.06,1.14,0,1.85,0-.17-.73-.35-1.43-.5-2.13-.63-3,.36-4.94,3-5.87a5.24,5.24,0,0,1,6.53,2.65,6.7,6.7,0,0,1,.28,5.5,1.43,1.43,0,0,0,.59,2c5.34,4.13,10.64,8.32,16,12.45l10.2,7.89c3.65,2.58,15.89,11,19.28,13.33.33.22,2.62,1.75,3.08,1.51.76-.38,1.36-1.07,2.12-1.42a5.34,5.34,0,0,1,7.35,3A5.44,5.44,0,0,1,81,69.21c-3,.74-3.12.23-3.37,4-.13,2.14-.4,4.37-2.7,5.37s-4.5.22-6.47-1.13c-3.42-2.35-3.86-5.1-1.32-8.93C62.7,65,47.83,53.73,43.5,50.1Z"/><g class="cls-4"><path class="cls-5" d="M20,33.3a.74.74,0,0,1,.37.06h0l.72.35.2.11c.19.09.37.19.55.29l.18.09.68.38.18.11.5.3.25.14.51.32.22.14.56.36.29.19.36.25.31.21.44.3.48.35.25.18.4.29.17.13c.49.35,1,.72,1.45,1.09h0c.31.17.62.32.94.47a1.07,1.07,0,1,0,1.08-1.85,27.75,27.75,0,0,1-2.52-1.35,7.51,7.51,0,0,0,2.75-1.88c.77-.8,1.53-1.6,2.26-2.43l.36.17A1.13,1.13,0,0,0,35.19,32c-2.83-2.21-5.67-4.43-8.51-6.63a1.43,1.43,0,0,1-.59-2,6.85,6.85,0,0,0,.44-3c0-.1,0-.21,0-.31v0a2.93,2.93,0,0,0,0-.29v0l-.06-.27,0-.07-.06-.24,0-.1a1.87,1.87,0,0,0-.07-.22l0-.13c0-.06-.05-.12-.07-.19L26,18.3,26,18.16l-.15-.32h0l-.18-.33,0-.06-.2-.31v0a6,6,0,0,0-.5-.61h0a5,5,0,0,1,.44,1.36c.28,1.65-1.61,6.71-2,7.69a.82.82,0,0,0,.79,1.08A6.63,6.63,0,0,1,28,28.25a37,37,0,0,0,3.66,2.59c-.51.56-1,1.12-1.56,1.66a7.19,7.19,0,0,1-2,1.61,4.9,4.9,0,0,1-2.26.45c-.61-.38-1.22-.74-1.84-1.09A12.6,12.6,0,0,0,20.25,32a6.62,6.62,0,0,0-4,.84,5.75,5.75,0,0,1-4.91.25,3.66,3.66,0,0,1-1.86-1.75h0c0,.07,0,.13.05.2v0a1.21,1.21,0,0,0,.05.18v0l.06.16V32a1.11,1.11,0,0,0,.07.16l0,0a.77.77,0,0,0,.07.16l0,0,.08.16v0l.1.17h0a4,4,0,0,0,.5.66h0l.12.12,0,0,.11.1.05,0,.11.09a.18.18,0,0,0,.07,0l.11.09.07.05.11.08.08,0,.11.08.09,0,.11.07.09,0,.12.06.1,0,.12.06.2.08.12,0,.13,0,.11,0,.13,0,.11,0,.14,0,.11,0,.14,0,.12,0,.14,0h.12l.15,0h1l.3,0a8.44,8.44,0,0,0,2.53-.83c.33-.14.65-.27,1-.38a10.06,10.06,0,0,1,1.1-.35l.21,0Z"/></g><path class="cls-3" d="M27.07,69.94c-.51.46-.95,1-1.36,1.41a23.92,23.92,0,0,1,1.18,3.09,4.47,4.47,0,0,1-3.61,5.49c-2.6.45-5.39-1.35-5.38-3.94s-1.39-2.89-3.82-3.42c-2.67-.58-4.44-3.9-4.46-5.88,0-2.2,2.1-5,4.41-5.79s5.15,1.06,6.52,3.16c1.66-1.33,11.29-10.65,12.84-11.91l29.41-26a1.93,1.93,0,0,0,.47-2.57,4.74,4.74,0,0,1,.83-5.54,3.66,3.66,0,0,1,3.68-1.32c3.59.67,5.31,3.29,4.79,7.44.74,0,1.53-1.11,3.84-1.27s4.33,2.22,4.79,4.14a5.91,5.91,0,0,1-2.28,6.14c-2.06,1.24-6.1-.06-8-1.1a1.65,1.65,0,0,0-2.28.3Z"/><g class="cls-4"><path class="cls-5" d="M71,32.09l.16.09.06,0,.12.06.07,0,.12,0,.08,0,.12.06.08,0,.13,0,.08,0,.18.07.12.05.13.06.12,0,.11,0,.13,0,.1,0L73,33l.09,0,.15,0,.06,0,.85.25h0l.21,0h0l.21,0h0a11.87,11.87,0,0,0,1.42.21h0a6.82,6.82,0,0,0,1.36,0h0l.21,0h0l.2,0h0a3.66,3.66,0,0,0,1-.39,5.91,5.91,0,0,0,2.28-6.14,6.22,6.22,0,0,0-2.37-3.41,4.23,4.23,0,0,1,1.52,2.65c.72,4.46-1.92,5.81-3.19,6.09a6,6,0,0,1-3.4-.41,12.55,12.55,0,0,0-4-1.52A5.75,5.75,0,0,0,66,32c-.92-1.47-1.85-3.16-3-4.78a3.18,3.18,0,0,0,.83-2A3.62,3.62,0,0,0,63,22.89a5.15,5.15,0,0,0,.27.71,1.93,1.93,0,0,1-.47,2.57l-1.92,1.7h0l-14,12.31a23.32,23.32,0,0,1-.33,4.64c-.54,1.67-2.29,2.33-6.91,1.76l-2.52,2.23a75.74,75.74,0,0,0,9.93.73c.89,0,1.78,0,2.66-.07l17.72-16,1.21-1.09a2.7,2.7,0,0,1,.93-.58,1.33,1.33,0,0,1,.4,0,2.21,2.21,0,0,1,1,.33Z"/></g><g class="cls-4"><path class="cls-5" d="M52,35.74,33.39,52.15c-.67.54-2.84,2.58-5.22,4.84a12.3,12.3,0,0,0,1.15,2.33,1.1,1.1,0,0,0,.15.31,6.33,6.33,0,0,1,1.19,4.09c0,.2-.06.41-.1.61a51.33,51.33,0,0,0-4.42,3.74,5.07,5.07,0,0,0-1.64,1.62,4.09,4.09,0,0,0-.43,2.87A10.58,10.58,0,0,0,24.49,74,2.42,2.42,0,0,1,23.88,77a2.57,2.57,0,0,1-3.79-.9A13.74,13.74,0,0,0,18,73.39,5.62,5.62,0,0,0,16.19,72a23.65,23.65,0,0,0-2.47-.79,8.22,8.22,0,0,1-2-1A5.76,5.76,0,0,1,10,68.42a9,9,0,0,0,.4.91h0v0c.09.18.19.35.29.52l0,0c.05.08.1.17.16.25l0,0c.11.16.23.33.36.49v0l.2.22,0,0a5.66,5.66,0,0,0,.42.43l0,0,.22.19,0,0,.24.18h0a1.88,1.88,0,0,0,.23.16l0,0,.24.14,0,0,.25.13h0l.26.11.05,0,.26.09h.05l.27.07c2.43.53,3.84.83,3.82,3.42a2.09,2.09,0,0,0,0,.25s0,.06,0,.09a1.11,1.11,0,0,0,0,.17s0,.06,0,.09l0,.16a.29.29,0,0,1,0,.09A.83.83,0,0,1,18,77l0,.09s0,.1.05.15l0,.08.07.16,0,.06a3.83,3.83,0,0,0,.25.44h0a1.27,1.27,0,0,0,.13.19l0,0,.13.16,0,0a.86.86,0,0,0,.13.14l0,0,.15.13,0,0,.17.14,0,0a5.82,5.82,0,0,0,.66.44h0a5.26,5.26,0,0,0,1.13.46h0l.24.06h0l.23,0h0l.21,0h0l.2,0h.59L23,80H23l.26,0a4.47,4.47,0,0,0,3.61-5.49,23.92,23.92,0,0,0-1.18-3.09c.41-.43.85-.95,1.36-1.41l9.63-8.69,24.17-21.8A24.31,24.31,0,0,0,52,35.74Z"/></g><g class="cls-6"><path class="cls-5" d="M84.7,62.07a5.34,5.34,0,0,0-7.35-3c-.74.35-1.34,1-2.06,1.39l-.06,0c-.46.24-2.75-1.29-3.08-1.51l-.22-.15-.06,0-.23-.16h0l-.26-.18-.09-.06L71,58.23l0,0L70.68,58l-.09-.06-.28-.2,0,0-.35-.24-.09-.06-.33-.23,0,0-.39-.27-.08,0-.37-.26,0,0-.42-.29-.1-.06L67.73,56l-.14-.1-.41-.28-.12-.08-.29-.21-.19-.13-.4-.27L66,54.79l-.23-.16c-4.79-3.29-10.59-7.31-12.91-9L44,38.76a20.77,20.77,0,0,0-7.76,2.5,26.62,26.62,0,0,0-2.32,1.43L43.5,50.1c2.87,2.4,9.69,7.4,15.25,11.53l.06,0,.54.4.11.08.29.22.33.24.21.16.23.17.31.23.23.17.19.15.34.26.18.13.25.18.24.19.24.18.17.12c1.17.89,3.68,3.41,4.42,4-2,3.1-2.16,5.49-.32,7.53a5.44,5.44,0,0,1-.48-4.19c2.19-4.08,2.06-3.37.26-4.88-.4-.33-3.28-2.88-3.47-3A22.18,22.18,0,0,0,65,61.16,17.1,17.1,0,0,0,68.54,66a32.1,32.1,0,0,0,1-5.64c1.83,1.85,3,3.19,3,3.19a5.52,5.52,0,0,0,0-2.35c.11,0,2.66.45,2.75.37,1.44-1.17,4.12-2.32,6.66.15l.21.19a7.6,7.6,0,0,1,.94,1.5c0,.07,1.19,3.87-3.23,5a3.41,3.41,0,0,0-2.59,1.75c-.64,1.4-.51,3.08-.76,4.59a5,5,0,0,1-2,3.6,5.24,5.24,0,0,1-2.2.75,5.25,5.25,0,0,0,2.62-.43c2.3-1,2.57-3.23,2.7-5.37.25-3.81.39-3.3,3.37-4A5.44,5.44,0,0,0,84.7,62.07Z"/></g><g class="cls-7"><path class="cls-5" d="M53.49,46.11l6.71-6a23.71,23.71,0,0,0-8.56-3.56l-.44-.09-4.8,4.25-3.73-2.88L41.2,36.63a20.77,20.77,0,0,0-4.58,1.86,22.62,22.62,0,0,0-4.29,3l.07.06,6.94,5.34-6,5.25c-.62.5-2.54,2.3-4.72,4.36a12.32,12.32,0,0,0,5.5,7L46.46,52.45c3.93,3,9.78,7.3,14.23,10.62a16,16,0,0,0,4.88-7.58c.09-.28.17-.56.24-.83C61.4,51.62,56.12,48,53.49,46.11Z"/></g><g class="cls-7"><path class="cls-5" d="M66.55,34.32a14.2,14.2,0,0,1-3-4.07c-.58-1-1.2-2-1.91-3L46.4,40.66l-3.73-2.88q-5.49-4.24-11-8.53l-.52.69c-1.82,2.41-3.4,4.48-5.19,4.9-.74.18-1.46.32-2.15.44a91.32,91.32,0,0,1,8.54,6.28l6.94,5.34-.81.7a66.23,66.23,0,0,0,8.82.66,63.49,63.49,0,0,0,8.29-.65l-2.15-1.5Z"/></g><path class="cls-8" d="M71.34,59.52s-4.88-1.9-7.21-5.4c-1.35-2-4.12-8.85-4.12-8.85a7.54,7.54,0,0,1,7.44,2.64C71.47,52.61,71.34,59.52,71.34,59.52Z"/><path class="cls-9" d="M67.66,62.77s-3.92-3.7-4.94-7.78c-.59-2.37-1.35-10-1.35-10a7.48,7.48,0,0,1,6.56,5.22C70,56.09,67.66,62.77,67.66,62.77Z"/><path class="cls-9" d="M61.37,45s.76,7.58,1.35,10a15.45,15.45,0,0,0,2.87,5.36c-.42-2.23-.54-2.56.4-5.21a13,13,0,0,0,.2-7.81A7.38,7.38,0,0,0,61.37,45Z"/><g id="xt94uq"><path class="cls-3" d="M64.61,55.18c-1.58,4.9-4.73,8.48-10.09,9.9-.13,0-.25.12-.54.25.58,1.91,1.15,3.82,1.74,5.72.65,2.06.66,2.06-1.5,2.64-.41.11-1.31.29-1.31.29l-1.23-3.62-.06,3.76-4,.27-1-6s-.34,4.11-.53,6L42,74.16l.18-4.47L40.64,74l-3.7-1c.91-2.74,1.76-5.33,2.6-7.87-1.64-.79-3.26-1.44-4.72-2.33-4.44-2.69-5.9-6.86-5.84-11.65.07-5.58,3.4-9.11,8.13-11.73a20,20,0,0,1,14.32-1.88C64.11,40.28,66.65,48.86,64.61,55.18Z"/><g class="cls-10"><path class="cls-11" d="M43.59,73.24a.6.6,0,0,1-.56-.61l.1-2.32a.7.7,0,0,0-.55-.69l-.82-.16a.69.69,0,0,0-.76.44l-.81,2.32a.64.64,0,0,1-.75.39l-.65-.19a.54.54,0,0,1-.38-.7l2.18-6.61a.61.61,0,0,0-.21-.74l-.92-.44-1.05-.49a29.32,29.32,0,0,1-3.07-1.55,10.4,10.4,0,0,1-4.21-4.6A14.08,14.08,0,0,1,30,51.11a13.56,13.56,0,0,1,.13-1.54.69.69,0,0,1,.66-.57H45.12a.58.58,0,0,1,.58.58V67.7a4.44,4.44,0,0,1,0,.58,2.83,2.83,0,0,0-.08.58l-.34,3.9a.6.6,0,0,1-.63.54Z"/></g><path class="cls-5" d="M56.55,60.93a6,6,0,0,0,3.34-8c-1.4-3.15-4.08-2.38-7.33-.94s-5.76,2.93-4.38,6A6.14,6.14,0,0,0,56.55,60.93Z"/><path class="cls-5" d="M38,60.82A5.15,5.15,0,0,0,44.5,57.4c.79-2.74-1.21-4-4.06-4.84s-5.31-.83-6.13,1.95A5.18,5.18,0,0,0,38,60.82Z"/></g><path class="cls-9" d="M63.08,44s-4.9-1.71-16.68-1.71C35.93,42.31,31.2,44,31.2,44a19.85,19.85,0,0,0-1.79,3.42,20.79,20.79,0,0,0-1,4S31,52,46.71,52c16.4,0,19.15-.53,19.15-.53A22.35,22.35,0,0,0,65,47.64,19.31,19.31,0,0,0,63.08,44Z"/><path class="cls-12" d="M63.08,42.39s-4.9-1.71-16.68-1.71c-10.47,0-15.2,1.71-15.2,1.71a19.85,19.85,0,0,0-1.79,3.42,20.79,20.79,0,0,0-1,4s2.66,1,18.34,1c16.4,0,19.24-.21,19.24-.21A31.28,31.28,0,0,0,65,46,19.19,19.19,0,0,0,63.08,42.39Z"/><path class="cls-9" d="M62.77,40.22s-4.85-1.71-16.53-1.71c-10.38,0-15.06,1.71-15.06,1.71a19,19,0,0,0-1.78,3.42,21.9,21.9,0,0,0-.94,4.6s2.55-.08,18.09-.08c16.26,0,18.84-1,18.84-1a15.68,15.68,0,0,0-.76-3.36A19.57,19.57,0,0,0,62.77,40.22Z"/><g class="cls-13"><path class="cls-5" d="M65.24,51.5c.46,0,.62-.07.62-.07s0-.32-.14-.8l.29,0s-.27-1.78-.69-3.39l.07,0a15.68,15.68,0,0,0-.76-3.36,19.57,19.57,0,0,0-1.86-3.62A32.55,32.55,0,0,0,56.24,39a25.24,25.24,0,0,0-3.6-1.23c-2.23-.31-4.54-.6-6.73-.83a19.28,19.28,0,0,0-7.95,2,32,32,0,0,0-6.78,1.29,19,19,0,0,0-1.78,3.42,16.27,16.27,0,0,0-.71,2.85,1.29,1.29,0,0,0,.57,0c1.3-.14,11.4,1.21,18.29,3.9S61,56.57,64,56.4h.14c.15-.4.3-.8.43-1.21A12.91,12.91,0,0,0,65.24,51.5Z"/></g><path class="cls-14" d="M29.26,46.52c2.22-1.58,9,.93,18.09.93,8,0,15.86-2.5,17.82-.82,9.44-1.62,15.1-4.52,15.1-7.83,0-3-5-1.27-12.79-2.95-3.64-.79-4.88-7.42-9.39-11.07a16.35,16.35,0,0,0-10.74-4.22c-3.94,0-6.91,2-9.31,3.58-5.4,3.59-7.88,10.78-11.84,11.71C19,37.53,14.43,36,14.43,38.8,14.43,42,20.16,44.89,29.26,46.52Z"/><path class="cls-5" d="M67.48,35.85c-3.64-.79-4.88-7.42-9.39-11.07a17.7,17.7,0,0,0-7.4-3.86c-2.24,1.54-3.76,2.79-3.76,2.79s.67,17.58,0,19.66-3.52,2.34-12.83.25c-7.57-1.7-12.68-1.72-16.45-.79,2.57,1.51,6.58,2.79,11.61,3.69,2.22-1.58,9,.93,18.09.93,8,0,15.86-2.5,17.82-.82,9.44-1.62,15.1-4.52,15.1-7.83C80.27,35.84,75.26,37.53,67.48,35.85Z"/><path class="cls-15" d="M79.68,40.59c-.76-.8-2.36-.81-4.58-.84a35.17,35.17,0,0,1-7.63-.69c-2-.43-3.26-2.54-4.72-5A22.1,22.1,0,0,0,58.05,28a16.33,16.33,0,0,0-10.7-4.2h-.06v-3.5h.06c4.88,0,8.19,2.15,10.78,4.24a22.16,22.16,0,0,1,4.73,6.11c1.45,2.43,2.7,4.53,4.63,4.94a52.19,52.19,0,0,0,7.57,1c3.29.23,5.27.37,5.27,2.26a3.28,3.28,0,0,1-.55,1.78l0,.07Z"/><path class="cls-15" d="M47.35,20.35a16.35,16.35,0,0,1,10.74,4.22c4.51,3.65,5.75,10.28,9.39,11.06,7.78,1.68,12.79.21,12.79,3.17a3.25,3.25,0,0,1-.55,1.75c-1.49-1.57-6-.19-12.24-1.55-3.64-.78-4.88-7.42-9.39-11.06a16.35,16.35,0,0,0-10.74-4.23V20.35Zm0-.13h-.12v3.62h.12a14.65,14.65,0,0,1,6.32,1.38A20.74,20.74,0,0,1,58,28a22,22,0,0,1,4.69,6.06c1.47,2.47,2.74,4.6,4.75,5a36.13,36.13,0,0,0,7.65.7c2.2,0,3.79,0,4.53.82l.11.11.09-.13a3.38,3.38,0,0,0,.57-1.82c0-1.95-2-2.09-5.33-2.32a52.19,52.19,0,0,1-7.57-1c-1.9-.41-3.15-2.5-4.59-4.91a22.09,22.09,0,0,0-4.74-6.13,21.46,21.46,0,0,0-4.4-2.85,15,15,0,0,0-6.42-1.4Z"/><path class="cls-16" d="M14.94,40.57a3.22,3.22,0,0,1-.57-1.77c0-1.81,1.83-2,4.85-2.22a47.67,47.67,0,0,0,7-1c2.06-.48,3.71-2.66,5.61-5.18A27.3,27.3,0,0,1,38,23.88c2.41-1.61,5.4-3.59,9.35-3.6h.06v3.5h-.06c-3.91,0-6.88,2-9.27,3.56a27.16,27.16,0,0,0-6.19,6.5c-1.92,2.54-3.58,4.73-5.68,5.22a31.07,31.07,0,0,1-7,.72c-2,0-3.45,0-4.17.8l0,.05Z"/><path class="cls-16" d="M47.35,20.35v3.36c-3.94,0-6.91,2-9.31,3.59C32.64,30.88,30.16,38.07,26.2,39c-5.72,1.34-9.78.06-11.2,1.53a3.13,3.13,0,0,1-.57-1.73c0-2.83,4.58-1.48,11.77-3.17,4-.92,6.44-8.11,11.84-11.7,2.4-1.6,5.37-3.58,9.31-3.58Zm.13-.13h-.13c-4,0-7,2-9.38,3.6h0a27.26,27.26,0,0,0-6.23,6.53c-1.9,2.52-3.54,4.69-5.57,5.16a46,46,0,0,1-7,1c-3.07.26-4.91.42-4.91,2.29a3.23,3.23,0,0,0,.58,1.8l.09.13.11-.11c.7-.73,2.13-.75,4.12-.78a31.29,31.29,0,0,0,7-.72c2.12-.49,3.78-2.7,5.71-5.25a27.15,27.15,0,0,1,6.17-6.47h0c2.38-1.59,5.34-3.56,9.24-3.56h.13V20.22Z"/><path class="cls-17" d="M55.39,42.08a.7.7,0,0,0-.25.05l-.26-.21A6.72,6.72,0,0,0,55,40.49a6.09,6.09,0,0,1-.48,1.15L51.6,39.33a7.19,7.19,0,0,1,.49-1.1,11,11,0,0,0-.73.91c-1.86-1.49-3.87-3.11-4.87-4a51.4,51.4,0,0,1-5.54-6,10.75,10.75,0,0,0,4.18,8,37,37,0,0,0,5.38,3.41c-.56,1.21-.71,2.56.89,3.21,2,.79,2.86-.08,3.27-1.12h0a.68.68,0,0,0,0,.14.71.71,0,0,0,1.42,0A.71.71,0,0,0,55.39,42.08Zm-8.77-5a9,9,0,0,1-3-3.63A33.3,33.3,0,0,0,47,36.72c1.67,1.38,3.53,2.72,4,3v0A25.82,25.82,0,0,1,46.62,37Zm6,5.75A1.74,1.74,0,0,1,51.29,41c1.09.57,2.06,1.05,2.74,1.37A1.39,1.39,0,0,1,52.58,42.79Z"/><path class="cls-17" d="M53.71,29.13a52.42,52.42,0,0,1-5.54,6c-.29.26-.67.58-1.11,1l.65.59a31.81,31.81,0,0,0,3.37-3.27,9,9,0,0,1-3,3.6l.74.68c.26-.18.5-.37.73-.55A10.75,10.75,0,0,0,53.71,29.13Z"/><path class="cls-17" d="M47.6,38.52l-.76-.62a22,22,0,0,1-3.12,1.86v0c.33-.23,1.52-1.09,2.81-2.1l-.67-.56L43.3,39.14a11,11,0,0,0-.73-.91,8.31,8.31,0,0,1,.49,1.1l-2.92,2.31a5.39,5.39,0,0,1-.48-1.15,6,6,0,0,0,.12,1.43l-.26.21a.7.7,0,0,0-.25-.05.71.71,0,0,0-.71.71.7.7,0,0,0,.71.7.7.7,0,0,0,.7-.7.66.66,0,0,0,0-.14h0c.4,1,1.3,1.91,3.27,1.12,1.6-.65,1.45-2,.89-3.21C45.28,39.94,46.49,39.24,47.6,38.52Zm-5.52,4.27a1.39,1.39,0,0,1-1.45-.45c.68-.32,1.65-.8,2.74-1.37A1.74,1.74,0,0,1,42.08,42.79Z"/><path class="cls-5" d="M48.8,64.36a11.57,11.57,0,0,0-.5-2.43,1.6,1.6,0,0,0-2.45-.8,3,3,0,0,0-1,3.23Z"/><path class="cls-18" d="M15.58,61.59c-2.07-.4-4.09,2.08-1.25,2.63,1.93.37,3.75-2.15,1.25-2.63Z"/><path class="cls-18" d="M12.41,64a.44.44,0,0,0-.57,0l-.06,0a.59.59,0,0,0-.18.13.44.44,0,0,0,.57.66l.07,0a1,1,0,0,0,.17-.12A.44.44,0,0,0,12.41,64Z"/><path class="cls-18" d="M21.11,17c-.77-2.27-3.93-.45-3.89,1.27C17.28,21,22,19.73,21.11,17Z"/><path class="cls-18" d="M13.3,25.83a.48.48,0,0,0,0-.35.46.46,0,0,0-.55-.31,1.08,1.08,0,0,0-.89,1.06.44.44,0,0,0,.56.42,1.66,1.66,0,0,0,.33-.15.71.71,0,0,0,.26-.16.83.83,0,0,0,.12-.16c0-.05.1-.14,0,0A.51.51,0,0,0,13.3,25.83Z"/><path class="cls-19" d="M66.87,17.5c-1.22-.77-2.54,1-2.15,2.09.69,2.33,4.44-.64,2.15-2.09Z"/><path class="cls-18" d="M77.2,23.57a.91.91,0,0,0-1.44.39c-.34,1.16,2.4.39,1.44-.39C77.2,23.56,77.42,23.75,77.2,23.57Z"/><path class="cls-18" d="M68.41,71.12a1,1,0,0,0-1.18.24,1.78,1.78,0,0,0-.42,1.76,1.57,1.57,0,0,0,.28.44.93.93,0,0,0,1.08.5,1,1,0,0,0,.92-.59C69.42,72.79,69.21,71.36,68.41,71.12Z"/><path class="cls-18" d="M69.44,75.45l-.06-.08a.42.42,0,0,0-.39-.25.45.45,0,0,0-.45.44.61.61,0,0,0,.08.27.16.16,0,0,0,.06.08.43.43,0,0,0,.39.26.44.44,0,0,0,.44-.44A.68.68,0,0,0,69.44,75.45Z"/><g class="cls-4"><path class="cls-5" d="M74.6,23.29c-1,.38-1.53.88-2,.89.36-2.85-.34-5-2-6.26,1.49,2.39.74,5.37-.16,7.88C70.15,26.56,74.5,23.61,74.6,23.29Z"/></g><g class="cls-20"><path class="cls-5" d="M20.55,64.06a8,8,0,0,0-1.73-1.86A5.91,5.91,0,0,1,20,65.43c.06,1.16.11.9.69-.22a23.1,23.1,0,0,1,1.92-3C21.67,63.09,20.92,63.77,20.55,64.06Z"/></g><polygon class="cls-2" points="40.74 19.73 41.88 28.35 38.01 20.61 40.74 19.73"/></g></g></g></g></svg>