<svg id="Layer_1" data-name="Layer 1" xmlns="http://www.w3.org/2000/svg" viewBox="0 0 36.02 44.22"><defs><style>.cls-1{fill:#fff;}</style></defs><title>Apple Logo</title><path class="cls-1" d="M54.06,46.33v.05a11,11,0,0,1-1,2.77A23.47,23.47,0,0,1,51,52.86a28.1,28.1,0,0,1-2.15,2.83,8.08,8.08,0,0,1-2.49,2,4.6,4.6,0,0,1-1.93.46,6.89,6.89,0,0,1-2.55-.36c-.47-.18-.94-.37-1.39-.58a8.47,8.47,0,0,0-4.15-.76,9.23,9.23,0,0,0-2.95.75,18.61,18.61,0,0,1-2.08.8,4.86,4.86,0,0,1-1.08.16,12.36,12.36,0,0,1-1.36,0,3.76,3.76,0,0,1-1.46-.48,9.32,9.32,0,0,1-2.56-2.2,29.49,29.49,0,0,1-3.22-4.53,24.93,24.93,0,0,1-1.4-2.84,28.52,28.52,0,0,1-1.58-4.84,26.54,26.54,0,0,1-.5-2.94c0-.32,0-.66,0-1,0-.66,0-1.32,0-2a14.57,14.57,0,0,1,.8-4.94,12.34,12.34,0,0,1,2.26-4,11.28,11.28,0,0,1,3.66-2.8,10.1,10.1,0,0,1,3.18-.92c.31,0,.63-.07.94-.08a8.56,8.56,0,0,1,2.93.46c.92.29,1.81.67,2.71,1a5.21,5.21,0,0,0,1.9.43,3.49,3.49,0,0,0,1-.2c.92-.29,1.8-.67,2.71-1a12.45,12.45,0,0,1,3.34-.81,10.93,10.93,0,0,1,2,.07,10.19,10.19,0,0,1,2.46.54,10,10,0,0,1,4.23,2.78,8.12,8.12,0,0,1,.69.86c.13.19.11.31-.08.44a10.66,10.66,0,0,0-2,1.75A9.33,9.33,0,0,0,48.32,36,9.75,9.75,0,0,0,49,41.2a9.05,9.05,0,0,0,1.5,2.4,10.61,10.61,0,0,0,3.21,2.48C53.83,46.15,54,46.18,54.06,46.33Z" transform="translate(-18.04 -13.92)"/><path class="cls-1" d="M44.86,13.92V14a.16.16,0,0,1-.26,0v0Z" transform="translate(-18.04 -13.92)"/><path class="cls-1" d="M44.6,14h.26a9.43,9.43,0,0,1-2.15,6.82A8.58,8.58,0,0,1,37.9,24a6,6,0,0,1-1.69.17c-.14,0-.21,0-.22-.19a7.34,7.34,0,0,1,.47-3.41,10,10,0,0,1,6.62-6.27A6.5,6.5,0,0,1,44.6,14Z" transform="translate(-18.04 -13.92)"/></svg>