<svg xmlns="http://www.w3.org/2000/svg" width="197.54" height="333.84" viewBox="0 0 197.54 333.84">
  <title>Asset 5</title>
  <g id="Layer_2" data-name="Layer 2">
    <g id="layer2">
      <g id="balloon">
        <polygon points="89.69 229.73 83.05 251.12 82.08 230.37 80.58 230.44 81.55 251.2 72.95 230.57 71.57 231.15 82.6 257.62 91.12 230.17 89.69 229.73" fill="#0b1526"/>
        <polygon points="104.42 229.73 111.06 251.12 112.03 230.37 113.52 230.44 112.55 251.2 121.15 230.57 122.54 231.15 111.5 257.62 102.99 230.17 104.42 229.73" fill="#0b1526"/>
        <polygon points="117.32 284.19 112.05 285.95 108.85 261.83 85.48 261.83 81.98 286.03 76.73 284.12 81.23 255.62 113.19 255.62 117.32 284.19" fill="#213264"/>
        <g>
          <path d="M197.52,100.72a98.3,98.3,0,0,1-17.06,53.58c-8.57,12.58-16.4,25-24.6,38.72-3.17,5.31-6.39,10.82-9.73,16.62-5.1,8.86-10.48,18.4-16.37,28.92h-62c-5.71-10.75-11.38-21-17-30.74Q46.34,200.26,42,193c-8.27-13.68-16.54-26.49-24.87-38.72A98.31,98.31,0,0,1,0,100.72C-.64,66.4,16.85,35.47,43.52,17.21a99.23,99.23,0,0,1,12-7,97.22,97.22,0,0,1,28.33-9C84.42,1.06,85,1,85.58.9A95.21,95.21,0,0,1,98.06,0h2.12l3.24.1a96.29,96.29,0,0,1,31,6.69c1,.38,1.93.77,2.89,1.2h0C173.13,23.48,198.31,59.67,197.52,100.72Z" fill="#ecf7f7"/>
          <path d="M43.52,17.21C16.85,35.47-.64,66.4,0,100.72A98.31,98.31,0,0,0,17.09,154.3c8.33,12.23,16.6,25,24.87,38.72q4.38,7.24,8.76,14.8l11.39-6.58,1-.57S36.8,99.22,55.52,10.16Z" fill="#365caa"/>
          <path d="M88.62,205.43,83.23,205l-19.61-1.6-1.51-2.15c-64.55-93.16-46.75-151.09-18.59-184l12-7a97.22,97.22,0,0,1,28.33-9C84.42,1.06,85,1,85.58.9,56.14,85.4,88.62,205.43,88.62,205.43Z" fill="#ecf7f7"/>
          <path d="M137.33,8h0c35.78,15.47,61,51.66,60.17,92.71a98.3,98.3,0,0,1-17.06,53.58c-8.57,12.58-16.4,25-24.6,38.72-3.17,5.31-6.39,10.82-9.73,16.62a24.22,24.22,0,0,1-3.15,1.25l-16-10.32-.5-.32s23.68-101.93,8-193.45Z" fill="#365caa"/>
          <path d="M134.44,6.8a96.29,96.29,0,0,0-31-6.69L100.18,0c33.16,84.55-3,205.42-3,205.42l7.89-.58,19.75-1.46,2.17-2.82C204.9,98.43,173.19,38.77,137.35,8h0Z" fill="#ecf7f7"/>
          <path d="M130.15,88.89c-11.35,55-17.35,94.23-25.09,116-.79,2.19-1.59,4.21-2.41,6H85.59c-.81-1.79-1.59-3.76-2.36-5.9-7.77-21.7-13.76-61-25.14-116.1-8.72-42.22,12.28-73,25.76-87.74C84.42,1.06,85,1,85.58.9A95.21,95.21,0,0,1,98.06,0h2.12l3.24.1C116.84,14.41,139.08,45.65,130.15,88.89Z" fill="#365caa"/>
          <path d="M155.86,193c-8,13.44-16.37,28.15-26.1,45.54h-62C59.11,222.27,50.53,207.19,42,193a257.6,257.6,0,0,0,57.13,6.37A257.8,257.8,0,0,0,155.86,193Z" fill="#1f438c"/>
        </g>
        <path d="M59.63,280.39h74.8a0,0,0,0,1,0,0v38.43a15,15,0,0,1-15,15H74.64a15,15,0,0,1-15-15V280.39A0,0,0,0,1,59.63,280.39Z" fill="#0d1f39"/>
        <rect x="87.15" y="255.62" width="19.75" height="6.21" fill="#365caa"/>
        <path d="M76,305.41,69.82,296a1.73,1.73,0,0,0,1.31-1.32,1.74,1.74,0,1,0-3.41-.74,1.73,1.73,0,0,0,.46,1.59l-9.66,6.09a12.77,12.77,0,0,0,4.1,23.28h0A12.77,12.77,0,0,0,76,305.41Z" fill="#365caa"/>
        <path d="M105.25,303.39l-8-7.88a1.73,1.73,0,0,0,1-1.57,1.75,1.75,0,1,0-3.49,0,1.77,1.77,0,0,0,.79,1.46l-8.15,8a12.77,12.77,0,0,0,8.94,21.89h0A12.77,12.77,0,0,0,105.25,303.39Z" fill="#365caa"/>
        <path d="M134.08,301.61l-9.52-6a1.74,1.74,0,1,0-2.77-1,1.75,1.75,0,0,0,1.08,1.26l-6.27,9.54A12.77,12.77,0,0,0,130,324.9h0A12.77,12.77,0,0,0,134.08,301.61Z" fill="#365caa"/>
      </g>
    </g>
  </g>
</svg>
