<svg xmlns="http://www.w3.org/2000/svg" width="172.39" height="52.14" viewBox="0 0 172.39 52.14">
  <title>Asset 8</title>
  <g id="Layer_2" data-name="Layer 2">
    <g id="layer1">
      <path id="cloud3" d="M1.08,39.42,19,35.14s6.38-8.77,11.57-7.58a9.78,9.78,0,0,1,4.38,2.79s6-12.76,13.57-13.56,11.17,4,11.17,4A24.5,24.5,0,0,1,65.31,9.31a17.59,17.59,0,0,1,10.82-6,15.59,15.59,0,0,1,4.27,0S81.59-.58,86.54.07A11.52,11.52,0,0,1,95.7,7.24a11.91,11.91,0,0,1,.66,2.37s4.39,3.59,4.39,6.78c0,0,5.58-2,7.58,1.2l.79,3.19s9.58-6.38,15.16-4.39A11.1,11.1,0,0,1,131.07,24s11.56,1.2,11.17,6.38c0,0,5.58-2,6.78,0s11.57,8,22.34,7.58c0,0,2.79,1.2-.8,2.8s-39.1,5.18-40.69,6.38-8.78,3.59-20.75,0c0,0-20.74,4.39-36.7,2,0,0-12.76,5.59-24.33,1.6a65.76,65.76,0,0,1-8.57-3.41A12.86,12.86,0,0,0,35.27,46c-7.65-.85-30.8-3.45-33.46-4.12-1.91-.47-2-1.24-1.69-1.78A1.42,1.42,0,0,1,1.08,39.42Z" fill="#ecf7f7"/>
    </g>
  </g>
</svg>
