<svg xmlns="http://www.w3.org/2000/svg" width="166.72" height="63.33" viewBox="0 0 166.72 63.33">
  <title>Asset 13</title>
  <g id="Layer_2" data-name="Layer 2">
    <g id="words">
      <g>
        <path d="M26,20.06v10H16.89a4.9,4.9,0,0,0-2.63.52,2,2,0,0,0-.77,1.79,2,2,0,0,0,.79,1.86,7.53,7.53,0,0,0,3.23.45H26.9V47.59h-11Q8.19,47.59,4.09,44T0,33.79V16.14q0-6.46,3.87-10T14.76,2.54H26.9V15.48H18c-2.41,0-3.61.75-3.61,2.24a2,2,0,0,0,.86,1.83,6.47,6.47,0,0,0,3.06.51Z" fill="#f5cc5e"/>
        <path d="M64.54,47.59H51.68V29c0-1.9-.82-2.84-2.45-2.84s-2.41.94-2.41,2.84V47.59H34V29.24A14.66,14.66,0,0,1,38.4,18.4,14.81,14.81,0,0,1,49.27,14a14.86,14.86,0,0,1,11.8,5.12q3.46,4,3.47,11.12Z" fill="#f5cc5e"/>
        <path d="M76.69,14.69H89.55V42.47q0,8.72-4.3,13.86-5.46,6.54-15.06,6.53a21.81,21.81,0,0,1-6.61-1.18V50a13.89,13.89,0,0,0,5.47,1.45q7.64,0,7.64-10.79ZM82.74,0a6.45,6.45,0,0,1,4.53,1.77,5.49,5.49,0,0,1,1.91,4.17,5.47,5.47,0,0,1-1.81,4.22,7.31,7.31,0,0,1-9.25,0,5.43,5.43,0,0,1-1.81-4.22,5.49,5.49,0,0,1,1.91-4.17A6.42,6.42,0,0,1,82.74,0Z" fill="#f5cc5e"/>
        <path d="M113.36,14a17.41,17.41,0,0,1,12.51,5,16.21,16.21,0,0,1,5.21,12.07,16.12,16.12,0,0,1-5.28,12.14,18.69,18.69,0,0,1-25.51,0A16.11,16.11,0,0,1,95,31.09a16,16,0,0,1,5.3-12.16A18.46,18.46,0,0,1,113.36,14ZM113,26.17a4.92,4.92,0,0,0-5,4.95,4.75,4.75,0,0,0,1.47,3.5,5,5,0,0,0,7,0,4.95,4.95,0,0,0,0-7A4.84,4.84,0,0,0,113,26.17Z" fill="#f5cc5e"/>
        <path d="M140.89,62V51.28a12.6,12.6,0,0,0,4.57,1.06q6.27,0,8.12-6.77a13.31,13.31,0,0,1-6.6,1.92,10.15,10.15,0,0,1-7.88-3.42,12.42,12.42,0,0,1-3.1-8.69V14.69h12.87V32.37c0,2,.85,2.94,2.54,2.94s2.45-1.08,2.45-3.23V14.69h12.86V44.05q0,8.22-4.81,13.27a18.56,18.56,0,0,1-13.9,6A20.23,20.23,0,0,1,140.89,62Z" fill="#f5cc5e"/>
      </g>
    </g>
  </g>
</svg>
