<svg xmlns="http://www.w3.org/2000/svg" width="235.7" height="47.29" viewBox="0 0 235.7 47.29">
  <title>Asset 15</title>
  <g id="Layer_2" data-name="Layer 2">
    <g id="words">
      <g>
        <path d="M24.43.92V13.76a8.16,8.16,0,0,0-2.34-.49,3.72,3.72,0,0,0-2.72,1.12,3.66,3.66,0,0,0-1.14,2.7,7.28,7.28,0,0,0,1.24,3.44l1.07,1.78a18.05,18.05,0,0,1,2.89,9.3,14.62,14.62,0,0,1-4.87,11.12A16.74,16.74,0,0,1,6.67,47.29,16.15,16.15,0,0,1,0,45.8v-13A7,7,0,0,0,3.54,34a4.65,4.65,0,0,0,3.05-1,3.14,3.14,0,0,0,1.22-2.52q0-1-2-4.32A20.52,20.52,0,0,1,2.72,15.58a14.77,14.77,0,0,1,4.73-11A15.62,15.62,0,0,1,18.75,0,18.11,18.11,0,0,1,24.43.92Z" fill="#f5cc5e"/>
        <path d="M30.55,13.73H43.42V32.31c0,1.87.81,2.8,2.44,2.8s2.41-.93,2.41-2.8V13.73H61.14V32.08a14.62,14.62,0,0,1-4.44,10.8,14.83,14.83,0,0,1-10.87,4.41A14.91,14.91,0,0,1,34,42.17q-3.48-4-3.48-11.09Z" fill="#f5cc5e"/>
        <path d="M115.7,46.17H102.83V28.41a6.32,6.32,0,0,0-.44-2.84,1.71,1.71,0,0,0-1.62-.79c-1.44,0-2.17,1.22-2.17,3.67V46.17H85.74V28.41a6.1,6.1,0,0,0-.47-2.84,1.74,1.74,0,0,0-1.63-.79c-1.43,0-2.14,1.22-2.14,3.67V46.17H68.64V25.9A13.23,13.23,0,0,1,82,12.61,14,14,0,0,1,92.2,17.23q5.07-4.62,10.12-4.62a13,13,0,0,1,10.32,4.48c2,2.34,3.06,5.73,3.06,10.2Z" fill="#f5cc5e"/>
        <path d="M170.3,46.17H157.43V28.41a6.32,6.32,0,0,0-.44-2.84,1.71,1.71,0,0,0-1.62-.79c-1.45,0-2.17,1.22-2.17,3.67V46.17H140.33V28.41a6.12,6.12,0,0,0-.46-2.84,1.74,1.74,0,0,0-1.63-.79c-1.43,0-2.14,1.22-2.14,3.67V46.17H123.24V25.9a13.23,13.23,0,0,1,13.31-13.29,14,14,0,0,1,10.25,4.62q5.05-4.62,10.12-4.62a13,13,0,0,1,10.32,4.48c2,2.34,3.06,5.73,3.06,10.2Z" fill="#f5cc5e"/>
        <path d="M211.55,31.71H192a8.91,8.91,0,0,1-.44-2.6,8.71,8.71,0,0,1,.62-3.24h6.53q-.69-3.66-4.3-3.66a4.73,4.73,0,0,0-3.92,2,8,8,0,0,0-1.51,5,8.44,8.44,0,0,0,1.46,5.18,4.53,4.53,0,0,0,3.84,2A5.2,5.2,0,0,0,198,34.52L205.36,43A18.45,18.45,0,0,1,194,46.83a17.94,17.94,0,0,1-12.83-4.92,16.08,16.08,0,0,1-5.2-12.18,16.18,16.18,0,0,1,5.25-12.21,18,18,0,0,1,12.89-5,17.42,17.42,0,0,1,12.54,4.87,16,16,0,0,1,5.07,12C211.69,29.89,211.64,30.66,211.55,31.71Z" fill="#f5cc5e"/>
        <path d="M235.7,12.94v13.2a5.12,5.12,0,0,0-2.44-.73c-2.34,0-3.51,1.71-3.51,5.15V46.17H216.88v-18q0-7.12,4.06-11.37t10.84-4.24A26.39,26.39,0,0,1,235.7,12.94Z" fill="#f5cc5e"/>
      </g>
    </g>
  </g>
</svg>
