<svg xmlns="http://www.w3.org/2000/svg" width="92" height="87.14" viewBox="0 0 92 87.14">
  <title>Asset 4</title>
  <g id="Layer_2" data-name="Layer 2">
    <g id="layer3">
      <g id="swans">
        <g>
          <path d="M6,42.2H39.46a17,17,0,0,0,5.7-4.58c3.65-4.92-.86-13-.86-13s-5.26-10.24-6.49-13-.56-5.55.57-4.23A6,6,0,0,0,42,8.94a10.92,10.92,0,0,0,1.64.13l.19,0L45.7,6.6V5.27a4.81,4.81,0,0,0-1.6-2.85C41-.43,35.37-1.22,32.36,2.58s1,12.83,1,12.83l3.25,7.84L38,26.59c1.63,3.38-.13,5-.13,5,.94-4.23-3.57-7.33-3.57-7.33-5.26-4.14-16.63-2.91-16.63-2.91-6.2.09-9-2.95-9-2.95-.77,3.05,1.67,5.26,3.85,6.58a17.25,17.25,0,0,0,3,1.44c-2.68,0-6.3-1.35-7.69-1.92l-.58-.24c0,1.59,1.88,4.41,1.88,4.41a3.08,3.08,0,0,1-.48-.09,23.57,23.57,0,0,1-4.81-2.44C3.48,27.24,5.12,31,5.12,31,3.62,30.72.25,27.15.25,27.15A15.28,15.28,0,0,0,6,42.2Z" fill="#fff"/>
          <path d="M40,4.21c0,.57.81.6,1,.87a10.91,10.91,0,0,1,1,3.86,10.92,10.92,0,0,0,1.64.13l.19,0L45.7,6.6V5.27a2.27,2.27,0,0,0-1.93-1.4c-2-.17-1.61.1-2.36-.27S39.94,3.63,40,4.21Z" fill="#06090a"/>
          <path d="M45,5.44s.67-.19,1,.76l.31.94,2.54,3.62a2.24,2.24,0,0,1,.36,1.89.73.73,0,0,1-.14.32L42.93,9S42.91,5.32,45,5.44Z" fill="#de5a7f"/>
          <path d="M13.06,31.35c-.37-.07-4.3-.82-5.54-2,0,0,.09,5.2,6.87,7.9s15.54,1,18.82-.36,4-3.28,4-3.28l.71-2c.94-4.23-3.57-7.33-3.57-7.33-5.26-4.14-16.63-2.91-16.63-2.91-6.2.09-9-2.95-9-2.95-.77,3.05,1.67,5.26,3.85,6.58a30.76,30.76,0,0,0,4.63,1.73s-5.45-.07-9.31-2.21l-.58-.24c0,1.59,1.88,4.41,1.88,4.41a3.08,3.08,0,0,1-.48-.09A14.47,14.47,0,0,0,13.06,31.35Z" fill="#e9ecee"/>
        </g>
        <g>
          <path d="M58.36,54.5H84.28A13.06,13.06,0,0,0,88.69,51C91.51,47.15,88,40.89,88,40.89S84,33,83,30.79s-.44-4.29.43-3.27a4.66,4.66,0,0,0,2.8,1.25,8.44,8.44,0,0,0,1.28.1l.14,0L89.11,27v-1a3.76,3.76,0,0,0-1.24-2.21c-2.4-2.2-6.76-2.81-9.09.13s.8,9.92.8,9.92l2.52,6.07,1.07,2.58c1.26,2.62-.1,3.85-.1,3.85.73-3.27-2.76-5.67-2.76-5.67-4.07-3.2-12.86-2.25-12.86-2.25-4.8.07-7-2.28-7-2.28-.59,2.36,1.29,4.07,3,5.09a13.14,13.14,0,0,0,2.32,1.12,18.72,18.72,0,0,1-6-1.49c-.28-.11-.44-.19-.44-.19,0,1.24,1.45,3.42,1.45,3.42a3.35,3.35,0,0,1-.37-.07,18.19,18.19,0,0,1-3.72-1.89c-.3.87,1,3.78,1,3.78-1.16-.22-3.76-3-3.76-3A11.8,11.8,0,0,0,58.36,54.5Z" fill="#fff"/>
          <path d="M84.68,25.11c0,.44.63.47.78.68a8.2,8.2,0,0,1,.78,3,8.44,8.44,0,0,0,1.28.1l.14,0L89.11,27v-1a1.77,1.77,0,0,0-1.49-1.08c-1.52-.13-1.26.08-1.83-.21S84.66,24.66,84.68,25.11Z" fill="#06090a"/>
          <path d="M88.59,26.06s.52-.14.76.59l.23.73,2,2.8a1.77,1.77,0,0,1,.28,1.46.77.77,0,0,1-.11.24l-4.75-3S87,26,88.59,26.06Z" fill="#de5a7f"/>
          <path d="M63.86,46.11c-.29-.06-3.33-.64-4.29-1.56,0,0,.07,4,5.32,6.11s12,.77,14.55-.28,3.1-2.53,3.1-2.53l.54-1.58c.73-3.27-2.76-5.67-2.76-5.67-4.07-3.2-12.86-2.25-12.86-2.25-4.8.07-7-2.28-7-2.28-.59,2.36,1.29,4.07,3,5.09A23.36,23.36,0,0,0,67,42.5a17.8,17.8,0,0,1-7.21-1.71c-.28-.11-.44-.19-.44-.19,0,1.24,1.45,3.42,1.45,3.42a3.35,3.35,0,0,1-.37-.07A11.44,11.44,0,0,0,63.86,46.11Z" fill="#e9ecee"/>
        </g>
        <g opacity="0.19">
          <path d="M6,42.2H39.46a17,17,0,0,1,5.7,4.57c3.65,4.93-.86,13-.86,13S39,70,37.81,72.84s-.56,5.55.57,4.23A6,6,0,0,1,42,75.46a10.92,10.92,0,0,1,1.64-.13l.19,0L45.7,77.8v1.33A4.81,4.81,0,0,1,44.11,82c-3.1,2.85-8.74,3.64-11.75-.16S33.4,69,33.4,69l3.25-7.84L38,57.81c1.63-3.38-.13-5-.13-5,.94,4.23-3.57,7.33-3.57,7.33-5.26,4.13-16.63,2.91-16.63,2.91-6.2-.09-9,2.95-9,2.95-.77-3,1.67-5.26,3.85-6.58a17.25,17.25,0,0,1,3-1.44c-2.68,0-6.3,1.35-7.69,1.92-.37.14-.58.24-.58.24,0-1.6,1.88-4.42,1.88-4.42a3.17,3.17,0,0,0-.48.1,23.57,23.57,0,0,0-4.81,2.44c-.39-1.13,1.25-4.88,1.25-4.88-1.5.28-4.87,3.85-4.87,3.85A15.27,15.27,0,0,1,6,42.2Z" fill="#fff"/>
          <path d="M40,80.19c0-.57.81-.61,1-.88a10.78,10.78,0,0,0,1-3.85,10.92,10.92,0,0,1,1.64-.13l.19,0L45.7,77.8v1.33a2.27,2.27,0,0,1-1.93,1.4c-2,.16-1.61-.11-2.36.27S39.94,80.76,40,80.19Z" fill="#06090a"/>
          <path d="M45,79s.67.19,1-.76l.31-.94,2.54-3.62a2.24,2.24,0,0,0,.36-1.89.73.73,0,0,0-.14-.32l-6.14,3.93S42.91,79.07,45,79Z" fill="#de5a7f"/>
          <path d="M13.06,53.05c-.37.07-4.3.81-5.54,2,0,0,.09-5.21,6.87-7.9s15.54-1,18.82.36,4,3.28,4,3.28l.71,2c.94,4.23-3.57,7.33-3.57,7.33-5.26,4.13-16.63,2.91-16.63,2.91-6.2-.09-9,2.95-9,2.95-.77-3,1.67-5.26,3.85-6.58a30.76,30.76,0,0,1,4.63-1.73s-5.45.07-9.31,2.21c-.37.14-.58.24-.58.24,0-1.6,1.88-4.42,1.88-4.42a3.17,3.17,0,0,0-.48.1A14.47,14.47,0,0,1,13.06,53.05Z" fill="#e9ecee"/>
        </g>
        <g opacity="0.19">
          <path d="M58.48,54.5H84.4A13.19,13.19,0,0,1,88.82,58c2.81,3.81-.68,10.06-.68,10.06s-4.06,7.92-5,10.1-.44,4.29.43,3.27a4.71,4.71,0,0,1,2.8-1.24,8.44,8.44,0,0,1,1.28-.1h.14L89.23,82v1A3.71,3.71,0,0,1,88,85.27c-2.4,2.21-6.76,2.82-9.09-.12s.8-9.93.8-9.93l2.52-6.06,1.07-2.58c1.27-2.62-.1-3.86-.1-3.86.73,3.27-2.76,5.67-2.76,5.67-4.07,3.2-12.86,2.25-12.86,2.25-4.8-.07-7,2.28-7,2.28-.59-2.36,1.29-4.07,3-5.09a13.49,13.49,0,0,1,2.32-1.11A18.87,18.87,0,0,0,60,68.2l-.45.19C59.51,67.16,61,65,61,65a1.75,1.75,0,0,0-.36.07,18.07,18.07,0,0,0-3.73,1.89c-.3-.87,1-3.78,1-3.78-1.17.22-3.77,3-3.77,3A11.79,11.79,0,0,1,58.48,54.5Z" fill="#fff"/>
          <path d="M84.8,83.89c0-.45.63-.47.78-.68a8.2,8.2,0,0,0,.78-3,8.44,8.44,0,0,1,1.28-.1h.14L89.23,82v1a1.77,1.77,0,0,1-1.49,1.08c-1.52.13-1.25-.08-1.83.21S84.78,84.33,84.8,83.89Z" fill="#06090a"/>
          <path d="M88.71,82.93s.52.15.76-.58l.23-.73,2-2.8A1.77,1.77,0,0,0,92,77.36a.74.74,0,0,0-.11-.25l-4.75,3S87.07,83,88.71,82.93Z" fill="#de5a7f"/>
          <path d="M64,62.89c-.28,0-3.33.63-4.29,1.56,0,0,.07-4,5.32-6.11s12-.77,14.55.27,3.1,2.54,3.1,2.54l.54,1.57c.73,3.27-2.76,5.67-2.76,5.67-4.07,3.2-12.86,2.25-12.86,2.25-4.8-.07-7,2.28-7,2.28-.59-2.36,1.29-4.07,3-5.09a23.08,23.08,0,0,1,3.58-1.33A17.83,17.83,0,0,0,60,68.2l-.45.19C59.51,67.16,61,65,61,65a1.75,1.75,0,0,0-.36.07A11,11,0,0,1,64,62.89Z" fill="#e9ecee"/>
        </g>
      </g>
    </g>
  </g>
</svg>
