<svg xmlns="http://www.w3.org/2000/svg" width="96.5" height="45.71" viewBox="0 0 96.5 45.71">
  <title>Asset 14</title>
  <g id="Layer_2" data-name="Layer 2">
    <g id="words">
      <g>
        <path d="M12.87,0V12.61h5.78v13H12.87q0,3.93,1.29,5.41c.86,1,2.43,1.49,4.73,1.49v13l-1.48,0a18.07,18.07,0,0,1-8.24-1.95A16.43,16.43,0,0,1,3,38.31Q0,34.05,0,27V0Z" fill="#f5cc5e"/>
        <path d="M37.84,0V13.76a11.38,11.38,0,0,1,6.54-2.28,9.77,9.77,0,0,1,7.86,3.44c1.94,2.29,2.91,5.37,2.91,9.27V45H42.28V27.65a5.83,5.83,0,0,0-.46-2.83A2,2,0,0,0,40,24.09c-1.44,0-2.17,1-2.17,3.07V45H25V0Z" fill="#f5cc5e"/>
        <path d="M96.37,30.59H76.86A8.63,8.63,0,0,1,76.41,28,8.87,8.87,0,0,1,77,24.75h6.54q-.69-3.66-4.3-3.66a4.7,4.7,0,0,0-3.92,2,8,8,0,0,0-1.52,5,8.53,8.53,0,0,0,1.46,5.18,4.57,4.57,0,0,0,3.84,2,5.22,5.22,0,0,0,3.72-1.84l7.32,8.44a18.42,18.42,0,0,1-11.38,3.87A18,18,0,0,1,66,40.79a16.11,16.11,0,0,1-5.19-12.18A16.2,16.2,0,0,1,66,16.4a18,18,0,0,1,12.89-5,17.39,17.39,0,0,1,12.54,4.87,16,16,0,0,1,5.07,12C96.5,28.77,96.46,29.54,96.37,30.59Z" fill="#f5cc5e"/>
      </g>
    </g>
  </g>
</svg>
