<svg xmlns="http://www.w3.org/2000/svg" xmlns:xlink="http://www.w3.org/1999/xlink" viewBox="0 0 221.78 224.47"><defs><style>.cls-1{fill:none;}.cls-2{isolation:isolate;}.cls-3{fill:#919191;stroke:#050505;}.cls-3,.cls-4,.cls-7,.cls-78,.cls-9{stroke-miterlimit:10;}.cls-3,.cls-4,.cls-78{stroke-width:3.42px;}.cls-4{fill:#e2dcda;}.cls-4,.cls-7,.cls-78,.cls-9{stroke:#000;}.cls-5{fill:#3e5ee5;}.cls-6{fill:#022da8;opacity:0.61;}.cls-7,.cls-8,.cls-9{fill:#fff;}.cls-7{stroke-width:0.54px;}.cls-9{stroke-width:0.57px;}.cls-10{fill:#3d3d3d;}.cls-11{fill:#191919;}.cls-12{opacity:0.34;}.cls-13{clip-path:url(#clip-path);}.cls-14{fill:#d7f0fc;}.cls-15{fill:#d6f0fc;}.cls-16{fill:#d5effc;}.cls-17{fill:#d4effc;}.cls-18{fill:#d3effc;}.cls-19{fill:#d2eefc;}.cls-20{fill:#d1eefc;}.cls-21{fill:#d0eefc;}.cls-22{fill:#cfedfc;}.cls-23{fill:#ceedfc;}.cls-24{fill:#cdedfc;}.cls-25{fill:#ccecfb;}.cls-26{fill:#cbecfb;}.cls-27{fill:#caebfb;}.cls-28{fill:#c9ebfb;}.cls-29{fill:#c8ebfb;}.cls-30{fill:#c7eafb;}.cls-31{fill:#c6eafb;}.cls-32{fill:#c5eafb;}.cls-33{fill:#c4e9fb;}.cls-34{fill:#c3e9fb;}.cls-35{fill:#c2e9fb;}.cls-36{fill:#c0e8fb;}.cls-37{fill:#bfe8fb;}.cls-38{fill:#bee8fb;}.cls-39{fill:#bde7fb;}.cls-40{fill:#bce7fb;}.cls-41{fill:#bbe7fb;}.cls-42{fill:#bae6fb;}.cls-43{fill:#b9e6fb;}.cls-44{fill:#b8e6fb;}.cls-45{fill:#b7e5fb;}.cls-46{fill:#b6e5fb;}.cls-47{fill:#b5e4fa;}.cls-48{fill:#b4e4fa;}.cls-49{fill:#b3e4fa;}.cls-50{fill:#b2e3fa;}.cls-51{fill:#b1e3fa;}.cls-52{fill:#b0e3fa;}.cls-53{fill:#afe2fa;}.cls-54{fill:#aee2fa;}.cls-55{fill:#ade2fa;}.cls-56{fill:#ace1fa;}.cls-57{fill:#abe1fa;}.cls-58{fill:#aae0fa;}.cls-59{fill:#a9dff9;}.cls-60{fill:#a8def9;}.cls-61{fill:#a7ddf8;}.cls-62{fill:#a6ddf8;}.cls-63{fill:#a5dcf7;}.cls-64{fill:#a4dbf7;}.cls-65{fill:#a3daf6;}.cls-66{fill:#a2d9f6;}.cls-67{fill:#a1d8f6;}.cls-68{fill:#9fd7f5;}.cls-69{fill:#9ed6f5;}.cls-70{fill:#9dd5f4;}.cls-71{fill:#9cd4f4;}.cls-72{fill:#9bd4f3;}.cls-73{fill:#9ad3f3;}.cls-74{fill:#99d2f2;}.cls-75{fill:#98d1f2;}.cls-76{fill:#97d0f1;}.cls-77{fill:#96cff1;}.cls-78{fill:#d1bebf;}.cls-79{fill:#a09695;opacity:0.59;mix-blend-mode:multiply;}</style><clipPath id="clip-path"><path class="cls-1" d="M112.09,1.38h0a64.48,64.48,0,0,1,64.48,64.48v72.76a0,0,0,0,1,0,0H47.6a0,0,0,0,1,0,0V65.86A64.48,64.48,0,0,1,112.09,1.38Z"/></clipPath></defs><title>Asset 4</title><g class="cls-2"><g id="Layer_2" data-name="Layer 2"><g id="con_layer" data-name="con layer"><g id="con"><path class="cls-3" d="M58.29,190.35H167.95a0,0,0,0,1,0,0v13.18a19.23,19.23,0,0,1-19.23,19.23H77.52a19.23,19.23,0,0,1-19.23-19.23V190.35A0,0,0,0,1,58.29,190.35Z"/><path class="cls-4" d="M220.05,183.1v0a7.81,7.81,0,0,1-5.47,6.88l-46.81,14.83H60.54L7.43,189.78a7.82,7.82,0,0,1-5.7-7.05,7.75,7.75,0,0,1,2.49-6.27l.08-.08A120.73,120.73,0,0,1,60.54,146.9H167.77a132.55,132.55,0,0,1,49.84,29.9l0,0a7.82,7.82,0,0,1,2.42,6.28Z"/><path class="cls-5" d="M74.44,136.06l0-.84a106.27,106.27,0,0,1,2-22.46C78.91,101.82,99.19,95.3,100.05,95l.13,0h23.95l.12,0c.87.27,21.14,6.79,23.59,17.73a104.78,104.78,0,0,1,2,22.46l0,.84Z"/><path d="M124,95.85s20.63,6.51,23,17.09a103.83,103.83,0,0,1,2,22.25H75.28a103.83,103.83,0,0,1,2-22.25c2.36-10.58,23-17.09,23-17.09H124m.26-1.72H100.05l-.26.08c-.88.28-21.61,6.94-24.17,18.36a105.33,105.33,0,0,0-2.07,22.67l0,1.68h77.11l0-1.68a103.91,103.91,0,0,0-2.07-22.67c-2.55-11.42-23.29-18.08-24.17-18.36l-.25-.08Z"/><path class="cls-6" d="M149,135.19H136.45c.19-9.25-1.5-21.29-11.78-20.62-16.58,1.09-22.52-8-22.52-8l2.52-10.68H124s20.63,6.51,23,17.09A103.83,103.83,0,0,1,149,135.19Z"/><path d="M88.5,136.55c-.08-1.7-.13-3.4-.14-5.1s0-3.4,0-5.1c0-.85,0-1.7,0-2.55s-.08-1.68,0-2.56a6.23,6.23,0,0,1,.21-1.34,4.12,4.12,0,0,1,.59-1.28,3.68,3.68,0,0,1,1.09-1.06A4.09,4.09,0,0,1,91.8,117a4.45,4.45,0,0,0-1.16.82,3.43,3.43,0,0,0-.68,1,5.86,5.86,0,0,0-.33,2.36c0,.41,0,.82.07,1.25l0,.64c0,.22,0,.45,0,.65,0,.85,0,1.7.07,2.56,0,1.7.05,3.4,0,5.1s0,3.4-.1,5.1Z"/><path d="M137,135.74c.09-1.7.13-3.4.15-5.1s0-3.41,0-5.11c0-.85,0-1.7,0-2.55s.07-1.67,0-2.56a6.16,6.16,0,0,0-.22-1.33,4.5,4.5,0,0,0-.58-1.29,3.57,3.57,0,0,0-1.1-1,4,4,0,0,0-1.5-.55,4.65,4.65,0,0,1,1.16.83,3.36,3.36,0,0,1,.67,1,6.12,6.12,0,0,1,.34,2.37c0,.41,0,.82-.08,1.24l-.05.64c0,.22,0,.45,0,.66,0,.85-.05,1.7-.06,2.55,0,1.7,0,3.4,0,5.1s0,3.41.11,5.11Z"/><path class="cls-5" d="M90,73.6c0-.86-6-14.93-13.2-15.22,0,0-4.31,23,3.73,25s9.47,0,9.47,0Z"/><path d="M74.87,72.06a31.82,31.82,0,0,0,.52,4.65A16.78,16.78,0,0,0,76,79a10.13,10.13,0,0,0,1,2.2,6.39,6.39,0,0,0,.73,1,4.7,4.7,0,0,0,.93.85,4.38,4.38,0,0,0,1.13.6,4.62,4.62,0,0,0,.6.19L81,84a24.52,24.52,0,0,0,4.61.57h.58l.58,0a5.42,5.42,0,0,0,.58-.06l.36-.05.22,0c.19,0,.38-.08.57-.14l.28-.09L89,84a2.52,2.52,0,0,0,.9-.59l0,0,0,0a1.64,1.64,0,0,1-.48.28,1.19,1.19,0,0,1-.26.11l-.27.08-.27.06-.28,0-.18,0-.38,0a14,14,0,0,1-2.24-.08A30.62,30.62,0,0,1,81.17,83l-.55-.14a2.74,2.74,0,0,1-.48-.17,3.44,3.44,0,0,1-.87-.5,4.46,4.46,0,0,1-.72-.72,6.64,6.64,0,0,1-.59-.87,9.86,9.86,0,0,1-.8-2,15.67,15.67,0,0,1-.47-2.16,42.6,42.6,0,0,1-.2-9c.11-1.5.26-3,.44-4.5.15-1.23.33-2.47.53-3.68l.23,0a7.55,7.55,0,0,1,1.24.42A10.54,10.54,0,0,1,81,61.07a16.32,16.32,0,0,1,1.85,1.69c.59.61,1.15,1.27,1.69,1.94A43.69,43.69,0,0,1,87.47,69c.46.75.9,1.5,1.32,2.27.22.38.42.76.63,1.15.1.2.2.39.29.59a3.22,3.22,0,0,1,.24.61,2.46,2.46,0,0,0-.11-.66c0-.21-.11-.43-.18-.64-.12-.43-.27-.84-.42-1.26-.31-.83-.66-1.64-1-2.45A34.42,34.42,0,0,0,85.54,64a23.82,23.82,0,0,0-1.63-2.15,18.69,18.69,0,0,0-1.93-2,11.57,11.57,0,0,0-2.34-1.58,7.76,7.76,0,0,0-2.09-.68,6.48,6.48,0,0,0-.77-.08l-.68,0H76l-.14.75c0,.15-.05.3-.08.44-.24,1.39-.41,2.76-.57,4.15s-.29,3.07-.36,4.61S74.81,70.51,74.87,72.06Z"/><path class="cls-6" d="M76.69,76.48a15.67,15.67,0,0,0,.47,2.16,9.86,9.86,0,0,0,.8,2,6.64,6.64,0,0,0,.59.87,4.46,4.46,0,0,0,.72.72,3.44,3.44,0,0,0,.87.5,2.74,2.74,0,0,0,.48.17l.55.14a30.62,30.62,0,0,0,4.42.89,14,14,0,0,0,2.24.08l.38,0,.59-3.77s-9.09,1.44-11.11-20.83l-.23,0c-.2,1.21-.38,2.45-.53,3.68-.18,1.5-.33,3-.44,4.5A42.6,42.6,0,0,0,76.69,76.48Z"/><path d="M79.76,70.58a3.41,3.41,0,0,1,.5-1.78,1,1,0,0,1,.41-.34,1,1,0,0,1,.56,0,1.47,1.47,0,0,1,.47.23,2.33,2.33,0,0,1,.38.31,9.19,9.19,0,0,1,1.2,1.47c.37.51.65,1.05,1,1.58h0l.2.46-.41.24A9,9,0,0,0,80.49,76a2.86,2.86,0,0,0-.23,2.32,4.62,4.62,0,0,0,1.51,2A4.76,4.76,0,0,1,80,78.46a3.32,3.32,0,0,1,0-2.64,7.31,7.31,0,0,1,1.48-2.22,12.16,12.16,0,0,1,2-1.75l-.21.69h0c-.24-.54-.44-1.12-.72-1.64a8.33,8.33,0,0,0-.89-1.51c-.33-.42-.84-.88-1.23-.42A3.37,3.37,0,0,0,79.76,70.58Z"/><path class="cls-5" d="M136.56,71.59c0-.86,6-14.93,13.21-15.22,0,0,4.31,23-3.73,25s-9.48,0-9.48,0Z"/><path d="M151.64,70.05a30.48,30.48,0,0,1-.51,4.65,16.78,16.78,0,0,1-.6,2.29,10.13,10.13,0,0,1-1,2.2,7,7,0,0,1-.73,1,5.4,5.4,0,0,1-.93.85,4.87,4.87,0,0,1-1.13.59,4.76,4.76,0,0,1-.61.19l-.56.11a24.52,24.52,0,0,1-4.61.57h-.58c-.2,0-.39,0-.58,0a5.9,5.9,0,0,1-.59-.06l-.35,0-.22,0c-.19,0-.38-.08-.57-.14l-.28-.09-.28-.1a2.48,2.48,0,0,1-.89-.59l0,0,0,0a2.05,2.05,0,0,0,.47.29l.27.1.27.08.27.06.28,0,.18,0,.37,0a14.11,14.11,0,0,0,2.25-.08,30.62,30.62,0,0,0,4.42-.89l.55-.14a2.74,2.74,0,0,0,.48-.17,3.22,3.22,0,0,0,.86-.5,4.15,4.15,0,0,0,.73-.72,5.72,5.72,0,0,0,.58-.87,9.34,9.34,0,0,0,.81-2,17.29,17.29,0,0,0,.47-2.16,42.6,42.6,0,0,0,.2-9c-.11-1.5-.26-3-.44-4.5-.15-1.23-.33-2.47-.53-3.68l-.23,0a7.25,7.25,0,0,0-1.24.42,10.26,10.26,0,0,0-2.07,1.28,16.42,16.42,0,0,0-1.86,1.7A23.94,23.94,0,0,0,142,62.69,43.69,43.69,0,0,0,139.05,67c-.46.75-.9,1.5-1.33,2.27l-.62,1.15c-.1.2-.2.39-.29.59a3.26,3.26,0,0,0-.25.61,2.48,2.48,0,0,1,.12-.66c0-.21.11-.43.17-.64.13-.42.28-.84.43-1.26.31-.83.66-1.64,1-2.45A34.42,34.42,0,0,1,141,62a23.82,23.82,0,0,1,1.63-2.15,18.69,18.69,0,0,1,1.93-1.95,11.3,11.3,0,0,1,2.34-1.58,7.76,7.76,0,0,1,2.09-.68,6.48,6.48,0,0,1,.77-.08l.67,0h.07l.14.75c0,.15,0,.3.08.45.23,1.38.41,2.75.56,4.14s.3,3.07.36,4.61S151.71,68.5,151.64,70.05Z"/><path class="cls-6" d="M149.83,74.47a17.29,17.29,0,0,1-.47,2.16,9.34,9.34,0,0,1-.81,2,5.72,5.72,0,0,1-.58.87,4.15,4.15,0,0,1-.73.72,3.22,3.22,0,0,1-.86.5,2.74,2.74,0,0,1-.48.17l-.55.14a30.62,30.62,0,0,1-4.42.89,14.11,14.11,0,0,1-2.25.08l-.37,0-.59-3.77s9.09,1.44,11.11-20.83l.23,0c.2,1.21.38,2.45.53,3.68.18,1.5.33,3,.44,4.5A42.6,42.6,0,0,1,149.83,74.47Z"/><path d="M146.76,68.57a3.37,3.37,0,0,0-.7-1.61c-.39-.46-.9,0-1.23.42a7.59,7.59,0,0,0-.89,1.51c-.28.52-.48,1.1-.72,1.64h0l-.21-.69a12.09,12.09,0,0,1,2,1.75,7.16,7.16,0,0,1,1.49,2.22,3.32,3.32,0,0,1,0,2.64,4.76,4.76,0,0,1-1.76,1.88,4.7,4.7,0,0,0,1.51-2A2.86,2.86,0,0,0,146,74a9,9,0,0,0-3.57-3.27l-.41-.24.2-.46h0c.34-.53.62-1.07,1-1.58a8.68,8.68,0,0,1,1.2-1.47,2.33,2.33,0,0,1,.38-.31,1.38,1.38,0,0,1,.47-.23.93.93,0,0,1,.55,0,1,1,0,0,1,.42.34A3.41,3.41,0,0,1,146.76,68.57Z"/><path class="cls-5" d="M113,111.21a20.29,20.29,0,0,1-5.22-.69c-13.11-3.44-22.91-19.3-22.91-31.18a22.13,22.13,0,0,1,.46-4.51,24.37,24.37,0,0,0,0-10,20,20,0,0,1-.43-4.16c0-12.89,12.37-23.58,27.58-23.83H113a31.78,31.78,0,0,1,15.42,3.89c8,4.42,12.72,11.87,12.72,19.94a20,20,0,0,1-.43,4.16,24.2,24.2,0,0,0,0,10,22.85,22.85,0,0,1,.46,4.51c0,12-9.87,27.87-23.08,31.23A20.76,20.76,0,0,1,113,111.21Z"/><path d="M113,37.71a30.87,30.87,0,0,1,15,3.78c7.4,4.11,12.28,11.17,12.28,19.19a19.57,19.57,0,0,1-.41,4,25.36,25.36,0,0,0,0,10.34,21.34,21.34,0,0,1,.45,4.33c0,11.72-9.68,27.15-22.43,30.39a19.27,19.27,0,0,1-9.85,0C95.35,106.36,85.75,91,85.75,79.34A20.66,20.66,0,0,1,86.2,75a25.36,25.36,0,0,0,0-10.34,19.57,19.57,0,0,1-.41-4c0-12.53,11.92-22.72,26.73-23H113M113,36h-.56a31.48,31.48,0,0,0-20,7.29A22.81,22.81,0,0,0,84,60.68,21.74,21.74,0,0,0,84.47,65a23.38,23.38,0,0,1,0,9.64A23,23,0,0,0,84,79.34c0,12.19,10.07,28.47,23.55,32a21.55,21.55,0,0,0,5.44.71,21,21,0,0,0,5.27-.67C131.87,108,142,91.63,142,79.34a23,23,0,0,0-.48-4.68,23.38,23.38,0,0,1,0-9.64,21.74,21.74,0,0,0,.44-4.34c0-8.39-4.92-16.12-13.16-20.7A32.76,32.76,0,0,0,113,36Z"/><ellipse class="cls-7" cx="100.39" cy="72.12" rx="10.09" ry="6.03" transform="translate(14.95 161.46) rotate(-81.97)"/><ellipse cx="100.26" cy="72.03" rx="5.28" ry="1.58" transform="translate(14.94 161.24) rotate(-81.97)"/><ellipse class="cls-8" cx="99.5" cy="69.61" rx="3.55" ry="1.06" transform="translate(16.67 158.41) rotate(-81.97)"/><ellipse class="cls-7" cx="125.08" cy="72.12" rx="6.03" ry="10.09" transform="translate(-4.34 8.11) rotate(-3.65)"/><ellipse cx="124.93" cy="72.06" rx="1.58" ry="5.28" transform="translate(-4.34 8.11) rotate(-3.65)"/><ellipse class="cls-8" cx="123.7" cy="69.84" rx="1.06" ry="3.55" transform="translate(-4.2 8.02) rotate(-3.65)"/><path class="cls-5" d="M91.2,79.91a14.34,14.34,0,0,1,14.36,5.17"/><path d="M91.2,79.91a9.1,9.1,0,0,1,4-1,11.11,11.11,0,0,1,4.18.67,11,11,0,0,1,3.64,2.15,10.1,10.1,0,0,1,2.5,3.31c-1.16-.78-2.17-1.59-3.3-2.22a18.1,18.1,0,0,0-3.42-1.62,19.7,19.7,0,0,0-3.68-1A33.26,33.26,0,0,0,91.2,79.91Z"/><path class="cls-9" d="M98.38,87.73s13.82,7.09,29,0l2.76-.68a21.25,21.25,0,0,1-7.73,9.66l-.12.08a17.35,17.35,0,0,1-18.58.29,21.05,21.05,0,0,1-2.55-1.81,22,22,0,0,1-6.37-8.63Z"/><path class="cls-5" d="M134.84,79.91a14.32,14.32,0,0,0-14.35,5.17"/><path d="M134.84,79.91a32.89,32.89,0,0,0-4,.37,19.7,19.7,0,0,0-3.68,1,18.1,18.1,0,0,0-3.42,1.62c-1.13.63-2.15,1.44-3.3,2.22a10.1,10.1,0,0,1,2.5-3.31A11.36,11.36,0,0,1,130.81,79,9,9,0,0,1,134.84,79.91Z"/><path class="cls-5" d="M92,84.55a10.16,10.16,0,0,0,10.46,2.76"/><path d="M92,84.55a24.14,24.14,0,0,0,5,2,16.79,16.79,0,0,0,2.58.48c.9.12,1.81.12,2.83.23a6.38,6.38,0,0,1-2.79,1.12,7,7,0,0,1-3.06-.16,7.27,7.27,0,0,1-2.74-1.36A5.82,5.82,0,0,1,92,84.55Z"/><path class="cls-5" d="M133.73,84.55a10.15,10.15,0,0,1-10.46,2.76"/><path d="M133.73,84.55a5.82,5.82,0,0,1-1.87,2.36,7.27,7.27,0,0,1-2.74,1.36,7,7,0,0,1-3.06.16,6.38,6.38,0,0,1-2.79-1.12c1-.11,1.93-.11,2.83-.23a16.79,16.79,0,0,0,2.58-.48A24.14,24.14,0,0,0,133.73,84.55Z"/><path class="cls-5" d="M91.2,59.24s8.34,2,13.21,6.89c3.3,3.3,10.62,1.15,8-5.74"/><path d="M91.2,59.24a29.85,29.85,0,0,1,7.13,2.07A29.21,29.21,0,0,1,101.67,63a20.94,20.94,0,0,1,3,2.29c.25.24.45.38.64.54a3.62,3.62,0,0,0,.65.42,5,5,0,0,0,1.47.47,4.8,4.8,0,0,0,3-.52,3.79,3.79,0,0,0,1.86-2.33,9,9,0,0,0,.12-3.5,6.31,6.31,0,0,1,1,3.71,4.76,4.76,0,0,1-.65,2,3.64,3.64,0,0,1-.67.85,3.69,3.69,0,0,1-.84.68,5.84,5.84,0,0,1-4.09.79,6.86,6.86,0,0,1-2-.68,5.2,5.2,0,0,1-.88-.59,8.82,8.82,0,0,1-.74-.67,26.27,26.27,0,0,0-5.76-4.17A52.72,52.72,0,0,0,91.2,59.24Z"/><path class="cls-5" d="M138,59s-8.33,2-13.21,6.9c-3.3,3.3-10.62,1.14-8-5.75"/><path d="M138,59A54.84,54.84,0,0,0,131.34,62a26.27,26.27,0,0,0-5.76,4.17c-.19.19-.47.44-.74.67a4.74,4.74,0,0,1-.89.59,6.15,6.15,0,0,1-2,.68,5.86,5.86,0,0,1-4.09-.78,4.29,4.29,0,0,1-.84-.69,3.7,3.7,0,0,1-.67-.85,4.57,4.57,0,0,1-.64-2,6.25,6.25,0,0,1,1-3.71,9.08,9.08,0,0,0,.12,3.51,3.77,3.77,0,0,0,1.87,2.32,4.86,4.86,0,0,0,3,.53,5.39,5.39,0,0,0,1.47-.48,3.36,3.36,0,0,0,.64-.42c.2-.16.39-.3.65-.53a20.17,20.17,0,0,1,3-2.29A29.42,29.42,0,0,1,130.85,61,29.77,29.77,0,0,1,138,59Z"/><path class="cls-5" d="M91,55.49s3.64-5.66,11.4-1.41"/><path d="M91,55.49a6,6,0,0,1,5.29-3.83,7.66,7.66,0,0,1,3.37.57,9.88,9.88,0,0,1,1.48.77,11.77,11.77,0,0,1,1.26,1.08,14.49,14.49,0,0,1-1.59-.3c-.52-.07-1-.19-1.51-.26a15.66,15.66,0,0,0-2.88-.14A10.52,10.52,0,0,0,91,55.49Z"/><path class="cls-5" d="M135.66,55.2s-3.64-5.66-11.4-1.41"/><path d="M135.66,55.2a10.73,10.73,0,0,0-5.42-2.11,16.59,16.59,0,0,0-2.88.14c-.5.07-1,.19-1.51.26a14.49,14.49,0,0,1-1.59.3A7.29,7.29,0,0,1,127,51.94a7.52,7.52,0,0,1,3.37-.56A6,6,0,0,1,135.66,55.2Z"/><path class="cls-5" d="M102.55,99.58s6.31,6.6,15.79,2"/><path d="M102.55,99.58a25.14,25.14,0,0,0,3.78,1.76,16.57,16.57,0,0,0,3.88.91,8.3,8.3,0,0,0,1,.1,8.18,8.18,0,0,0,1,0h1l1-.1c.68,0,1.34-.19,2-.28s1.36-.31,2.1-.4a13.11,13.11,0,0,1-1.83,1.2,10.72,10.72,0,0,1-2.06.8A10.93,10.93,0,0,1,110,104a11.13,11.13,0,0,1-4.24-1.41A9.15,9.15,0,0,1,102.55,99.58Z"/><ellipse class="cls-6" cx="102.11" cy="45.46" rx="3.16" ry="1.72"/><ellipse class="cls-6" cx="103.69" cy="48.62" rx="1.58" ry="0.86"/><ellipse class="cls-6" cx="107.71" cy="47.18" rx="1.58" ry="0.86"/><path class="cls-5" d="M110.3,45.89s5.76-34.1,23.63-32a6.68,6.68,0,0,1,5.95,6,4.42,4.42,0,0,1-2,4.51c-4.16,2.44-7.47,0-8.61-3.73,0,0-14.93,9.47-14.65,26.41"/><path d="M110.09,45.86a76.78,76.78,0,0,1,4.71-16.59,44.88,44.88,0,0,1,4.08-7.68,22.44,22.44,0,0,1,6.14-6.3,13.51,13.51,0,0,1,8.64-2.24,7.79,7.79,0,0,1,4.41,1.7,7.4,7.4,0,0,1,2.54,4.06,7.61,7.61,0,0,1,.16,2.43A4.9,4.9,0,0,1,138,25.35a7.61,7.61,0,0,1-2.29.81A5.79,5.79,0,0,1,131,24.9a8.34,8.34,0,0,1-2.53-4l1.29.47a34.85,34.85,0,0,0-5.85,4.92,36.71,36.71,0,0,0-4.73,6.08,29.56,29.56,0,0,0-3.16,7A27.93,27.93,0,0,0,114.76,47h-.31a28.34,28.34,0,0,1,.74-7.88,30.28,30.28,0,0,1,2.93-7.41,35,35,0,0,1,4.67-6.48,35.34,35.34,0,0,1,6-5.37l.94-.65.35,1.12a6.5,6.5,0,0,0,2,3.14,3.91,3.91,0,0,0,3.3.83,6,6,0,0,0,1.73-.64,3.32,3.32,0,0,0,1.3-1.07,4.52,4.52,0,0,0,.46-3.43,5.93,5.93,0,0,0-5.36-4.54,11.91,11.91,0,0,0-7.73,1.82,20.91,20.91,0,0,0-5.91,5.8,43.07,43.07,0,0,0-4.16,7.38,81,81,0,0,0-5.2,16.27Z"/><path class="cls-6" d="M139.85,75a21.34,21.34,0,0,1,.45,4.33c0,11.72-9.68,27.15-22.43,30.39a19.27,19.27,0,0,1-9.85,0c20.18-6,33.57-25.35,30.41-30.78-3.59-6.17-.14-17.37,0-22.4.09-2.92-5.62-9.79-10.41-15,7.4,4.11,12.28,11.17,12.28,19.19a19.57,19.57,0,0,1-.41,4A25.36,25.36,0,0,0,139.85,75Z"/><path class="cls-10" d="M127.26,181.5V165.56l12.85-14.88-1.56-1.35-13.36,15.46v16.75Z"/><path class="cls-11" d="M88.83,125.52h47.9a15.36,15.36,0,0,1,15.36,15.36v1.88a0,0,0,0,1,0,0H73.47a0,0,0,0,1,0,0v-1.88A15.36,15.36,0,0,1,88.83,125.52Z"/><path class="cls-10" d="M91.74,181.36l2.07,0V163.76L80.45,148.29l-1.56,1.35,12.85,14.89Z"/><g class="cls-12"><g class="cls-13"><rect class="cls-14" x="47.6" y="1.38" width="0.72" height="137.24"/><rect class="cls-14" x="48.33" y="1.38" width="1.3" height="137.24"/><rect class="cls-15" x="49.63" y="1.38" width="1.3" height="137.24"/><rect class="cls-16" x="50.93" y="1.38" width="1.3" height="137.24"/><rect class="cls-17" x="52.23" y="1.38" width="1.3" height="137.24"/><rect class="cls-18" x="53.53" y="1.38" width="1.3" height="137.24"/><rect class="cls-19" x="54.83" y="1.38" width="1.3" height="137.24"/><rect class="cls-20" x="56.13" y="1.38" width="1.3" height="137.24"/><rect class="cls-21" x="57.43" y="1.38" width="1.3" height="137.24"/><rect class="cls-22" x="58.73" y="1.38" width="1.3" height="137.24"/><rect class="cls-23" x="60.03" y="1.38" width="1.3" height="137.24"/><rect class="cls-24" x="61.34" y="1.38" width="1.3" height="137.24"/><rect class="cls-25" x="62.64" y="1.38" width="1.3" height="137.24"/><rect class="cls-26" x="63.94" y="1.38" width="1.3" height="137.24"/><rect class="cls-27" x="65.24" y="1.38" width="1.3" height="137.24"/><rect class="cls-28" x="66.54" y="1.38" width="1.3" height="137.24"/><rect class="cls-29" x="67.84" y="1.38" width="1.3" height="137.24"/><rect class="cls-30" x="69.14" y="1.38" width="1.3" height="137.24"/><rect class="cls-31" x="70.44" y="1.38" width="1.3" height="137.24"/><rect class="cls-32" x="71.74" y="1.38" width="1.3" height="137.24"/><rect class="cls-33" x="73.04" y="1.38" width="1.3" height="137.24"/><rect class="cls-34" x="74.34" y="1.38" width="1.3" height="137.24"/><rect class="cls-35" x="75.65" y="1.38" width="1.3" height="137.24"/><rect class="cls-36" x="76.95" y="1.38" width="1.3" height="137.24"/><rect class="cls-37" x="78.25" y="1.38" width="1.3" height="137.24"/><rect class="cls-38" x="79.55" y="1.38" width="1.3" height="137.24"/><rect class="cls-39" x="80.85" y="1.38" width="1.3" height="137.24"/><rect class="cls-40" x="82.15" y="1.38" width="1.3" height="137.24"/><rect class="cls-41" x="83.45" y="1.38" width="1.3" height="137.24"/><rect class="cls-42" x="84.75" y="1.38" width="1.3" height="137.24"/><rect class="cls-43" x="86.05" y="1.38" width="1.3" height="137.24"/><rect class="cls-44" x="87.35" y="1.38" width="1.3" height="137.24"/><rect class="cls-45" x="88.65" y="1.38" width="1.3" height="137.24"/><rect class="cls-46" x="89.96" y="1.38" width="1.3" height="137.24"/><rect class="cls-47" x="91.26" y="1.38" width="1.3" height="137.24"/><rect class="cls-48" x="92.56" y="1.38" width="1.3" height="137.24"/><rect class="cls-49" x="93.86" y="1.38" width="1.3" height="137.24"/><rect class="cls-50" x="95.16" y="1.38" width="1.3" height="137.24"/><rect class="cls-51" x="96.46" y="1.38" width="1.3" height="137.24"/><rect class="cls-52" x="97.76" y="1.38" width="1.3" height="137.24"/><rect class="cls-53" x="99.06" y="1.38" width="1.3" height="137.24"/><rect class="cls-54" x="100.36" y="1.38" width="1.3" height="137.24"/><rect class="cls-55" x="101.66" y="1.38" width="1.3" height="137.24"/><rect class="cls-56" x="102.96" y="1.38" width="1.3" height="137.24"/><rect class="cls-57" x="104.26" y="1.38" width="1.3" height="137.24"/><rect class="cls-57" x="105.57" y="1.38" width="3.38" height="137.24"/><rect class="cls-58" x="108.95" y="1.38" width="3.38" height="137.24"/><rect class="cls-59" x="112.33" y="1.38" width="3.38" height="137.24"/><rect class="cls-60" x="115.71" y="1.38" width="3.38" height="137.24"/><rect class="cls-61" x="119.09" y="1.38" width="3.38" height="137.24"/><rect class="cls-62" x="122.47" y="1.38" width="3.38" height="137.24"/><rect class="cls-63" x="125.85" y="1.38" width="3.38" height="137.24"/><rect class="cls-64" x="129.23" y="1.38" width="3.38" height="137.24"/><rect class="cls-65" x="132.61" y="1.38" width="3.38" height="137.24"/><rect class="cls-66" x="136" y="1.38" width="3.38" height="137.24"/><rect class="cls-67" x="139.38" y="1.38" width="3.38" height="137.24"/><rect class="cls-68" x="142.76" y="1.38" width="3.38" height="137.24"/><rect class="cls-69" x="146.14" y="1.38" width="3.38" height="137.24"/><rect class="cls-70" x="149.52" y="1.38" width="3.38" height="137.24"/><rect class="cls-71" x="152.9" y="1.38" width="3.38" height="137.24"/><rect class="cls-72" x="156.28" y="1.38" width="3.38" height="137.24"/><rect class="cls-73" x="159.66" y="1.38" width="3.38" height="137.24"/><rect class="cls-74" x="163.05" y="1.38" width="3.38" height="137.24"/><rect class="cls-75" x="166.43" y="1.38" width="3.38" height="137.24"/><rect class="cls-76" x="169.81" y="1.38" width="3.38" height="137.24"/><rect class="cls-77" x="173.19" y="1.38" width="3.38" height="137.24"/><path class="cls-77" d="M176.57,138.62v0Z"/></g></g><path d="M178,140H46.22V65.86a65.87,65.87,0,0,1,131.73,0ZM49,137.24H175.19V65.86A63.11,63.11,0,0,0,49,65.86Z"/><polygon class="cls-78" points="184.5 153.8 40.36 153.11 47.26 135.86 176.91 135.86 184.5 153.8"/><path class="cls-79" d="M220.05,183.1v0a7.81,7.81,0,0,1-5.47,6.88l-46.81,14.83H60.54L7.43,189.78a7.82,7.82,0,0,1-5.7-7.05,7.75,7.75,0,0,1,2.49-6.27l.08-.08a1141.38,1141.38,0,0,0,213.33.44,7.82,7.82,0,0,1,2.42,6.28Z"/><circle class="cls-5" cx="110.71" cy="167.59" r="8.28"/></g></g></g></g></svg>